%FSLAX42Y42*%
%MOMM*%
G71*
G01*
G75*
G04 Layer_Physical_Order=1*
%ADD10C,1.00*%
%ADD11C,0.25*%
%ADD12C,0.51*%
%ADD13C,0.41*%
%ADD14C,2.10*%
%ADD15C,1.50*%
%ADD16C,1.30*%
%ADD17R,1.50X1.50*%
%ADD18C,1.40*%
%ADD19O,1.57X2.03*%
%ADD20R,1.57X2.03*%
%ADD21C,1.78*%
D10*
X8927Y10490D02*
G03*
X8787Y10692I-215J0D01*
G01*
Y10289D02*
G03*
X8927Y10490I-75J202D01*
G01*
X8787Y10692D02*
G03*
X8508Y10818I-202J-75D01*
G01*
X8397Y10467D02*
G03*
X8787Y10289I188J-104D01*
G01*
X9523Y9550D02*
G03*
X9471Y9674I-175J0D01*
G01*
X9523Y9550D02*
G03*
X9471Y9674I-175J0D01*
G01*
X8456Y10109D02*
G03*
X8404Y10233I-175J0D01*
G01*
X8456Y10109D02*
G03*
X8404Y10233I-175J0D01*
G01*
X9418Y9727D02*
G03*
X9068Y9889I-224J-24D01*
G01*
G03*
X8754Y9829I-127J-186D01*
G01*
X8754Y9830D02*
G03*
X8456Y10035I-220J0D01*
G01*
X7801Y10840D02*
G03*
X7645Y10803I-29J-223D01*
G01*
G03*
X7391Y10803I-127J-186D01*
G01*
G03*
X7137Y10803I-127J-186D01*
G01*
G03*
X6869Y10793I-127J-186D01*
G01*
X6807D02*
G03*
X6683Y10741I0J-175D01*
G01*
X6807Y10793D02*
G03*
X6683Y10741I0J-175D01*
G01*
X6610Y10668D02*
G03*
X6199Y10692I-209J-51D01*
G01*
G03*
X6199Y10289I75J-202D01*
G01*
X6017Y10414D02*
G03*
X5958Y10556I-200J0D01*
G01*
X6017Y10414D02*
G03*
X5958Y10555I-200J0D01*
G01*
X6883Y9650D02*
G03*
X7025Y9610I127J180D01*
G01*
X6629Y9650D02*
G03*
X6883Y9650I127J180D01*
G01*
X6886Y9471D02*
G03*
X6835Y9347I124J-124D01*
G01*
X6375Y9650D02*
G03*
X6629Y9650I127J180D01*
G01*
X6886Y9471D02*
G03*
X6835Y9347I124J-124D01*
G01*
Y9273D02*
G03*
X6629Y9247I-79J-205D01*
G01*
X6874Y8882D02*
G03*
X6886Y8868I137J110D01*
G01*
X6874Y8882D02*
G03*
X6886Y8868I137J110D01*
G01*
X6629Y8888D02*
G03*
X6874Y8882I127J180D01*
G01*
X6629Y9247D02*
G03*
X6375Y9247I-127J-180D01*
G01*
Y8888D02*
G03*
X6629Y8888I127J180D01*
G01*
X6199Y10289D02*
G03*
X6329Y10161I202J75D01*
G01*
G03*
X6327Y10135I173J-26D01*
G01*
X6329Y10161D02*
G03*
X6327Y10135I173J-26D01*
G01*
Y10035D02*
G03*
X6375Y9650I-79J-205D01*
G01*
X5958Y9704D02*
G03*
X6017Y9846I-141J141D01*
G01*
X5958Y9704D02*
G03*
X6017Y9846I-141J142D01*
G01*
X6375Y9247D02*
G03*
X6030Y9098I-127J-180D01*
G01*
X6321Y8860D02*
G03*
X6375Y8888I-72J208D01*
G01*
X9471Y7826D02*
G03*
X9523Y7950I-124J124D01*
G01*
X9471Y7826D02*
G03*
X9523Y7950I-124J124D01*
G01*
X9322Y7389D02*
G03*
X9223Y7578I-229J0D01*
G01*
X8966Y7153D02*
G03*
X9322Y7343I127J190D01*
G01*
X8836Y7114D02*
G03*
X8966Y7153I4J229D01*
G01*
X7696D02*
G03*
X7709Y7145I127J190D01*
G01*
X7442Y7153D02*
G03*
X7696Y7153I127J190D01*
G01*
X8103Y6454D02*
G03*
X8227Y6505I0J175D01*
G01*
X8103Y6454D02*
G03*
X8227Y6505I0J175D01*
G01*
X8060Y6325D02*
G03*
X8099Y6452I-186J127D01*
G01*
Y6198D02*
G03*
X8060Y6325I-225J0D01*
G01*
X7747Y6012D02*
G03*
X8099Y6198I127J186D01*
G01*
X7493Y6012D02*
G03*
X7747Y6012I127J186D01*
G01*
X7078Y8676D02*
G03*
X7114Y8508I221J-40D01*
G01*
Y8433D02*
G03*
X7126Y8370I175J0D01*
G01*
X7114Y8433D02*
G03*
X7126Y8370I175J0D01*
G01*
G03*
X6934Y8341I-65J-219D01*
G01*
X7408Y7134D02*
G03*
X7442Y7153I-93J209D01*
G01*
X6934Y8341D02*
G03*
X6680Y8341I-127J-190D01*
G01*
X6632Y7801D02*
G03*
X6638Y7795I124J124D01*
G01*
X6632Y7801D02*
G03*
X6638Y7795I124J124D01*
G01*
X6524Y8636D02*
G03*
X6321Y8860I-225J0D01*
G01*
X6289Y8411D02*
G03*
X6524Y8636I10J225D01*
G01*
X6680Y8341D02*
G03*
X6426Y8341I-127J-190D01*
G01*
Y7915D02*
G03*
X6557Y7876I127J190D01*
G01*
X6426Y8341D02*
G03*
X6322Y8378I-127J-190D01*
G01*
X6172Y7915D02*
G03*
X6426Y7915I127J190D01*
G01*
X7414Y7087D02*
G03*
X7408Y7134I-175J0D01*
G01*
X7414Y7087D02*
G03*
X7408Y7134I-175J0D01*
G01*
X7239Y6012D02*
G03*
X7493Y6012I127J186D01*
G01*
X7083Y5974D02*
G03*
X7239Y6012I29J223D01*
G01*
X6582Y6074D02*
G03*
X6633Y6038I124J124D01*
G01*
X6582Y6074D02*
G03*
X6633Y6038I124J124D01*
G01*
X6498Y6078D02*
G03*
X6521Y6134I-148J94D01*
G01*
X6329Y5954D02*
G03*
X6498Y6078I-30J218D01*
G01*
X6071Y5768D02*
G03*
X6195Y5820I0J175D01*
G01*
X6071Y5768D02*
G03*
X6195Y5820I0J175D01*
G01*
X5811Y10702D02*
G03*
X5457Y10817I-223J-85D01*
G01*
X5355Y10417D02*
G03*
X5617Y10126I233J-54D01*
G01*
X5874Y9600D02*
G03*
X5888Y9634I-200J103D01*
G01*
X5815Y9317D02*
G03*
X5874Y9458I-141J141D01*
G01*
X5815Y9317D02*
G03*
X5874Y9458I-141J142D01*
G01*
X5896Y8963D02*
G03*
X5844Y8839I124J-124D01*
G01*
X5896Y8963D02*
G03*
X5844Y8839I124J-124D01*
G01*
X5605Y9917D02*
G03*
X5474Y9600I69J-214D01*
G01*
X5311Y8893D02*
G03*
X5450Y8952I-3J200D01*
G01*
X5311Y8893D02*
G03*
X5450Y8952I-3J200D01*
G01*
X5279Y9347D02*
G03*
X4904Y9295I-174J-126D01*
G01*
X5844Y8782D02*
G03*
X5571Y8836I-171J-146D01*
G01*
X5031Y10817D02*
G03*
X4704Y10588I-103J-200D01*
G01*
X4666Y10490D02*
G03*
X4700Y10617I-221J127D01*
G01*
Y10363D02*
G03*
X4666Y10490I-255J0D01*
G01*
X4700Y10617D02*
G03*
X4224Y10490I-255J0D01*
G01*
G03*
X4700Y10363I221J-127D01*
G01*
X4899Y9703D02*
G03*
X4899Y9703I-225J0D01*
G01*
X4778Y8941D02*
G03*
X4837Y8799I200J0D01*
G01*
X4778Y8941D02*
G03*
X4837Y8799I200J0D01*
G01*
X4904Y9295D02*
G03*
X4778Y9014I75J-202D01*
G01*
X5844Y8433D02*
G03*
X5856Y8370I175J0D01*
G01*
X5844Y8433D02*
G03*
X5856Y8370I175J0D01*
G01*
X5571Y8436D02*
G03*
X5844Y8490I103J200D01*
G01*
X5856Y8370D02*
G03*
X5562Y8151I-65J-219D01*
G01*
X5918Y7915D02*
G03*
X6172Y7915I127J190D01*
G01*
X5562Y8105D02*
G03*
X5918Y7915I229J0D01*
G01*
X5944Y7795D02*
G03*
X5820Y7744I0J-175D01*
G01*
X5944Y7795D02*
G03*
X5820Y7744I0J-175D01*
G01*
X5142Y8495D02*
G03*
X5283Y8436I141J141D01*
G01*
X5142Y8495D02*
G03*
X5283Y8436I142J141D01*
G01*
X5381Y7696D02*
G03*
X5014Y7870I-225J0D01*
G01*
X5027Y7512D02*
G03*
X5381Y7696I129J184D01*
G01*
X5634Y6759D02*
G03*
X5616Y6680I157J-79D01*
G01*
X5634Y6759D02*
G03*
X5616Y6680I157J-79D01*
G01*
X5549Y6604D02*
G03*
X5483Y6759I-215J0D01*
G01*
X5507Y6477D02*
G03*
X5549Y6604I-173J127D01*
G01*
X5548Y6333D02*
G03*
X5549Y6350I-214J17D01*
G01*
X5616Y6305D02*
G03*
X5600Y6281I175J-133D01*
G01*
X5549Y6350D02*
G03*
X5507Y6477I-215J0D01*
G01*
X5439Y5820D02*
G03*
X5563Y5768I124J124D01*
G01*
X5439Y5820D02*
G03*
X5563Y5768I124J124D01*
G01*
X4899Y8636D02*
G03*
X4899Y8636I-225J0D01*
G01*
X5014Y7870D02*
G03*
X4637Y7770I-163J-148D01*
G01*
X4975Y7369D02*
G03*
X5027Y7493I-124J124D01*
G01*
X4975Y7369D02*
G03*
X5027Y7493I-124J124D01*
G01*
X4637Y7770D02*
G03*
X4310Y7468I-141J-175D01*
G01*
G03*
X4273Y7312I186J-127D01*
G01*
X4721Y7167D02*
G03*
X4823Y7217I-22J174D01*
G01*
X4721Y7167D02*
G03*
X4823Y7217I-22J174D01*
G01*
X4940Y7161D02*
G03*
X4931Y7165I-89J-201D01*
G01*
G03*
X4721Y7137I-80J-205D01*
G01*
X4654Y6862D02*
G03*
X4714Y6788I197J98D01*
G01*
G03*
X4624Y6679I112J-184D01*
G01*
X5049Y6223D02*
G03*
X5083Y6175I158J76D01*
G01*
X4953Y6176D02*
G03*
X5049Y6223I-25J174D01*
G01*
G03*
X5083Y6175I158J76D01*
G01*
X4953Y6176D02*
G03*
X5049Y6223I-25J174D01*
G01*
X4624Y6275D02*
G03*
X4953Y6176I202J75D01*
G01*
X4624Y6679D02*
G03*
X4624Y6275I75J-202D01*
G01*
X9570Y11049D02*
X9627Y10992D01*
X9498Y11049D02*
X9627Y10920D01*
X9426Y11049D02*
X9627Y10848D01*
X9354Y11049D02*
X9627Y10777D01*
X9282Y11049D02*
X9627Y10705D01*
X9210Y11049D02*
X9627Y10633D01*
X9139Y11049D02*
X9627Y10561D01*
X8927Y10507D02*
X9468Y11049D01*
X9067D02*
X9627Y10489D01*
X8913Y10566D02*
X9397Y11049D01*
X8889Y10613D02*
X9325Y11049D01*
X8913Y10566D02*
X9397Y11049D01*
X8812Y10680D02*
X9181Y11049D01*
X8855Y10651D02*
X9253Y11049D01*
X8747Y10759D02*
X9037Y11049D01*
X8776Y10716D02*
X9109Y11049D01*
X8663Y10818D02*
X8894Y11049D01*
X8709Y10793D02*
X8966Y11049D01*
X8995D02*
X9627Y10417D01*
X8923Y11049D02*
X9627Y10345D01*
X8851Y11049D02*
X9627Y10274D01*
X8779Y11049D02*
X9627Y10202D01*
X8708Y11049D02*
X9627Y10130D01*
X8989Y9923D02*
X9627Y10561D01*
X8921Y9927D02*
X9627Y10632D01*
X8691Y9984D02*
X9627Y10920D01*
X8723Y9944D02*
X9627Y10848D01*
X8917Y10426D02*
X9540Y11049D01*
X8803Y9881D02*
X9627Y10704D01*
X8745Y9894D02*
X9627Y10776D01*
X9042Y9904D02*
X9627Y10489D01*
X8926Y10471D02*
X9627Y9771D01*
X8919Y10551D02*
X9627Y9843D01*
X8604Y10831D02*
X8822Y11049D01*
X8525Y10823D02*
X8750Y11049D01*
X8447Y10818D02*
X8678Y11049D01*
X8420D02*
X8646Y10824D01*
X8375Y10818D02*
X8606Y11049D01*
X8348D02*
X8566Y10831D01*
X8304Y10818D02*
X8535Y11049D01*
X8277D02*
X8508Y10818D01*
X8251D02*
X8508D01*
X8251Y10838D02*
X8463Y11049D01*
X8184Y10842D02*
X8391Y11049D01*
X8112Y10842D02*
X8319Y11049D01*
X8040Y10842D02*
X8247Y11049D01*
X7989D02*
X8196Y10842D01*
X7969D02*
X8175Y11049D01*
X8251Y10818D02*
Y10842D01*
X7917Y11049D02*
X8124Y10842D01*
X7801D02*
X8251D01*
X8636Y11049D02*
X9627Y10058D01*
X8602Y10039D02*
X9612Y11049D01*
X8564D02*
X9627Y9986D01*
X8205Y11049D02*
X8436Y10818D01*
X8492Y11049D02*
X9627Y9914D01*
X8651Y10016D02*
X9627Y10992D01*
X8251Y10467D02*
X8397D01*
X8355D02*
X8384Y10439D01*
X8277Y10361D02*
X8384Y10467D01*
X8133Y11049D02*
X8364Y10818D01*
X8061Y11049D02*
X8292Y10818D01*
X8251Y10407D02*
X8312Y10467D01*
X8284D02*
X8371Y10380D01*
X8251Y10392D02*
Y10467D01*
Y10428D02*
X8380Y10299D01*
X9410Y9769D02*
X9627Y9986D01*
X9429Y9717D02*
X9627Y9914D01*
X9465Y9681D02*
X9627Y9842D01*
X9356Y9859D02*
X9627Y10129D01*
X9388Y9819D02*
X9627Y10058D01*
X9518Y9590D02*
X9627Y9698D01*
X9523Y9523D02*
X9627Y9627D01*
X9497Y9641D02*
X9627Y9770D01*
X9408Y9773D02*
X9627Y9555D01*
X9517Y9593D02*
X9627Y9483D01*
X9523Y9451D02*
X9627Y9555D01*
X9418Y9727D02*
X9471Y9674D01*
X9523Y9516D02*
X9627Y9412D01*
X9523Y9379D02*
X9627Y9483D01*
X9523Y9444D02*
X9627Y9340D01*
X9523Y9307D02*
X9627Y9411D01*
X9523Y9372D02*
X9627Y9268D01*
X9523Y9235D02*
X9627Y9339D01*
X9523Y9300D02*
X9627Y9196D01*
X9523Y9163D02*
X9627Y9267D01*
X9523Y9228D02*
X9627Y9124D01*
X9523Y9092D02*
X9627Y9196D01*
X9523Y9156D02*
X9627Y9052D01*
X9523Y9020D02*
X9627Y9124D01*
X9523Y9084D02*
X9627Y8980D01*
X9523Y8948D02*
X9627Y9052D01*
X9523Y9013D02*
X9627Y8909D01*
X9523Y8876D02*
X9627Y8980D01*
X9523Y8941D02*
X9627Y8837D01*
X9523Y8804D02*
X9627Y8908D01*
X9523Y8869D02*
X9627Y8765D01*
X9523Y8732D02*
X9627Y8836D01*
X9523Y8797D02*
X9627Y8693D01*
X9209Y9927D02*
X9627Y10345D01*
X8811Y10299D02*
X9183Y9927D01*
X8541Y10050D02*
X8649Y10158D01*
X8456Y10108D02*
X8510Y10162D01*
X8449Y10158D02*
X8559Y10048D01*
X8456Y10108D02*
X8510Y10162D01*
X8456Y10036D02*
X8568Y10149D01*
X8385Y10253D02*
X8395Y10263D01*
X8349Y10289D02*
X8376Y10315D01*
X8313Y10325D02*
X8371Y10383D01*
X8250Y10388D02*
X8404Y10233D01*
X8456Y10079D02*
X8490Y10045D01*
X8456Y10035D02*
Y10109D01*
X8445Y10169D02*
X8462Y10187D01*
X9269Y9915D02*
X9627Y10273D01*
X9127Y9917D02*
X9627Y10417D01*
X8913Y10413D02*
X9627Y9699D01*
X8854Y10328D02*
X9265Y9916D01*
X8888Y10366D02*
X9627Y9627D01*
X9317Y9892D02*
X9627Y10201D01*
X8775Y10263D02*
X9122Y9916D01*
X8746Y10220D02*
X9074Y9892D01*
X8708Y10187D02*
X8968Y9926D01*
X8661Y10162D02*
X8899Y9924D01*
X8602Y10149D02*
X8845Y9906D01*
X8521Y10158D02*
X8800Y9879D01*
X8753Y9854D02*
X8764Y9843D01*
X8754Y9832D02*
X8763Y9840D01*
X7897Y10842D02*
X8103Y11049D01*
X7845D02*
X8052Y10842D01*
X7825D02*
X8032Y11049D01*
X7774D02*
X7980Y10842D01*
X7752Y10841D02*
X7960Y11049D01*
X7702D02*
X7909Y10842D01*
X7630Y11049D02*
X7837Y10842D01*
X7558Y11049D02*
X7765Y10842D01*
X7596Y10829D02*
X7816Y11049D01*
X7537Y10841D02*
X7744Y11049D01*
X7486D02*
X7704Y10831D01*
X7457Y10834D02*
X7672Y11049D01*
X7343D02*
X7552Y10840D01*
X7271Y11049D02*
X7481Y10839D01*
X7250Y10842D02*
X7457Y11049D01*
X7055D02*
X7262Y10842D01*
X7033Y10841D02*
X7241Y11049D01*
X6840D02*
X7050Y10839D01*
X7643Y10804D02*
X7888Y11049D01*
X7368Y10817D02*
X7601Y11049D01*
X7414D02*
X7655Y10809D01*
X7316Y10836D02*
X7529Y11049D01*
X7199D02*
X7426Y10822D01*
X7142Y10806D02*
X7385Y11049D01*
X7127D02*
X7351Y10825D01*
X7091Y10827D02*
X7313Y11049D01*
X6983D02*
X7200Y10833D01*
X6956Y10836D02*
X7170Y11049D01*
X6912D02*
X7150Y10811D01*
X6841Y10793D02*
X7098Y11049D01*
X6807Y10793D02*
X6869D01*
X6768Y11049D02*
X6977Y10840D01*
X6696Y11049D02*
X6921Y10824D01*
X6764Y10787D02*
X7026Y11049D01*
X6624D02*
X6876Y10797D01*
X6552Y11049D02*
X6809Y10793D01*
X6541Y10780D02*
X6810Y11049D01*
X6480D02*
X6747Y10782D01*
X6498Y10809D02*
X6738Y11049D01*
X6445Y10828D02*
X6667Y11049D01*
X6409D02*
X6701Y10757D01*
X6377Y10831D02*
X6595Y11049D01*
X6265D02*
X6514Y10800D01*
X6193Y11049D02*
X6410Y10832D01*
X6121Y11049D02*
X6345Y10825D01*
X6049Y11049D02*
X6294Y10804D01*
X5978Y11049D02*
X6253Y10773D01*
X6576Y10742D02*
X6882Y11049D01*
X6337D02*
X6664Y10722D01*
X6601Y10696D02*
X6954Y11049D01*
X5989Y10515D02*
X6523Y11049D01*
X6584Y10730D02*
X6628Y10686D01*
X6610Y10668D02*
X6683Y10741D01*
X6015Y10436D02*
X6327Y10125D01*
X6010Y10464D02*
X6060Y10514D01*
X6017Y10399D02*
X6063Y10446D01*
X6017Y9846D02*
Y10414D01*
Y10327D02*
X6082Y10393D01*
X6017Y10363D02*
X6327Y10053D01*
X6878Y9646D02*
X6969Y9554D01*
X6830Y9622D02*
X6933Y9518D01*
X6552Y9282D02*
X6906Y9636D01*
X6984Y9611D02*
X7005Y9590D01*
X6886Y9471D02*
X7025Y9610D01*
X6770Y9610D02*
X6898Y9482D01*
X6687Y9621D02*
X6864Y9444D01*
X6602Y9634D02*
X6842Y9395D01*
X6550Y9615D02*
X6835Y9329D01*
X6373Y9648D02*
X6734Y9287D01*
X6773Y9287D02*
X6835Y9349D01*
X6485Y9287D02*
X6816Y9618D01*
X6482Y9611D02*
X6812Y9281D01*
X6692Y9278D02*
X7024Y9610D01*
X6835Y9273D02*
Y9347D01*
X6605Y9263D02*
X6958Y9616D01*
X6374Y9248D02*
X6737Y9611D01*
X6886Y8868D02*
X7078Y8676D01*
X6503Y8730D02*
X6649Y8876D01*
X6342Y8857D02*
X6370Y8884D01*
X6440Y8811D02*
X6478Y8849D01*
X6476Y8775D02*
X6555Y8854D01*
X6355Y8875D02*
X6388Y8843D01*
X6396Y8839D02*
X6421Y8863D01*
X6144Y10023D02*
X6296Y10175D01*
X6017Y10292D02*
X6259Y10050D01*
X6017Y9968D02*
X6254Y10206D01*
X6327Y10035D02*
Y10135D01*
X6242Y10050D02*
X6327Y10135D01*
X6306Y10042D02*
X6327Y10063D01*
X6017Y10183D02*
X6149Y10315D01*
X6017Y10255D02*
X6111Y10350D01*
X6017Y10112D02*
X6195Y10290D01*
X6017Y10040D02*
X6221Y10245D01*
X6017Y10220D02*
X6193Y10043D01*
X6017Y10148D02*
X6142Y10022D01*
X6017Y10076D02*
X6100Y9992D01*
X6017Y10004D02*
X6067Y9954D01*
X6017Y9932D02*
X6042Y9907D01*
X6269Y9287D02*
X6631Y9649D01*
X6328Y9273D02*
X6679Y9624D01*
X5989Y9744D02*
X6452Y9282D01*
X5958Y9704D02*
X6399Y9262D01*
X6325Y9624D02*
X6676Y9273D01*
X6267Y9611D02*
X6630Y9248D01*
X6187Y9619D02*
X6518Y9287D01*
X6191Y9280D02*
X6521Y9611D01*
X6017Y9896D02*
X6055Y9934D01*
X6017Y9860D02*
X6029Y9848D01*
X6015Y9823D02*
X6028Y9836D01*
X6010Y9795D02*
X6037Y9768D01*
X9523Y8660D02*
X9627Y8764D01*
X9523Y8725D02*
X9627Y8621D01*
X9523Y8589D02*
X9627Y8693D01*
X9523Y8653D02*
X9627Y8549D01*
X9523Y8517D02*
X9627Y8621D01*
X9523Y8582D02*
X9627Y8478D01*
X9523Y8445D02*
X9627Y8549D01*
X9523Y8510D02*
X9627Y8406D01*
X9523Y8373D02*
X9627Y8477D01*
X9523Y8438D02*
X9627Y8334D01*
X9523Y8301D02*
X9627Y8405D01*
X9523Y8366D02*
X9627Y8262D01*
X9523Y8229D02*
X9627Y8333D01*
X9523Y8294D02*
X9627Y8190D01*
X9523Y8158D02*
X9627Y8262D01*
X9523Y8222D02*
X9627Y8118D01*
X9523Y8086D02*
X9627Y8190D01*
X9523Y8151D02*
X9627Y8047D01*
X9523Y8014D02*
X9627Y8118D01*
X9523Y8079D02*
X9627Y7975D01*
X9522Y7942D02*
X9627Y8046D01*
X9523Y8007D02*
X9627Y7903D01*
X9522Y7936D02*
X9627Y7831D01*
X9507Y7879D02*
X9627Y7759D01*
X9479Y7835D02*
X9627Y7687D01*
X9444Y7799D02*
X9627Y7615D01*
X9408Y7763D02*
X9627Y7544D01*
X9523Y7950D02*
Y9550D01*
X9627Y5766D02*
Y11049D01*
X9372Y7727D02*
X9627Y7472D01*
X9336Y7691D02*
X9627Y7400D01*
X9322Y7382D02*
X9627Y7687D01*
X9322Y7343D02*
Y7389D01*
X9294Y7498D02*
X9627Y7831D01*
X9315Y7447D02*
X9627Y7759D01*
X9300Y7655D02*
X9627Y7328D01*
X9227Y7574D02*
X9627Y7974D01*
X9265Y7540D02*
X9627Y7902D01*
X9319Y7308D02*
X9627Y7615D01*
X9320Y7419D02*
X9627Y7113D01*
X9264Y7619D02*
X9627Y7256D01*
X9228Y7583D02*
X9627Y7184D01*
X9322Y7345D02*
X9627Y7041D01*
X9223Y7578D02*
X9471Y7826D01*
X9314Y7282D02*
X9627Y6969D01*
X9293Y7231D02*
X9627Y6897D01*
X9263Y7189D02*
X9627Y6825D01*
X9224Y7156D02*
X9627Y6753D01*
X8208Y5766D02*
X9627Y7184D01*
X8137Y5766D02*
X9627Y7256D01*
X8065Y5766D02*
X9627Y7328D01*
X9178Y7131D02*
X9627Y6682D01*
X9045Y7120D02*
X9627Y6538D01*
X8950Y7143D02*
X9627Y6466D01*
X8899Y7122D02*
X9627Y6394D01*
X7993Y5766D02*
X9627Y7399D01*
X7921Y5766D02*
X9627Y7471D01*
X7414Y6850D02*
X7709Y7145D01*
X7849Y5766D02*
X9627Y7543D01*
X8097Y6229D02*
X9001Y7134D01*
X8095Y6155D02*
X9057Y7117D01*
X8081Y6285D02*
X8929Y7133D01*
X7777Y5766D02*
X9129Y7117D01*
X9120Y7116D02*
X9627Y6610D01*
X8835Y7114D02*
X9627Y6322D01*
X8799Y7078D02*
X9627Y6250D01*
X8763Y7042D02*
X9627Y6179D01*
X8727Y7006D02*
X9627Y6107D01*
X8691Y6970D02*
X9627Y6035D01*
X8655Y6934D02*
X9627Y5963D01*
X8620Y6898D02*
X9627Y5891D01*
X8584Y6862D02*
X9627Y5819D01*
X9286Y5766D02*
X9627Y6106D01*
X9214Y5766D02*
X9627Y6178D01*
X9142Y5766D02*
X9627Y6250D01*
X9071Y5766D02*
X9627Y6322D01*
X8999Y5766D02*
X9627Y6394D01*
X9573Y5766D02*
X9627Y5819D01*
X9502Y5766D02*
X9627Y5891D01*
X9430Y5766D02*
X9627Y5963D01*
X9358Y5766D02*
X9627Y6034D01*
X8639Y5766D02*
X9627Y6753D01*
X8568Y5766D02*
X9627Y6825D01*
X8496Y5766D02*
X9627Y6897D01*
X8424Y5766D02*
X9627Y6968D01*
X8352Y5766D02*
X9627Y7040D01*
X8927Y5766D02*
X9627Y6466D01*
X8855Y5766D02*
X9627Y6537D01*
X8783Y5766D02*
X9627Y6609D01*
X8711Y5766D02*
X9627Y6681D01*
X8548Y6826D02*
X9608Y5766D01*
X8512Y6791D02*
X9537Y5766D01*
X8476Y6755D02*
X9465Y5766D01*
X8440Y6719D02*
X9393Y5766D01*
X8404Y6683D02*
X9321Y5766D01*
X8368Y6647D02*
X9249Y5766D01*
X8332Y6611D02*
X9177Y5766D01*
X8296Y6575D02*
X9106Y5766D01*
X8280D02*
X9627Y7112D01*
X8227Y6505D02*
X8836Y7114D01*
X8260Y6539D02*
X9034Y5766D01*
X8075Y6351D02*
X8839Y7114D01*
X8224Y6503D02*
X8962Y5766D01*
X8183Y6473D02*
X8890Y5766D01*
X8128Y6456D02*
X8818Y5766D01*
X8099Y6198D02*
X8531Y5766D01*
X8096Y6416D02*
X8746Y5766D01*
X8099Y6447D02*
X8106Y6454D01*
X8080Y6361D02*
X8674Y5766D01*
X8090Y6135D02*
X8459Y5766D01*
X8080Y6289D02*
X8603Y5766D01*
X8068Y6084D02*
X8387Y5766D01*
X8038Y6043D02*
X8315Y5766D01*
X7999Y6010D02*
X8243Y5766D01*
X7951Y5986D02*
X8172Y5766D01*
X7892Y5973D02*
X8100Y5766D01*
X7813Y5981D02*
X8028Y5766D01*
X7724Y5998D02*
X7956Y5766D01*
X7562D02*
X7786Y5990D01*
X7497Y6009D02*
X7741Y5766D01*
X7490D02*
X7721Y5996D01*
X7706Y5766D02*
X7916Y5977D01*
X7671Y5979D02*
X7884Y5766D01*
X7634D02*
X7843Y5975D01*
X7605Y5973D02*
X7812Y5766D01*
X6860Y8874D02*
X7075Y8658D01*
X7114Y8433D02*
Y8508D01*
X6741Y8848D02*
X7114Y8475D01*
X6630Y8887D02*
X7117Y8400D01*
X7085Y8378D02*
X7116Y8409D01*
X7008Y8373D02*
X7114Y8479D01*
X6808Y8854D02*
X7081Y8580D01*
X6522Y8606D02*
X6765Y8848D01*
X6583Y8863D02*
X7067Y8380D01*
X6521Y8676D02*
X6700Y8855D01*
X6507Y8375D02*
X6943Y8811D01*
X6799Y8379D02*
X7075Y8656D01*
X6582Y8378D02*
X6979Y8775D01*
X6524Y8634D02*
X6781Y8378D01*
X6506Y8724D02*
X6856Y8374D01*
X6915Y8352D02*
X7098Y8535D01*
X6864Y8372D02*
X7079Y8588D01*
X6701Y8354D02*
X7051Y8703D01*
X6639Y8363D02*
X7015Y8739D01*
X6701Y8354D02*
X7051Y8703D01*
X7435Y7149D02*
X7574Y7010D01*
X6557Y7876D02*
X6632Y7801D01*
X6525Y8849D02*
X7002Y8372D01*
X6515Y8572D02*
X6723Y8364D01*
X6574Y7795D02*
X6606Y7827D01*
X6502Y7795D02*
X6570Y7863D01*
X6448Y8855D02*
X6951Y8351D01*
X6360Y8371D02*
X6865Y8876D01*
X6411Y8351D02*
X6907Y8847D01*
X6462Y8481D02*
X6564Y8379D01*
X6493Y8522D02*
X6664Y8351D01*
X6423Y8448D02*
X6498Y8373D01*
X6375Y8424D02*
X6446Y8353D01*
X6316Y8412D02*
X6355Y8373D01*
X6309Y8392D02*
X6330Y8413D01*
X6289Y8411D02*
X6322Y8378D01*
X6480Y7888D02*
X6573Y7795D01*
X6398Y7899D02*
X6501Y7795D01*
X6359D02*
X6460Y7896D01*
X6287Y7795D02*
X6384Y7893D01*
X6430Y7795D02*
X6515Y7880D01*
X6344Y7881D02*
X6429Y7795D01*
X6275Y7878D02*
X6357Y7795D01*
X6215D02*
X6296Y7876D01*
X6169Y7913D02*
X6286Y7795D01*
X6143D02*
X6234Y7886D01*
X6143Y7795D02*
X6234Y7886D01*
X6071Y7795D02*
X6184Y7908D01*
X6120Y7889D02*
X6214Y7795D01*
X6060Y7877D02*
X6142Y7795D01*
X5999D02*
X6084Y7880D01*
X5979Y7886D02*
X6070Y7795D01*
X7664Y7135D02*
X7682Y7117D01*
X7610Y7118D02*
X7646Y7081D01*
X7539Y7116D02*
X7610Y7046D01*
X7414Y6983D02*
X7547Y7116D01*
X7414Y6912D02*
X7624Y7121D01*
X7447Y5988D02*
X7669Y5766D01*
X7418D02*
X7625Y5973D01*
X7414Y7098D02*
X7538Y6974D01*
X7414Y7026D02*
X7503Y6938D01*
X7411Y7123D02*
X7437Y7149D01*
X7414Y7055D02*
X7488Y7129D01*
X7414Y6850D02*
Y7087D01*
Y6954D02*
X7467Y6902D01*
X7414Y6882D02*
X7431Y6866D01*
X7346Y5766D02*
X7561Y5980D01*
X7311Y5979D02*
X7525Y5766D01*
X7274D02*
X7510Y6001D01*
X7219Y6000D02*
X7453Y5766D01*
X7203D02*
X7415Y5978D01*
X7389Y5974D02*
X7597Y5766D01*
X7168Y5980D02*
X7381Y5766D01*
X7131D02*
X7339Y5974D01*
X7102Y5973D02*
X7309Y5766D01*
X7059D02*
X7282Y5989D01*
X7031Y5973D02*
X7238Y5766D01*
X6987D02*
X7223Y6002D01*
X6959Y5973D02*
X7166Y5766D01*
X6915D02*
X7122Y5973D01*
X6887Y5973D02*
X7094Y5766D01*
X6843D02*
X7050Y5973D01*
X6815D02*
X7022Y5766D01*
X6633Y5973D02*
X7083D01*
X6633Y6011D02*
X6672Y5973D01*
X6772Y5766D02*
X6978Y5973D01*
X6743D02*
X6950Y5766D01*
X6700D02*
X6907Y5973D01*
X6672D02*
X6878Y5766D01*
X6628D02*
X6835Y5973D01*
X6521Y6134D02*
X6582Y6074D01*
X6519Y6125D02*
X6633Y6011D01*
X6484Y6053D02*
X6543Y6112D01*
X6633Y5973D02*
Y6038D01*
X6195Y5820D02*
X6329Y5954D01*
X6497Y6076D02*
X6807Y5766D01*
X6469Y6032D02*
X6735Y5766D01*
X6432Y5997D02*
X6663Y5766D01*
X6341D02*
X6620Y6045D01*
X6269Y5766D02*
X6579Y6076D01*
X6556Y5766D02*
X6763Y5973D01*
X6484Y5766D02*
X6691Y5973D01*
X6412Y5766D02*
X6633Y5986D01*
X6387Y5970D02*
X6591Y5766D01*
X6331Y5954D02*
X6519Y5766D01*
X6294Y5919D02*
X6447Y5766D01*
X6258Y5883D02*
X6376Y5766D01*
X6197D02*
X6418Y5987D01*
X6222Y5847D02*
X6304Y5766D01*
X6186Y5812D02*
X6232Y5766D01*
X6142Y5784D02*
X6160Y5766D01*
X6125D02*
X6143Y5784D01*
X5906Y11049D02*
X6220Y10734D01*
X5789Y10746D02*
X6092Y11049D01*
X5814Y10699D02*
X6164Y11049D01*
X5717Y10818D02*
X5948Y11049D01*
X5757Y10786D02*
X6020Y11049D01*
X5611Y10855D02*
X5805Y11049D01*
X5669Y10842D02*
X5876Y11049D01*
X5533Y10850D02*
X5733Y11049D01*
X5475D02*
X5691Y10833D01*
X5403Y11049D02*
X5596Y10856D01*
X5429Y10817D02*
X5661Y11049D01*
X5331D02*
X5531Y10849D01*
X5357Y10817D02*
X5589Y11049D01*
X5259D02*
X5479Y10830D01*
X5285Y10817D02*
X5517Y11049D01*
X5214Y10817D02*
X5445Y11049D01*
X5187D02*
X5419Y10817D01*
X5922Y10592D02*
X6379Y11049D01*
X5886Y10628D02*
X6307Y11049D01*
X5958Y10556D02*
X6451Y11049D01*
X5834D02*
X6193Y10690D01*
X5850Y10663D02*
X6236Y11049D01*
X5762D02*
X6147Y10664D01*
X5690Y11049D02*
X6110Y10629D01*
X5618Y11049D02*
X6081Y10586D01*
X5547Y11049D02*
X6063Y10533D01*
X5811Y10702D02*
X5958Y10556D01*
X5804Y10720D02*
X6061Y10463D01*
X5173Y10417D02*
X5617Y9973D01*
X5316Y10417D02*
X5350Y10383D01*
X5244Y10417D02*
X5356Y10305D01*
X5142Y10817D02*
X5373Y11049D01*
X5115D02*
X5347Y10817D01*
X5070D02*
X5302Y11049D01*
X4140D02*
X9627D01*
X5044D02*
X5275Y10817D01*
X5153Y10417D02*
X5355D01*
X5153Y10253D02*
X5316Y10417D01*
X5031Y10817D02*
X5457D01*
X5153Y10182D02*
X5350Y10379D01*
X5008Y10827D02*
X5230Y11049D01*
X4950Y10841D02*
X5158Y11049D01*
X4972D02*
X5204Y10817D01*
X4872Y10835D02*
X5086Y11049D01*
X4900D02*
X5132Y10817D01*
X5153Y10397D02*
X5173Y10417D01*
X5153Y10325D02*
X5245Y10417D01*
X5153Y10138D02*
Y10417D01*
X5109Y10138D02*
X5153Y10182D01*
Y10365D02*
X5602Y9916D01*
X5153Y10293D02*
X5553Y9893D01*
X5153Y10222D02*
X5513Y9861D01*
X5153Y10150D02*
X5482Y9821D01*
X4140Y8810D02*
X5480Y10150D01*
X5092Y10138D02*
X5459Y9771D01*
X5020Y10138D02*
X5449Y9710D01*
X4949Y10138D02*
X5463Y9624D01*
X4877Y10138D02*
X5474Y9541D01*
X4887Y9773D02*
X5373Y10259D01*
X4898Y9712D02*
X5401Y10214D01*
X4865Y9822D02*
X5355Y10312D01*
X4885Y9627D02*
X5437Y10178D01*
X4805Y10138D02*
X5438Y9505D01*
X4733Y10138D02*
X5402Y9469D01*
X4621Y10179D02*
X5366Y9433D01*
X4580Y10147D02*
X5330Y9398D01*
X5887Y9631D02*
X6231Y9287D01*
X5874Y9538D02*
X6057Y9721D01*
X5922Y9668D02*
X6311Y9279D01*
X5874Y9466D02*
X6088Y9680D01*
X5856Y9376D02*
X6126Y9647D01*
X5874Y9572D02*
X6172Y9274D01*
X5874Y9501D02*
X6125Y9250D01*
X5872Y9431D02*
X6086Y9216D01*
X5855Y9375D02*
X6056Y9175D01*
X5888Y9634D02*
X5958Y9704D01*
X5617Y9929D02*
Y10126D01*
X5882Y9618D02*
X6036Y9772D01*
X5608Y10125D02*
X5617Y10117D01*
X5605Y9917D02*
X5617Y9929D01*
X5874Y9458D02*
Y9600D01*
X5828Y9331D02*
X6035Y9123D01*
X5793Y9294D02*
X6010Y9077D01*
X5757Y9258D02*
X5974Y9041D01*
X5699Y8860D02*
X6454Y9615D01*
X5622Y8855D02*
X6401Y9634D01*
X5896Y8963D02*
X6030Y9098D01*
X5756Y8845D02*
X6036Y9125D01*
X5721Y9222D02*
X5938Y9005D01*
X5685Y9187D02*
X5902Y8969D01*
X5649Y9151D02*
X5870Y8930D01*
X5613Y9115D02*
X5849Y8879D01*
X5844Y8782D02*
Y8839D01*
Y8433D02*
Y8490D01*
X5803Y8820D02*
X5846Y8863D01*
X5826Y8471D02*
X5844Y8452D01*
X5530Y10131D02*
X5617Y10045D01*
X5474Y9541D02*
Y9600D01*
X5044Y9426D02*
X5617Y9999D01*
X5229Y9396D02*
X5461Y9628D01*
X5450Y8952D02*
X5815Y9317D01*
X5505Y9007D02*
X5652Y8860D01*
X5267Y9362D02*
X5474Y9569D01*
X5279Y9347D02*
X5474Y9541D01*
X5124Y9434D02*
X5459Y9769D01*
X5182Y9421D02*
X5449Y9688D01*
X4889Y9766D02*
X5294Y9362D01*
X4703Y10138D02*
X5153D01*
X4833Y9862D02*
X5109Y10138D01*
X4898Y9686D02*
X5154Y9430D01*
X5531Y8836D02*
X6316Y9620D01*
X5459Y8836D02*
X6234Y9610D01*
X5388Y8836D02*
X6174Y9623D01*
X4140Y8666D02*
X5598Y10125D01*
X4140Y8594D02*
X5617Y10071D01*
X5577Y9079D02*
X5844Y8811D01*
X5541Y9043D02*
X5730Y8854D01*
X5469Y8971D02*
X5594Y8846D01*
X5432Y8936D02*
X5532Y8836D01*
X5387Y8909D02*
X5461Y8836D01*
X5341Y8861D02*
X5390Y8911D01*
X4140Y8738D02*
X5533Y10131D01*
X5366Y8836D02*
X5571D01*
X5330Y8894D02*
X5389Y8836D01*
X5310Y8893D02*
X5366Y8836D01*
X4837Y8799D02*
X5142Y8495D01*
X4828Y11049D02*
X5060Y10817D01*
X4756Y11049D02*
X4966Y10839D01*
X4680Y10715D02*
X5014Y11049D01*
X4684D02*
X4894Y10840D01*
X4655Y10762D02*
X4942Y11049D01*
X4622Y10801D02*
X4871Y11049D01*
X4582Y10832D02*
X4799Y11049D01*
X4613D02*
X4838Y10824D01*
X4534Y10856D02*
X4727Y11049D01*
X4476Y10870D02*
X4655Y11049D01*
X4541D02*
X4793Y10797D01*
X4469Y11049D02*
X4756Y10762D01*
X4397Y11049D02*
X4727Y10719D01*
X4691Y10683D02*
X4708Y10666D01*
X4696Y10659D02*
X4709Y10672D01*
X4403Y10869D02*
X4583Y11049D01*
X4325D02*
X4511Y10864D01*
X4689Y10542D02*
X4703Y10528D01*
X4689Y10437D02*
X4703Y10450D01*
X4668Y10487D02*
X4703Y10522D01*
X4667Y10492D02*
X4703Y10456D01*
X4696Y10319D02*
X4703Y10312D01*
Y10169D02*
X4733Y10138D01*
X4703D02*
Y10588D01*
X4690Y10294D02*
X4703Y10306D01*
X4680Y10263D02*
X4703Y10241D01*
X4654Y10217D02*
X4703Y10169D01*
X4253Y11049D02*
X4431Y10872D01*
X4182Y11049D02*
X4370Y10861D01*
X4140Y10678D02*
X4511Y11049D01*
X4140Y10822D02*
X4368Y11049D01*
X4140Y10750D02*
X4440Y11049D01*
X4140Y10893D02*
X4296Y11049D01*
X4140Y11018D02*
X4319Y10839D01*
X4140Y10947D02*
X4277Y10809D01*
X4140Y10965D02*
X4224Y11049D01*
X4140Y11037D02*
X4152Y11049D01*
X4140Y10875D02*
X4243Y10772D01*
X4140Y10803D02*
X4215Y10728D01*
X4140Y10731D02*
X4197Y10675D01*
X4140Y10659D02*
X4190Y10609D01*
X4140Y10606D02*
X4193Y10659D01*
X4140Y10534D02*
X4192Y10586D01*
X4140Y10587D02*
X4210Y10517D01*
X4140Y10300D02*
X4550Y9891D01*
X4140Y10228D02*
X4511Y9858D01*
X4140Y9672D02*
X4703Y10234D01*
X4140Y10103D02*
X4244Y10207D01*
X4140Y9600D02*
X4703Y10163D01*
X4140Y10031D02*
X4279Y10170D01*
X4140Y10156D02*
X4480Y9817D01*
X4140Y10462D02*
X4206Y10528D01*
X4140Y10516D02*
X4205Y10450D01*
X4140Y10390D02*
X4209Y10459D01*
X4140Y10444D02*
X4192Y10392D01*
X4140Y10372D02*
X4194Y10318D01*
X4140Y10319D02*
X4190Y10368D01*
X4140Y10247D02*
X4197Y10304D01*
X4140Y10175D02*
X4216Y10251D01*
X4885Y9627D02*
X5079Y9434D01*
X4793Y9894D02*
X5037Y10138D01*
X4861Y9579D02*
X5022Y9418D01*
X4744Y9917D02*
X4966Y10138D01*
X4829Y9540D02*
X4976Y9392D01*
X4788Y9509D02*
X4940Y9357D01*
X4738Y9487D02*
X4912Y9313D01*
X4683Y9928D02*
X4894Y10138D01*
X4599Y9915D02*
X4822Y10138D01*
X4474Y10110D02*
X4657Y9927D01*
X4532Y10124D02*
X4737Y9919D01*
X4675Y9478D02*
X4873Y9280D01*
X4869Y8748D02*
X4878Y8758D01*
X4585Y9496D02*
X4831Y9250D01*
X4890Y8698D02*
X4914Y8722D01*
X4899Y8634D02*
X4950Y8686D01*
X4878Y8542D02*
X4986Y8650D01*
X4778Y8941D02*
Y9014D01*
X4752Y8847D02*
X4787Y8882D01*
X4693Y8860D02*
X4778Y8945D01*
X4614Y8853D02*
X4778Y9016D01*
X4799Y8823D02*
X4810Y8833D01*
X4400Y10112D02*
X4598Y9915D01*
X4140Y9744D02*
X4514Y10118D01*
X4140Y9528D02*
X4750Y10138D01*
X4140Y9869D02*
X4798Y9211D01*
X4140Y9797D02*
X4775Y9162D01*
X4140Y9241D02*
X4483Y9584D01*
X4140Y9725D02*
X4764Y9102D01*
X4140Y9169D02*
X4515Y9544D01*
X4140Y9097D02*
X4555Y9512D01*
X4140Y9888D02*
X4372Y10119D01*
X4140Y9959D02*
X4321Y10140D01*
X4140Y9816D02*
X4433Y10108D01*
X4140Y10085D02*
X4458Y9767D01*
X4140Y10013D02*
X4449Y9704D01*
X4140Y9941D02*
X4467Y9614D01*
X4140Y9457D02*
X4461Y9778D01*
X4140Y9385D02*
X4449Y9693D01*
X4140Y9313D02*
X4460Y9632D01*
X4140Y9653D02*
X4778Y9016D01*
X4140Y9582D02*
X4778Y8943D01*
X4140Y9510D02*
X4800Y8850D01*
X4140Y8954D02*
X4665Y9478D01*
X4140Y8882D02*
X4749Y9491D01*
X4140Y9366D02*
X4647Y8859D01*
X4140Y9438D02*
X4723Y8856D01*
X4140Y8523D02*
X4772Y9155D01*
X4140Y8451D02*
X4764Y9075D01*
X4140Y9025D02*
X4604Y9489D01*
X4140Y9294D02*
X4590Y8845D01*
X4140Y9222D02*
X4543Y8819D01*
X4140Y9151D02*
X4505Y8785D01*
X4140Y9079D02*
X4476Y8743D01*
X4140Y9007D02*
X4456Y8692D01*
X4140Y8935D02*
X4449Y8626D01*
X4140Y8863D02*
X4477Y8526D01*
X5785Y8440D02*
X5854Y8371D01*
X5944Y7795D02*
X6638D01*
X5927Y7795D02*
X6011Y7879D01*
X5704Y8362D02*
X5779Y8437D01*
X5576Y8433D02*
X5667Y8343D01*
X5501Y8436D02*
X5627Y8310D01*
X5430Y8436D02*
X5596Y8270D01*
X5358Y8436D02*
X5573Y8220D01*
X5793Y8380D02*
X5844Y8431D01*
X5734Y8419D02*
X5774Y8379D01*
X5670Y8411D02*
X5715Y8366D01*
X5562Y8105D02*
Y8151D01*
X5893Y7900D02*
X5998Y7795D01*
X5840Y7882D02*
X5927Y7795D01*
X5678Y7618D02*
X5955Y7895D01*
X5661Y7917D02*
X5827Y7751D01*
X5606Y7618D02*
X5885Y7896D01*
X5773Y7877D02*
X5871Y7779D01*
X5693Y7618D02*
X5820Y7744D01*
X5381Y7680D02*
X5637Y7936D01*
X5381Y7694D02*
X5562Y7513D01*
X5375Y7746D02*
X5604Y7974D01*
X5363Y7784D02*
X5562Y7585D01*
Y7618D02*
X5693D01*
X5562Y7574D02*
X5606Y7618D01*
X5372Y7632D02*
X5562Y7441D01*
Y7114D02*
Y7618D01*
X5283Y8436D02*
X5571D01*
X5286D02*
X5563Y8159D01*
X5192Y8458D02*
X5563Y8087D01*
X4893Y8685D02*
X5603Y7975D01*
X5005Y7879D02*
X5562Y8436D01*
X5244Y7903D02*
X5580Y8238D01*
X5290Y7876D02*
X5562Y8149D01*
X5188Y7918D02*
X5681Y8411D01*
X5115Y7917D02*
X5617Y8418D01*
X4965Y7910D02*
X5490Y8436D01*
X4852Y7942D02*
X5347Y8436D01*
X4915Y7932D02*
X5419Y8436D01*
X4761Y7922D02*
X5275Y8436D01*
X5327Y7842D02*
X5564Y8078D01*
X4664Y8411D02*
X5155Y7921D01*
X4729Y8418D02*
X5245Y7903D01*
X4897Y8609D02*
X5791Y7715D01*
X4882Y8552D02*
X5755Y7679D01*
X4857Y8506D02*
X5719Y7644D01*
X4823Y8468D02*
X5673Y7618D01*
X4781Y8438D02*
X5601Y7618D01*
X5356Y7799D02*
X5578Y8021D01*
X5343Y7570D02*
X5679Y7906D01*
X5127Y7211D02*
X5793Y7876D01*
X5055Y7211D02*
X5730Y7885D01*
X4514Y7819D02*
X5168Y8473D01*
X4573Y7806D02*
X5215Y8448D01*
X5350Y7581D02*
X5562Y7369D01*
X5319Y7541D02*
X5562Y7297D01*
X5199Y7211D02*
X5562Y7574D01*
X5598Y6759D02*
X5624Y6733D01*
X5562Y7114D02*
X5650D01*
X5483Y6759D02*
X5634D01*
X5548Y6626D02*
X5616Y6694D01*
X5536Y6677D02*
X5616Y6597D01*
X5526Y6759D02*
X5616Y6669D01*
X5541Y6547D02*
X5616Y6622D01*
X5562Y7154D02*
X5602Y7114D01*
X5529Y7110D02*
X5562Y7143D01*
X5534Y6683D02*
X5609Y6759D01*
X5457Y7110D02*
X5562Y7215D01*
X5457Y7110D02*
X5562Y7215D01*
X5508Y6730D02*
X5537Y6759D01*
X5549Y6593D02*
X5616Y6526D01*
X5537Y6533D02*
X5616Y6454D01*
X5542Y6404D02*
X5616Y6478D01*
Y6305D02*
Y6680D01*
X5521Y6455D02*
X5616Y6550D01*
X5513Y6485D02*
X5616Y6382D01*
X5581Y6300D02*
X5616Y6334D01*
X5563Y5768D02*
X6071D01*
X5549Y6339D02*
X5616Y6406D01*
X5547Y6379D02*
X5616Y6310D01*
X5548Y6333D02*
X5600Y6281D01*
X5499Y5780D02*
X5513Y5766D01*
X5478D02*
X5495Y5782D01*
X5280Y7508D02*
X5562Y7225D01*
X5343Y7211D02*
X5562Y7430D01*
X5271Y7211D02*
X5562Y7502D01*
X5232Y7484D02*
X5562Y7154D01*
X5173Y7471D02*
X5535Y7110D01*
X5381Y7177D02*
X5562Y7359D01*
X5385Y7110D02*
X5562Y7287D01*
X5381Y7191D02*
X5463Y7110D01*
X5385D02*
X5647D01*
X5093Y7480D02*
X5362Y7211D01*
X5026Y7475D02*
X5290Y7211D01*
X5010Y7418D02*
X5218Y7211D01*
X4983D02*
X5282Y7509D01*
X4879Y7178D02*
X5172Y7471D01*
X5381Y7110D02*
Y7211D01*
Y7119D02*
X5391Y7110D01*
X4931Y7211D02*
X5381D01*
X5362D02*
X5381Y7191D01*
X5083Y6175D02*
X5439Y5820D01*
X5191Y5766D02*
X5342Y5916D01*
X5011Y6196D02*
X5442Y5766D01*
X4958Y6177D02*
X5370Y5766D01*
X5407D02*
X5450Y5809D01*
X5335Y5766D02*
X5414Y5845D01*
X5263Y5766D02*
X5378Y5881D01*
X4140Y5766D02*
X9627D01*
X4911Y6153D02*
X5298Y5766D01*
X4855Y6137D02*
X5226Y5766D01*
X4832D02*
X5162Y6096D01*
X4780Y6140D02*
X5154Y5766D01*
X5119D02*
X5306Y5952D01*
X5047Y5766D02*
X5270Y5988D01*
X4976Y5766D02*
X5234Y6024D01*
X4904Y5766D02*
X5198Y6060D01*
X4564Y8440D02*
X5092Y7911D01*
X4140Y8791D02*
X5042Y7890D01*
X4435Y7811D02*
X5130Y8506D01*
X4140Y7732D02*
X5022Y8614D01*
X4140Y7660D02*
X5058Y8578D01*
X5027Y7493D02*
Y7512D01*
X5025Y7468D02*
X5053Y7496D01*
X4140Y8379D02*
X4457Y8695D01*
X4140Y8720D02*
X4934Y7925D01*
X4140Y8307D02*
X4449Y8616D01*
X4140Y8648D02*
X4846Y7942D01*
X4621Y7782D02*
X4651Y7812D01*
X4981Y7375D02*
X5146Y7211D01*
X4823Y7217D02*
X4975Y7369D01*
X4804Y7174D02*
X5106Y7476D01*
X4946Y7339D02*
X5074Y7211D01*
X4936Y7163D02*
X4983Y7211D01*
X4910Y7303D02*
X5003Y7211D01*
X4874Y7267D02*
X4931Y7210D01*
X4271Y6862D02*
Y7312D01*
X4140Y5766D02*
Y11049D01*
X4838Y7232D02*
X4894Y7175D01*
X4931Y7165D02*
Y7211D01*
X4140Y8576D02*
X4785Y7931D01*
X4140Y8020D02*
X4561Y8441D01*
X4140Y8504D02*
X4736Y7909D01*
X4140Y8432D02*
X4696Y7877D01*
X4140Y7804D02*
X4768Y8432D01*
X4140Y7948D02*
X4612Y8420D01*
X4140Y7876D02*
X4675Y8411D01*
X4140Y8360D02*
X4664Y7837D01*
X4140Y8288D02*
X4641Y7787D01*
X4140Y8163D02*
X4487Y8510D01*
X4140Y8235D02*
X4463Y8558D01*
X4140Y8092D02*
X4520Y8471D01*
X4140Y8145D02*
X4467Y7818D01*
X4140Y8217D02*
X4542Y7815D01*
X4140Y8073D02*
X4410Y7803D01*
X4140Y8001D02*
X4364Y7777D01*
X4140Y7929D02*
X4327Y7743D01*
X4140Y7857D02*
X4297Y7700D01*
X4140Y7589D02*
X5094Y8542D01*
X4140Y7786D02*
X4277Y7648D01*
X4140Y7714D02*
X4271Y7583D01*
X4140Y7517D02*
X4279Y7656D01*
X4140Y7642D02*
X4302Y7480D01*
X4140Y7445D02*
X4272Y7576D01*
X4140Y7570D02*
X4287Y7424D01*
X4140Y7373D02*
X4284Y7517D01*
X4140Y7301D02*
X4309Y7470D01*
X4140Y7498D02*
X4272Y7366D01*
X4140Y7426D02*
X4271Y7296D01*
X4140Y7229D02*
X4272Y7361D01*
X4140Y7355D02*
X4271Y7224D01*
X4140Y7283D02*
X4271Y7152D01*
X4140Y7158D02*
X4271Y7288D01*
X4140Y7086D02*
X4271Y7216D01*
X4140Y7211D02*
X4271Y7080D01*
X4800Y7197D02*
X4820Y7177D01*
X4752Y7173D02*
X4764Y7162D01*
X4721Y7137D02*
Y7167D01*
X4633Y6862D02*
X4710Y6785D01*
X4561Y6862D02*
X4670Y6752D01*
X4140Y7014D02*
X4271Y7144D01*
X4140Y7139D02*
X4271Y7008D01*
X4140Y6942D02*
X4271Y7073D01*
X4140Y7067D02*
X4271Y6937D01*
X4140Y6870D02*
X4271Y7001D01*
X4489Y6862D02*
X4640Y6711D01*
X4418Y6862D02*
X4608Y6672D01*
X4271Y6937D02*
X4346Y6862D01*
X4271D02*
X4654D01*
X4760Y5766D02*
X5126Y6132D01*
X4688Y5766D02*
X5090Y6168D01*
X4616Y5766D02*
X5058Y6207D01*
X4544Y5766D02*
X4956Y6177D01*
X4346Y6862D02*
X4563Y6644D01*
X4274Y6862D02*
X4528Y6607D01*
X4185Y5766D02*
X4648Y6229D01*
X4473Y5766D02*
X4842Y6136D01*
X4401Y5766D02*
X4776Y6141D01*
X4329Y5766D02*
X4724Y6161D01*
X4257Y5766D02*
X4682Y6191D01*
X4140Y6439D02*
X4563Y6862D01*
X4140Y6923D02*
X4502Y6562D01*
X4140Y6367D02*
X4634Y6862D01*
X4140Y6511D02*
X4491Y6862D01*
X4140Y6295D02*
X4674Y6829D01*
X4140Y6780D02*
X4489Y6431D01*
X4140Y6224D02*
X4709Y6792D01*
X4140Y6008D02*
X4509Y6377D01*
X4140Y5936D02*
X4538Y6334D01*
X4140Y6995D02*
X4271Y6865D01*
X4140Y6798D02*
X4271Y6929D01*
X4140Y6655D02*
X4347Y6862D01*
X4140Y6583D02*
X4419Y6862D01*
X4140Y6727D02*
X4275Y6862D01*
X4140Y6852D02*
X4486Y6506D01*
X4140Y6152D02*
X4485Y6496D01*
X4140Y6080D02*
X4489Y6429D01*
X4140Y6708D02*
X5082Y5766D01*
X4140Y6636D02*
X5011Y5766D01*
X4140Y6564D02*
X4939Y5766D01*
X4140Y6492D02*
X4867Y5766D01*
X4140Y6421D02*
X4795Y5766D01*
X4140Y6349D02*
X4723Y5766D01*
X4140Y6277D02*
X4651Y5766D01*
X4140Y5793D02*
X4623Y6276D01*
X4140Y5793D02*
X4623Y6276D01*
X4140Y5864D02*
X4576Y6300D01*
X4140Y6205D02*
X4579Y5766D01*
X4140Y6133D02*
X4508Y5766D01*
X4140Y6061D02*
X4436Y5766D01*
X4140Y5990D02*
X4364Y5766D01*
X4140Y5918D02*
X4292Y5766D01*
X4140Y5846D02*
X4220Y5766D01*
X4140Y5774D02*
X4148Y5766D01*
X5283Y8636D02*
X5674D01*
X4978Y8941D02*
Y9093D01*
Y8941D02*
X5283Y8636D01*
X5232Y9093D02*
X5309D01*
X4928Y10617D02*
X5588D01*
X5309Y9093D02*
X5674Y9458D01*
Y9703D01*
X5817Y9846D01*
Y10414D01*
X5613Y10617D02*
X5817Y10414D01*
X5588Y10617D02*
X5613D01*
D11*
X8585Y10198D02*
Y10363D01*
X8420D02*
X8585D01*
X6401Y10617D02*
Y10782D01*
X7874Y6198D02*
X8049D01*
X7874Y6023D02*
Y6198D01*
X7569Y7164D02*
Y7366D01*
X6299Y8636D02*
Y8811D01*
Y8636D02*
X6474D01*
X6299Y8461D02*
Y8636D01*
X5399Y10363D02*
X5588D01*
Y10174D02*
Y10363D01*
X4928D02*
X5103D01*
X4753D02*
X4928D01*
Y10188D02*
Y10363D01*
X4445D02*
X4650D01*
X4445Y10158D02*
Y10363D01*
X4240D02*
X4445D01*
X5105Y9220D02*
Y9385D01*
X4674Y9703D02*
Y9878D01*
Y9703D02*
X4849D01*
X4674Y9528D02*
Y9703D01*
X4499D02*
X4674D01*
Y8636D02*
X4849D01*
X4674D02*
Y8811D01*
X4499Y8636D02*
X4674D01*
Y8461D02*
Y8636D01*
X5156Y7696D02*
X5331D01*
X5334Y6604D02*
X5499D01*
X5156Y7696D02*
Y7871D01*
Y7521D02*
Y7696D01*
X4496Y7595D02*
Y7770D01*
X4321Y7595D02*
X4496D01*
D12*
X7925Y6706D02*
X8585Y7366D01*
X7671Y6706D02*
X7925D01*
X5385Y6934D02*
X5791D01*
X4826Y6350D02*
X4928D01*
X5075Y6497D01*
Y6624D01*
X5385Y6934D01*
X4877Y6986D02*
X5156D01*
X5004Y6579D02*
Y6986D01*
X4699Y6477D02*
X4902D01*
X5004Y6579D01*
X5207Y6299D02*
X5563Y5944D01*
X6071D02*
X6299Y6172D01*
X5207Y6299D02*
Y6477D01*
X5334Y6299D02*
X5613Y6020D01*
X5334Y6299D02*
Y6350D01*
X7112Y6452D02*
Y6604D01*
X6807Y7366D02*
X6833Y7341D01*
Y6883D02*
Y7341D01*
Y6883D02*
X7112Y6604D01*
X8941Y8652D02*
Y9195D01*
X8925Y8636D02*
X8941Y8652D01*
X5563Y5944D02*
X6071D01*
X5944Y6020D02*
X6045Y6121D01*
X5613Y6020D02*
X5944D01*
X6706Y6198D02*
X6858D01*
X6045Y7366D02*
X6172Y7239D01*
X6045Y7264D02*
Y7366D01*
X6172Y6731D02*
Y7239D01*
Y6731D02*
X6706Y6198D01*
X6375Y6934D02*
X6858Y6452D01*
X6299Y6934D02*
X6375D01*
X6553Y6985D02*
Y7366D01*
X6985Y6325D02*
X7112Y6198D01*
X6553Y6985D02*
X6579Y6934D01*
X6985Y6528D01*
Y6325D02*
Y6528D01*
X7239Y6325D02*
X7366Y6198D01*
Y6248D01*
X7061Y7264D02*
Y7366D01*
Y7264D02*
X7239Y7087D01*
Y6325D02*
Y7087D01*
X8128Y7163D02*
X8331Y7366D01*
X7366Y6452D02*
Y6553D01*
X7976Y7163D02*
X8128D01*
X7366Y6553D02*
X7976Y7163D01*
X8103Y6629D02*
X8839Y7366D01*
X7620Y6452D02*
X7798Y6629D01*
X8103D01*
X7493Y6528D02*
X7671Y6706D01*
X7493Y6375D02*
Y6528D01*
Y6375D02*
X7620Y6248D01*
X5791Y6680D02*
X6045Y6934D01*
X5791Y6172D02*
Y6680D01*
X5588Y10617D02*
X5639D01*
X8560Y10643D02*
X8585Y10617D01*
X8026Y10643D02*
X8560D01*
X8280Y9830D02*
Y10109D01*
X8026Y10363D02*
X8280Y10109D01*
X8026Y9830D02*
Y10109D01*
X7772Y10617D02*
X7899Y10490D01*
Y10236D02*
Y10490D01*
Y10236D02*
X8026Y10109D01*
X7772Y9830D02*
Y10363D01*
X7518Y10617D02*
X7645Y10490D01*
X7518Y9830D02*
Y10008D01*
X7645Y10135D02*
Y10490D01*
X7518Y10008D02*
X7645Y10135D01*
X7518Y10236D02*
Y10363D01*
X7264Y9830D02*
Y9982D01*
X7518Y10236D01*
X7264Y10617D02*
X7391Y10490D01*
X7010Y9830D02*
Y9957D01*
X7391Y10287D02*
Y10490D01*
X7290Y10185D02*
X7391Y10287D01*
X7239Y10185D02*
X7290D01*
X7010Y9957D02*
X7239Y10185D01*
X7010Y10109D02*
X7264Y10363D01*
X6756Y9830D02*
Y9931D01*
X6934Y10109D02*
X7010D01*
X6756Y9931D02*
X6934Y10109D01*
X6807Y10617D02*
X7010D01*
X6502Y9830D02*
Y10135D01*
X6706Y10516D02*
X6807Y10617D01*
X6706Y10338D02*
Y10516D01*
X6502Y10135D02*
X6706Y10338D01*
X7010Y8992D02*
Y9347D01*
X9068Y9576D02*
X9195Y9449D01*
X7239Y9576D02*
X9068D01*
X7010Y9347D02*
X7239Y9576D01*
X7747Y9449D02*
X8941D01*
X7518Y9068D02*
Y9220D01*
Y9068D02*
X7747Y8839D01*
X7518Y9220D02*
X7747Y9449D01*
X9347Y7950D02*
Y9550D01*
X9195Y9703D02*
X9347Y9550D01*
X8026Y8865D02*
X8103D01*
X8839Y8128D01*
X7772Y9068D02*
X7823D01*
X8026Y8865D01*
X8585Y8128D02*
Y8204D01*
X7925Y8839D02*
X8585Y8179D01*
X7747Y8839D02*
X7925D01*
X8057Y8402D02*
X8331Y8128D01*
X7264Y8992D02*
Y9068D01*
X7854Y8402D02*
X8057D01*
X7264Y8992D02*
X7854Y8402D01*
X7341Y8788D02*
X7798Y8331D01*
X7899D02*
X8077Y8153D01*
X7798Y8331D02*
X7899D01*
X7214Y8788D02*
X7341D01*
X7010Y8992D02*
X7214Y8788D01*
X7569Y8128D02*
Y8153D01*
X7290Y8433D02*
Y8627D01*
Y8433D02*
X7569Y8153D01*
X9246Y7976D02*
Y8230D01*
X8534Y8839D02*
Y9068D01*
Y8839D02*
X8915Y8458D01*
X9017D01*
X9246Y8230D01*
X8890Y8331D02*
X9093Y8128D01*
X8026Y9068D02*
X8763Y8331D01*
X8890D01*
X7315Y8128D02*
Y8179D01*
X6299Y8509D02*
Y8636D01*
Y8509D02*
X6477Y8331D01*
X7163D01*
X7315Y8179D01*
X6299Y8128D02*
Y8153D01*
X6020Y8839D02*
X6248Y9068D01*
X6020Y8433D02*
Y8839D01*
Y8433D02*
X6299Y8153D01*
X9195Y7925D02*
X9246Y7976D01*
X6756Y7925D02*
X9195D01*
X6604Y8077D02*
X6756Y7925D01*
X6299Y7010D02*
Y7366D01*
X5791Y7010D02*
X6045Y7264D01*
Y6121D02*
Y6172D01*
X6299D02*
X6350D01*
X4699Y7341D02*
X4851Y7493D01*
X4496Y7341D02*
X4699D01*
X4851Y7493D02*
Y7722D01*
Y6960D02*
X4877Y6986D01*
X5791Y7468D02*
X5944Y7620D01*
X9017D01*
X9347Y7950D01*
X5791Y7366D02*
Y7468D01*
D13*
X7620Y6198D02*
Y6248D01*
D14*
X4445Y10363D02*
D03*
Y10617D02*
D03*
D15*
X5674Y9703D02*
D03*
X4674D02*
D03*
X5674Y8636D02*
D03*
X4674D02*
D03*
X6976Y6960D02*
D03*
X7976D02*
D03*
X7299Y8636D02*
D03*
X6299D02*
D03*
X8925D02*
D03*
X7925D02*
D03*
X8026Y10363D02*
D03*
X7772Y10617D02*
D03*
Y10363D02*
D03*
X7518Y10617D02*
D03*
Y10363D02*
D03*
X7264Y10617D02*
D03*
Y10363D02*
D03*
X7010Y10617D02*
D03*
Y10363D02*
D03*
X4928Y10617D02*
D03*
X8941Y9703D02*
D03*
X9195D02*
D03*
X8941Y9449D02*
D03*
X9195D02*
D03*
X8941Y9195D02*
D03*
X7874Y6452D02*
D03*
Y6198D02*
D03*
X7620Y6452D02*
D03*
Y6198D02*
D03*
X7366Y6452D02*
D03*
Y6198D02*
D03*
X7112Y6452D02*
D03*
Y6198D02*
D03*
X6858Y6452D02*
D03*
X4496Y7341D02*
D03*
Y7595D02*
D03*
X5156Y7696D02*
D03*
D16*
X8585Y10363D02*
D03*
Y10617D02*
D03*
X8712Y10490D02*
D03*
X6274D02*
D03*
X6401Y10363D02*
D03*
Y10617D02*
D03*
X5207Y6477D02*
D03*
X5334Y6350D02*
D03*
Y6604D02*
D03*
X4826D02*
D03*
Y6350D02*
D03*
X4699Y6477D02*
D03*
X5105Y9220D02*
D03*
X4978Y9093D02*
D03*
X5232D02*
D03*
D17*
X8026Y10617D02*
D03*
X4928Y10363D02*
D03*
X9195Y9195D02*
D03*
X6858Y6198D02*
D03*
X4496Y7087D02*
D03*
X5156Y6986D02*
D03*
D18*
X8280Y9830D02*
D03*
Y9068D02*
D03*
X8534Y9830D02*
D03*
Y9068D02*
D03*
X8026Y9830D02*
D03*
Y9068D02*
D03*
X7772Y9830D02*
D03*
Y9068D02*
D03*
X7518Y9830D02*
D03*
Y9068D02*
D03*
X7264Y9830D02*
D03*
Y9068D02*
D03*
X7010Y9830D02*
D03*
Y9068D02*
D03*
X6756Y9830D02*
D03*
Y9068D02*
D03*
X6502Y9830D02*
D03*
Y9068D02*
D03*
X6248Y9830D02*
D03*
Y9068D02*
D03*
X6045Y6934D02*
D03*
Y6172D02*
D03*
X5791Y6934D02*
D03*
Y6172D02*
D03*
X6299Y6934D02*
D03*
Y6172D02*
D03*
X4851Y7722D02*
D03*
Y6960D02*
D03*
D19*
X8585Y8128D02*
D03*
X6045Y7366D02*
D03*
X6299D02*
D03*
X6553D02*
D03*
X6807D02*
D03*
X7061D02*
D03*
X7315D02*
D03*
X7569D02*
D03*
X7823D02*
D03*
X8077D02*
D03*
X8331D02*
D03*
X8585D02*
D03*
X8839D02*
D03*
X9093D02*
D03*
X5791Y8128D02*
D03*
X6045D02*
D03*
X6299D02*
D03*
X6553D02*
D03*
X6807D02*
D03*
X7061D02*
D03*
X7315D02*
D03*
X7569D02*
D03*
X7823D02*
D03*
X8077D02*
D03*
X8331D02*
D03*
X8839D02*
D03*
X9093D02*
D03*
D20*
X5791Y7366D02*
D03*
D21*
X5588Y10617D02*
D03*
Y10363D02*
D03*
M02*
