%FSLAX42Y42*%
%MOMM*%
G71*
G01*
G75*
%ADD10C,0.25*%
%ADD11C,0.51*%
%ADD12C,0.41*%
%ADD13C,1.40*%
%ADD14C,1.50*%
%ADD15R,1.50X1.50*%
%ADD16C,1.78*%
%ADD17O,1.00X2.00*%
%ADD18O,1.00X2.00*%
%ADD19C,1.20*%
%ADD20O,1.57X2.03*%
%ADD21R,1.57X2.03*%
%ADD22O,2.00X1.00*%
%ADD23O,2.00X1.00*%
%ADD24C,0.20*%
%ADD25C,0.20*%
%ADD26C,0.15*%
%ADD27R,1.90X0.80*%
D10*
X5334Y10160D02*
G03*
X5334Y10160I-381J0D01*
G01*
X5664Y7683D02*
G03*
X5664Y7811I0J63D01*
G01*
Y7557D02*
X9220D01*
Y7938D01*
X5664D02*
X9220D01*
X5664Y7811D02*
Y7938D01*
Y7557D02*
Y7683D01*
X4641Y6764D02*
Y6612D01*
X4564D01*
X4539Y6637D01*
Y6688D01*
X4564Y6713D01*
X4641D01*
X4590D02*
X4539Y6764D01*
X4488Y6637D02*
X4463Y6612D01*
X4412D01*
X4387Y6637D01*
Y6662D01*
X4412Y6688D01*
X4437D01*
X4412D01*
X4387Y6713D01*
Y6739D01*
X4412Y6764D01*
X4463D01*
X4488Y6739D01*
X4956Y6637D02*
Y6789D01*
X4879D01*
X4854Y6764D01*
Y6662D01*
X4879Y6637D01*
X4956D01*
X4803Y6789D02*
X4752D01*
X4778D01*
Y6637D01*
X4803Y6662D01*
X5131Y9982D02*
X5029D01*
X5080Y9931D02*
Y10033D01*
X4331Y9515D02*
X4305Y9489D01*
Y9439D01*
X4331Y9413D01*
X4432D01*
X4458Y9439D01*
Y9489D01*
X4432Y9515D01*
X4305Y9667D02*
X4331Y9616D01*
X4382Y9566D01*
X4432D01*
X4458Y9591D01*
Y9642D01*
X4432Y9667D01*
X4407D01*
X4382Y9642D01*
Y9566D01*
X4039Y7290D02*
X3988D01*
X4013D01*
Y7163D01*
X3988Y7137D01*
X3962D01*
X3937Y7163D01*
X4089Y7137D02*
Y7290D01*
X4166D01*
X4191Y7264D01*
Y7214D01*
X4166Y7188D01*
X4089D01*
X4343Y7290D02*
X4242D01*
Y7214D01*
X4292Y7239D01*
X4318D01*
X4343Y7214D01*
Y7163D01*
X4318Y7137D01*
X4267D01*
X4242Y7163D01*
X5687Y9522D02*
X5712Y9548D01*
Y9599D01*
X5687Y9624D01*
X5585D01*
X5560Y9599D01*
Y9548D01*
X5585Y9522D01*
X5560Y9472D02*
Y9421D01*
Y9446D01*
X5712D01*
X5687Y9472D01*
Y8405D02*
X5712Y8430D01*
Y8481D01*
X5687Y8506D01*
X5585D01*
X5560Y8481D01*
Y8430D01*
X5585Y8405D01*
X5560Y8253D02*
Y8354D01*
X5662Y8253D01*
X5687D01*
X5712Y8278D01*
Y8329D01*
X5687Y8354D01*
X6505Y6835D02*
X6480Y6810D01*
Y6759D01*
X6505Y6734D01*
X6607D01*
X6632Y6759D01*
Y6810D01*
X6607Y6835D01*
X6505Y6886D02*
X6480Y6911D01*
Y6962D01*
X6505Y6987D01*
X6530D01*
X6556Y6962D01*
Y6937D01*
Y6962D01*
X6581Y6987D01*
X6607D01*
X6632Y6962D01*
Y6911D01*
X6607Y6886D01*
X5918Y8484D02*
X5944Y8509D01*
Y8560D01*
X5918Y8585D01*
X5817D01*
X5791Y8560D01*
Y8509D01*
X5817Y8484D01*
X5791Y8357D02*
X5944D01*
X5867Y8433D01*
Y8331D01*
X8684Y8557D02*
X8710Y8583D01*
Y8633D01*
X8684Y8659D01*
X8583D01*
X8557Y8633D01*
Y8583D01*
X8583Y8557D01*
X8710Y8405D02*
Y8507D01*
X8633D01*
X8659Y8456D01*
Y8430D01*
X8633Y8405D01*
X8583D01*
X8557Y8430D01*
Y8481D01*
X8583Y8507D01*
X7264Y10922D02*
Y10871D01*
Y10897D01*
X7391D01*
X7417Y10871D01*
Y10846D01*
X7391Y10820D01*
X7417Y10973D02*
X7264D01*
Y11049D01*
X7290Y11074D01*
X7341D01*
X7366Y11049D01*
Y10973D01*
X7417Y11125D02*
Y11176D01*
Y11150D01*
X7264D01*
X7290Y11125D01*
X5131Y10820D02*
X5080D01*
X5105D01*
Y10693D01*
X5080Y10668D01*
X5055D01*
X5029Y10693D01*
X5182Y10668D02*
Y10820D01*
X5258D01*
X5283Y10795D01*
Y10744D01*
X5258Y10719D01*
X5182D01*
X5435Y10668D02*
X5334D01*
X5435Y10770D01*
Y10795D01*
X5410Y10820D01*
X5359D01*
X5334Y10795D01*
X8415Y6309D02*
Y6360D01*
Y6335D01*
X8288D01*
X8263Y6360D01*
Y6386D01*
X8288Y6411D01*
X8263Y6259D02*
X8415D01*
Y6182D01*
X8390Y6157D01*
X8339D01*
X8313Y6182D01*
Y6259D01*
X8390Y6106D02*
X8415Y6081D01*
Y6030D01*
X8390Y6005D01*
X8364D01*
X8339Y6030D01*
Y6055D01*
Y6030D01*
X8313Y6005D01*
X8288D01*
X8263Y6030D01*
Y6081D01*
X8288Y6106D01*
X8778Y10086D02*
X8727D01*
X8753D01*
Y9959D01*
X8727Y9934D01*
X8702D01*
X8677Y9959D01*
X8829Y9934D02*
Y10086D01*
X8905D01*
X8931Y10061D01*
Y10010D01*
X8905Y9985D01*
X8829D01*
X9058Y9934D02*
Y10086D01*
X8981Y10010D01*
X9083D01*
X5141Y6873D02*
Y6975D01*
X5116Y7000D01*
X5065D01*
X5039Y6975D01*
Y6873D01*
X5065Y6848D01*
X5116D01*
X5090Y6899D02*
X5141Y6848D01*
X5116D02*
X5141Y6873D01*
X5192Y6848D02*
X5242D01*
X5217D01*
Y7000D01*
X5192Y6975D01*
X4216Y6375D02*
Y6477D01*
X4191Y6502D01*
X4140D01*
X4115Y6477D01*
Y6375D01*
X4140Y6350D01*
X4191D01*
X4166Y6401D02*
X4216Y6350D01*
X4191D02*
X4216Y6375D01*
X4369Y6350D02*
X4267D01*
X4369Y6452D01*
Y6477D01*
X4343Y6502D01*
X4293D01*
X4267Y6477D01*
X8687Y10947D02*
Y10846D01*
X8712Y10820D01*
X8763D01*
X8788Y10846D01*
Y10947D01*
X8763Y10973D01*
X8712D01*
X8738Y10922D02*
X8687Y10973D01*
X8712D02*
X8687Y10947D01*
X8636Y10846D02*
X8611Y10820D01*
X8560D01*
X8534Y10846D01*
Y10871D01*
X8560Y10897D01*
X8585D01*
X8560D01*
X8534Y10922D01*
Y10947D01*
X8560Y10973D01*
X8611D01*
X8636Y10947D01*
X6106Y10836D02*
Y10937D01*
X6081Y10963D01*
X6030D01*
X6005Y10937D01*
Y10836D01*
X6030Y10810D01*
X6081D01*
X6055Y10861D02*
X6106Y10810D01*
X6081D02*
X6106Y10836D01*
X6233Y10810D02*
Y10963D01*
X6157Y10886D01*
X6258D01*
X6419Y6002D02*
Y5850D01*
X6342D01*
X6317Y5875D01*
Y5926D01*
X6342Y5951D01*
X6419D01*
X6368D02*
X6317Y6002D01*
X6266D02*
X6215D01*
X6241D01*
Y5850D01*
X6266Y5875D01*
X5977Y7104D02*
Y7257D01*
X6053D01*
X6078Y7231D01*
Y7181D01*
X6053Y7155D01*
X5977D01*
X6027D02*
X6078Y7104D01*
X6231D02*
X6129D01*
X6231Y7206D01*
Y7231D01*
X6205Y7257D01*
X6154D01*
X6129Y7231D01*
X5723Y7104D02*
Y7257D01*
X5799D01*
X5824Y7231D01*
Y7181D01*
X5799Y7155D01*
X5723D01*
X5773D02*
X5824Y7104D01*
X5951D02*
Y7257D01*
X5875Y7181D01*
X5977D01*
X8263Y9848D02*
Y10000D01*
X8339D01*
X8364Y9975D01*
Y9924D01*
X8339Y9898D01*
X8263D01*
X8313D02*
X8364Y9848D01*
X8517Y10000D02*
X8415D01*
Y9924D01*
X8466Y9949D01*
X8491D01*
X8517Y9924D01*
Y9873D01*
X8491Y9848D01*
X8440D01*
X8415Y9873D01*
X8059Y9848D02*
Y10000D01*
X8136D01*
X8161Y9975D01*
Y9924D01*
X8136Y9898D01*
X8059D01*
X8110D02*
X8161Y9848D01*
X8313Y10000D02*
X8263Y9975D01*
X8212Y9924D01*
Y9873D01*
X8237Y9848D01*
X8288D01*
X8313Y9873D01*
Y9898D01*
X8288Y9924D01*
X8212D01*
X7856Y9848D02*
Y10000D01*
X7932D01*
X7958Y9975D01*
Y9924D01*
X7932Y9898D01*
X7856D01*
X7907D02*
X7958Y9848D01*
X8009Y10000D02*
X8110D01*
Y9975D01*
X8009Y9873D01*
Y9848D01*
X7653D02*
Y10000D01*
X7729D01*
X7755Y9975D01*
Y9924D01*
X7729Y9898D01*
X7653D01*
X7704D02*
X7755Y9848D01*
X7805Y9975D02*
X7831Y10000D01*
X7882D01*
X7907Y9975D01*
Y9949D01*
X7882Y9924D01*
X7907Y9898D01*
Y9873D01*
X7882Y9848D01*
X7831D01*
X7805Y9873D01*
Y9898D01*
X7831Y9924D01*
X7805Y9949D01*
Y9975D01*
X7831Y9924D02*
X7882D01*
X7450Y9848D02*
Y10000D01*
X7526D01*
X7551Y9975D01*
Y9924D01*
X7526Y9898D01*
X7450D01*
X7501D02*
X7551Y9848D01*
X7602Y9873D02*
X7628Y9848D01*
X7678D01*
X7704Y9873D01*
Y9975D01*
X7678Y10000D01*
X7628D01*
X7602Y9975D01*
Y9949D01*
X7628Y9924D01*
X7704D01*
X7247Y9848D02*
Y10000D01*
X7323D01*
X7348Y9975D01*
Y9924D01*
X7323Y9898D01*
X7247D01*
X7297D02*
X7348Y9848D01*
X7399D02*
X7450D01*
X7424D01*
Y10000D01*
X7399Y9975D01*
X7526D02*
X7551Y10000D01*
X7602D01*
X7627Y9975D01*
Y9873D01*
X7602Y9848D01*
X7551D01*
X7526Y9873D01*
Y9975D01*
X7043Y9848D02*
Y10000D01*
X7120D01*
X7145Y9975D01*
Y9924D01*
X7120Y9898D01*
X7043D01*
X7094D02*
X7145Y9848D01*
X7196D02*
X7247D01*
X7221D01*
Y10000D01*
X7196Y9975D01*
X7323Y9848D02*
X7374D01*
X7348D01*
Y10000D01*
X7323Y9975D01*
X6840Y9848D02*
Y10000D01*
X6916D01*
X6942Y9975D01*
Y9924D01*
X6916Y9898D01*
X6840D01*
X6891D02*
X6942Y9848D01*
X6993D02*
X7043D01*
X7018D01*
Y10000D01*
X6993Y9975D01*
X7221Y9848D02*
X7120D01*
X7221Y9949D01*
Y9975D01*
X7196Y10000D01*
X7145D01*
X7120Y9975D01*
X6637Y9848D02*
Y10000D01*
X6713D01*
X6739Y9975D01*
Y9924D01*
X6713Y9898D01*
X6637D01*
X6688D02*
X6739Y9848D01*
X6789D02*
X6840D01*
X6815D01*
Y10000D01*
X6789Y9975D01*
X6916D02*
X6942Y10000D01*
X6993D01*
X7018Y9975D01*
Y9949D01*
X6993Y9924D01*
X6967D01*
X6993D01*
X7018Y9898D01*
Y9873D01*
X6993Y9848D01*
X6942D01*
X6916Y9873D01*
X6434Y9848D02*
Y10000D01*
X6510D01*
X6535Y9975D01*
Y9924D01*
X6510Y9898D01*
X6434D01*
X6485D02*
X6535Y9848D01*
X6586D02*
X6637D01*
X6612D01*
Y10000D01*
X6586Y9975D01*
X6789Y9848D02*
Y10000D01*
X6713Y9924D01*
X6815D01*
X5423Y7280D02*
X5550D01*
X5575Y7305D01*
Y7356D01*
X5550Y7381D01*
X5423D01*
X5575Y7432D02*
Y7483D01*
Y7457D01*
X5423D01*
X5448Y7432D01*
X5425Y9134D02*
X5298D01*
X5273Y9108D01*
Y9058D01*
X5298Y9032D01*
X5425D01*
X5273Y8880D02*
Y8981D01*
X5375Y8880D01*
X5400D01*
X5425Y8905D01*
Y8956D01*
X5400Y8981D01*
D24*
X5132Y8730D02*
G03*
X4723Y8730I-205J160D01*
G01*
X8578Y10311D02*
G03*
X8578Y10720I160J205D01*
G01*
X4884Y6707D02*
G03*
X4884Y6298I-160J-205D01*
G01*
X5443Y6707D02*
G03*
X5443Y6298I-160J-205D01*
G01*
X6408Y10670D02*
G03*
X6408Y10260I-160J-205D01*
G01*
X4572Y7061D02*
X4648D01*
Y7569D01*
X4496D02*
X4648D01*
X4496Y7061D02*
Y7569D01*
Y7061D02*
X4572D01*
Y7569D02*
Y7592D01*
Y7038D02*
Y7061D01*
X4782Y7120D02*
Y7510D01*
X4972Y7120D02*
Y7510D01*
X4782D02*
X4972D01*
X4089Y6934D02*
X4343D01*
X4089D02*
Y7696D01*
X4343D01*
Y6934D02*
Y7696D01*
X6350Y6299D02*
X6426D01*
Y6807D01*
X6274D02*
X6426D01*
X6274Y6299D02*
Y6807D01*
Y6299D02*
X6350D01*
Y6807D02*
Y6830D01*
Y6276D02*
Y6299D01*
X7950Y5918D02*
Y6426D01*
X6680Y5918D02*
Y6426D01*
X7950D01*
X6680Y5918D02*
X7950D01*
X4729Y8730D02*
X5127D01*
X5474Y8141D02*
Y8522D01*
X4331Y8141D02*
X5474D01*
X4331D02*
Y8522D01*
X5474D01*
Y9258D02*
Y9639D01*
X4331Y9258D02*
X5474D01*
X4331D02*
Y9639D01*
X5474D01*
X6058Y8674D02*
X7201D01*
X6058Y8293D02*
Y8674D01*
Y8293D02*
X7201D01*
Y8674D01*
X7328D02*
X8471D01*
X7328Y8293D02*
Y8674D01*
Y8293D02*
X8471D01*
Y8674D01*
X6718Y6718D02*
Y7099D01*
X7861D01*
Y6718D02*
Y7099D01*
X6718Y6718D02*
X7861D01*
X8578Y10317D02*
Y10715D01*
X8661Y9728D02*
X9169D01*
X8661Y8966D02*
X9169D01*
X8661D02*
Y9728D01*
X9169Y8966D02*
Y9728D01*
Y9241D02*
Y9728D01*
X4884Y6303D02*
Y6701D01*
X5791Y6807D02*
Y6830D01*
Y6276D02*
Y6299D01*
Y6807D02*
X5867D01*
Y6299D02*
Y6807D01*
X5715Y6299D02*
X5867D01*
X5715D02*
Y6807D01*
X5791D01*
X5443Y6303D02*
Y6701D01*
X6045Y6807D02*
Y6830D01*
Y6276D02*
Y6299D01*
Y6807D02*
X6121D01*
Y6299D02*
Y6807D01*
X5969Y6299D02*
X6121D01*
X5969D02*
Y6807D01*
X6045D01*
X6408Y10266D02*
Y10664D01*
X6502Y9550D02*
Y9573D01*
Y9020D02*
Y9042D01*
Y9550D02*
X6579D01*
Y9042D02*
Y9550D01*
X6426Y9042D02*
X6579D01*
X6426D02*
Y9550D01*
X6502D01*
X6706D02*
Y9573D01*
Y9020D02*
Y9042D01*
Y9550D02*
X6782D01*
Y9042D02*
Y9550D01*
X6629Y9042D02*
X6782D01*
X6629D02*
Y9550D01*
X6706D01*
X6909D02*
Y9573D01*
Y9020D02*
Y9042D01*
Y9550D02*
X6985D01*
Y9042D02*
Y9550D01*
X6833Y9042D02*
X6985D01*
X6833D02*
Y9550D01*
X6909D01*
X7112D02*
Y9573D01*
Y9020D02*
Y9042D01*
Y9550D02*
X7188D01*
Y9042D02*
Y9550D01*
X7036Y9042D02*
X7188D01*
X7036D02*
Y9550D01*
X7112D01*
X7315D02*
Y9573D01*
Y9020D02*
Y9042D01*
Y9550D02*
X7391D01*
Y9042D02*
Y9550D01*
X7239Y9042D02*
X7391D01*
X7239D02*
Y9550D01*
X7315D01*
X7518D02*
Y9573D01*
Y9020D02*
Y9042D01*
Y9550D02*
X7595D01*
Y9042D02*
Y9550D01*
X7442Y9042D02*
X7595D01*
X7442D02*
Y9550D01*
X7518D01*
X7722D02*
Y9573D01*
Y9020D02*
Y9042D01*
Y9550D02*
X7798D01*
Y9042D02*
Y9550D01*
X7645Y9042D02*
X7798D01*
X7645D02*
Y9550D01*
X7722D01*
X4699Y10947D02*
X5207D01*
X4699Y10693D02*
Y10947D01*
Y10693D02*
X5207D01*
Y10947D01*
X7925Y9550D02*
Y9573D01*
Y9020D02*
Y9042D01*
Y9550D02*
X8001D01*
Y9042D02*
Y9550D01*
X7849Y9042D02*
X8001D01*
X7849D02*
Y9550D01*
X7925D01*
X8331D02*
Y9573D01*
Y9020D02*
Y9042D01*
Y9550D02*
X8407D01*
Y9042D02*
Y9550D01*
X8255Y9042D02*
X8407D01*
X8255D02*
Y9550D01*
X8331D01*
X8128D02*
Y9573D01*
Y9020D02*
Y9042D01*
Y9550D02*
X8204D01*
Y9042D02*
Y9550D01*
X8052Y9042D02*
X8204D01*
X8052D02*
Y9550D01*
X8128D01*
X6883Y10744D02*
X8153D01*
X6883Y10236D02*
X8153D01*
Y10744D01*
X6883Y10236D02*
Y10744D01*
D25*
X6638Y6248D02*
X6553D01*
X6638Y6333D01*
Y6354D01*
X6617Y6375D01*
X6574D01*
X6553Y6354D01*
X6604Y5994D02*
X6646D01*
X6625D01*
Y6121D01*
X6604Y6100D01*
X7976Y6016D02*
X7997Y5994D01*
X8039D01*
X8060Y6016D01*
Y6100D01*
X8039Y6121D01*
X7997D01*
X7976Y6100D01*
Y6079D01*
X7997Y6058D01*
X8060D01*
X7976Y6248D02*
X8018D01*
X7997D01*
Y6375D01*
X7976Y6354D01*
X8081D02*
X8103Y6375D01*
X8145D01*
X8166Y6354D01*
Y6270D01*
X8145Y6248D01*
X8103D01*
X8081Y6270D01*
Y6354D01*
X8712Y9838D02*
X8733Y9796D01*
X8776Y9754D01*
X8818D01*
X8839Y9775D01*
Y9817D01*
X8818Y9838D01*
X8797D01*
X8776Y9817D01*
Y9754D01*
X8966Y9838D02*
Y9754D01*
X9030D01*
X9009Y9796D01*
Y9817D01*
X9030Y9838D01*
X9072D01*
X9093Y9817D01*
Y9775D01*
X9072Y9754D01*
X8839Y8924D02*
Y8839D01*
X8755Y8924D01*
X8733D01*
X8712Y8903D01*
Y8860D01*
X8733Y8839D01*
X9093Y8890D02*
Y8932D01*
Y8911D01*
X8966D01*
X8987Y8890D01*
X6858Y10414D02*
X6816D01*
X6837D01*
Y10287D01*
X6858Y10308D01*
X6752D02*
X6731Y10287D01*
X6689D01*
X6668Y10308D01*
Y10393D01*
X6689Y10414D01*
X6731D01*
X6752Y10393D01*
Y10308D01*
X6858Y10647D02*
X6837Y10668D01*
X6795D01*
X6773Y10647D01*
Y10562D01*
X6795Y10541D01*
X6837D01*
X6858Y10562D01*
Y10583D01*
X6837Y10605D01*
X6773D01*
X8230Y10668D02*
X8187D01*
X8208D01*
Y10541D01*
X8230Y10562D01*
X8196Y10414D02*
X8280D01*
X8196Y10329D01*
Y10308D01*
X8217Y10287D01*
X8259D01*
X8280Y10308D01*
D26*
X4730Y8648D02*
Y8598D01*
Y8623D01*
X4880D01*
X4855Y8648D01*
X5099D02*
X5124Y8623D01*
Y8573D01*
X5099Y8548D01*
X5074D01*
X5049Y8573D01*
Y8598D01*
Y8573D01*
X5024Y8548D01*
X4999D01*
X4974Y8573D01*
Y8623D01*
X4999Y8648D01*
X8496Y10713D02*
X8446D01*
X8471D01*
Y10564D01*
X8496Y10589D01*
Y10344D02*
X8471Y10319D01*
X8421D01*
X8396Y10344D01*
Y10369D01*
X8421Y10394D01*
X8446D01*
X8421D01*
X8396Y10419D01*
Y10444D01*
X8421Y10469D01*
X8471D01*
X8496Y10444D01*
X4967Y6674D02*
X4991Y6699D01*
X5041D01*
X5066Y6674D01*
Y6649D01*
X5041Y6624D01*
X5016D01*
X5041D01*
X5066Y6599D01*
Y6574D01*
X5041Y6549D01*
X4991D01*
X4967Y6574D01*
Y6305D02*
X5016D01*
X4991D01*
Y6454D01*
X4967Y6429D01*
X5525Y6674D02*
X5550Y6699D01*
X5600D01*
X5625Y6674D01*
Y6649D01*
X5600Y6624D01*
X5575D01*
X5600D01*
X5625Y6599D01*
Y6574D01*
X5600Y6549D01*
X5550D01*
X5525Y6574D01*
Y6305D02*
X5575D01*
X5550D01*
Y6454D01*
X5525Y6429D01*
X6490Y10636D02*
X6515Y10661D01*
X6565D01*
X6590Y10636D01*
Y10611D01*
X6565Y10586D01*
X6540D01*
X6565D01*
X6590Y10561D01*
Y10536D01*
X6565Y10511D01*
X6515D01*
X6490Y10536D01*
Y10267D02*
X6540D01*
X6515D01*
Y10417D01*
X6490Y10392D01*
D27*
X4877Y7150D02*
D03*
M02*
