METRIC,LZ
M48
T1F00S00C0.60
T2F00S00C0.70
T3F00S00C0.80
T4F00S00C0.85
T5F00S00C0.90
%
T01
X008077Y007366
X008331
X008585
X008839
X009093
X007823
X007569
X007315
X007061
X006807
X006553
X006299
X006045
X005791
Y008128
X006045
X006299
X006553
X006807
X007061
X007315
X007569
X007823
X00508Y01016
X004826
X008077Y008128
X008331
X008585
X008839
X009093
T02
X006909Y006909
X007671
X007518Y008484
X00701
X006248
X005283Y008331
X004521
Y009449
X005283
X00828Y008484
T03
X004724Y006375
Y006502
Y006629
X005283
Y006502
Y006375
X005055Y00889
X004928
X004801
X006248Y010338
Y010465
Y010592
X008738Y010643
Y010516
Y010389
T04
X004572Y006934
Y007696
X005791Y006934
X006045
X00635
Y006172
X006045
X005791
X006502Y008915
X006706
X006909
X007112
X007315
X007518
X007722
X007925
Y009677
X007722
X007518
X007315
X007112
X006909
X006706
X006502
X008128
X008331
Y008915
X008128
T05
X004216Y007061
Y007315
Y007569
X004877Y00767
Y00696
X006807Y006299
Y006045
X007061
Y006299
X007315
Y006045
X007569
Y006299
X007823
Y006045
X007772Y010363
X007518
X007264
X00701
Y010617
X007264
X007518
X007772
X00508Y01082
X004826
X008026Y010617
Y010363
X008788Y009601
Y009347
Y009093
X009042
Y009347
Y009601
M30
