%FSLAX42Y42*%
%MOMM*%
G71*
G01*
G75*
%ADD10C,0.25*%
%ADD11C,0.51*%
%ADD12C,0.41*%
%ADD13C,1.40*%
%ADD14C,1.50*%
%ADD15R,1.50X1.50*%
%ADD16C,1.78*%
%ADD17O,1.00X2.00*%
%ADD18O,1.00X2.00*%
%ADD19C,1.20*%
%ADD20O,1.57X2.03*%
%ADD21R,1.57X2.03*%
%ADD22O,2.00X1.00*%
%ADD23O,2.00X1.00*%
%ADD24C,0.20*%
%ADD25C,0.20*%
%ADD26C,0.15*%
%ADD27R,1.90X0.80*%
%ADD28C,1.60*%
%ADD29C,1.70*%
%ADD30R,1.70X1.70*%
%ADD31C,1.98*%
%ADD32O,1.20X2.20*%
%ADD33O,1.20X2.20*%
%ADD34C,1.40*%
%ADD35O,1.78X2.24*%
%ADD36R,1.78X2.24*%
%ADD37O,2.20X1.20*%
%ADD38O,2.20X1.20*%
D28*
X4572Y6934D02*
D03*
Y7696D02*
D03*
X6350Y6172D02*
D03*
Y6934D02*
D03*
X5791Y6172D02*
D03*
Y6934D02*
D03*
X6045Y6172D02*
D03*
Y6934D02*
D03*
X6502Y8915D02*
D03*
Y9677D02*
D03*
X6706Y8915D02*
D03*
Y9677D02*
D03*
X6909Y8915D02*
D03*
Y9677D02*
D03*
X7112Y8915D02*
D03*
Y9677D02*
D03*
X7315Y8915D02*
D03*
Y9677D02*
D03*
X7518Y8915D02*
D03*
Y9677D02*
D03*
X7722Y8915D02*
D03*
Y9677D02*
D03*
X7925Y8915D02*
D03*
Y9677D02*
D03*
X8331Y8915D02*
D03*
Y9677D02*
D03*
X8128Y8915D02*
D03*
Y9677D02*
D03*
D29*
X4877Y7670D02*
D03*
X4216Y7569D02*
D03*
Y7315D02*
D03*
X6807Y6299D02*
D03*
X7061Y6045D02*
D03*
Y6299D02*
D03*
X7315Y6045D02*
D03*
Y6299D02*
D03*
X7569Y6045D02*
D03*
Y6299D02*
D03*
X7823Y6045D02*
D03*
Y6299D02*
D03*
X8788Y9093D02*
D03*
X9042Y9347D02*
D03*
X8788D02*
D03*
X9042Y9601D02*
D03*
X8788D02*
D03*
X5080Y10820D02*
D03*
X7010Y10363D02*
D03*
Y10617D02*
D03*
X7264Y10363D02*
D03*
Y10617D02*
D03*
X7518Y10363D02*
D03*
Y10617D02*
D03*
X7772Y10363D02*
D03*
Y10617D02*
D03*
X8026Y10363D02*
D03*
D30*
X4877Y6960D02*
D03*
X4216Y7061D02*
D03*
X6807Y6045D02*
D03*
X9042Y9093D02*
D03*
X4826Y10820D02*
D03*
X8026Y10617D02*
D03*
D31*
X4826Y10160D02*
D03*
X5080D02*
D03*
D32*
X5055Y8890D02*
D03*
X4928D02*
D03*
D33*
X4801D02*
D03*
D34*
X5283Y8331D02*
D03*
X4521D02*
D03*
X5283Y9449D02*
D03*
X4521D02*
D03*
X6248Y8484D02*
D03*
X7010D02*
D03*
X7518D02*
D03*
X8280D02*
D03*
X6909Y6909D02*
D03*
X7671D02*
D03*
D35*
X9093Y8128D02*
D03*
X8839D02*
D03*
X8331D02*
D03*
X8077D02*
D03*
X7823D02*
D03*
X7569D02*
D03*
X7315D02*
D03*
X7061D02*
D03*
X6807D02*
D03*
X6553D02*
D03*
X6299D02*
D03*
X6045D02*
D03*
X5791D02*
D03*
X9093Y7366D02*
D03*
X8839D02*
D03*
X8585D02*
D03*
X8331D02*
D03*
X8077D02*
D03*
X7823D02*
D03*
X7569D02*
D03*
X7315D02*
D03*
X7061D02*
D03*
X6807D02*
D03*
X6553D02*
D03*
X6299D02*
D03*
X6045D02*
D03*
X8585Y8128D02*
D03*
D36*
X5791Y7366D02*
D03*
D37*
X8738Y10389D02*
D03*
Y10516D02*
D03*
X4724Y6502D02*
D03*
Y6629D02*
D03*
X5283Y6502D02*
D03*
Y6629D02*
D03*
X6248Y10465D02*
D03*
Y10592D02*
D03*
D38*
X8738Y10643D02*
D03*
X4724Y6375D02*
D03*
X5283D02*
D03*
X6248Y10338D02*
D03*
M02*
