%FSLAX42Y42*%
%MOMM*%
G71*
G01*
G75*
%ADD10C,1.00*%
%ADD11C,0.25*%
%ADD12C,0.51*%
%ADD13C,0.41*%
%ADD14C,2.10*%
%ADD15C,1.50*%
%ADD16C,1.30*%
%ADD17R,1.50X1.50*%
%ADD18C,1.40*%
%ADD19O,1.57X2.03*%
%ADD20R,1.57X2.03*%
%ADD21C,1.78*%
%ADD22C,0.15*%
%ADD23C,0.20*%
%ADD24C,0.20*%
%ADD25R,1.90X0.80*%
%ADD26C,2.30*%
%ADD27C,1.70*%
%ADD28C,1.50*%
%ADD29R,1.70X1.70*%
%ADD30C,1.60*%
%ADD31O,1.78X2.24*%
%ADD32R,1.78X2.24*%
%ADD33C,1.98*%
D14*
X4445Y10363D02*
D03*
Y10617D02*
D03*
D15*
X5674Y9703D02*
D03*
X4674D02*
D03*
X5674Y8636D02*
D03*
X4674D02*
D03*
X6976Y6960D02*
D03*
X7976D02*
D03*
X7299Y8636D02*
D03*
X6299D02*
D03*
X8925D02*
D03*
X7925D02*
D03*
X8026Y10363D02*
D03*
X7772Y10617D02*
D03*
Y10363D02*
D03*
X7518Y10617D02*
D03*
Y10363D02*
D03*
X7264Y10617D02*
D03*
Y10363D02*
D03*
X7010Y10617D02*
D03*
Y10363D02*
D03*
X4928Y10617D02*
D03*
X8941Y9703D02*
D03*
X9195D02*
D03*
X8941Y9449D02*
D03*
X9195D02*
D03*
X8941Y9195D02*
D03*
X7874Y6452D02*
D03*
Y6198D02*
D03*
X7620Y6452D02*
D03*
Y6198D02*
D03*
X7366Y6452D02*
D03*
Y6198D02*
D03*
X7112Y6452D02*
D03*
Y6198D02*
D03*
X6858Y6452D02*
D03*
X4496Y7341D02*
D03*
Y7595D02*
D03*
X5156Y7696D02*
D03*
D16*
X8585Y10363D02*
D03*
Y10617D02*
D03*
X8712Y10490D02*
D03*
X6274D02*
D03*
X6401Y10363D02*
D03*
Y10617D02*
D03*
X5207Y6477D02*
D03*
X5334Y6350D02*
D03*
Y6604D02*
D03*
X4826D02*
D03*
Y6350D02*
D03*
X4699Y6477D02*
D03*
X5105Y9220D02*
D03*
X4978Y9093D02*
D03*
X5232D02*
D03*
D17*
X8026Y10617D02*
D03*
X4928Y10363D02*
D03*
X9195Y9195D02*
D03*
X6858Y6198D02*
D03*
X4496Y7087D02*
D03*
X5156Y6986D02*
D03*
D18*
X8280Y9830D02*
D03*
Y9068D02*
D03*
X8534Y9830D02*
D03*
Y9068D02*
D03*
X8026Y9830D02*
D03*
Y9068D02*
D03*
X7772Y9830D02*
D03*
Y9068D02*
D03*
X7518Y9830D02*
D03*
Y9068D02*
D03*
X7264Y9830D02*
D03*
Y9068D02*
D03*
X7010Y9830D02*
D03*
Y9068D02*
D03*
X6756Y9830D02*
D03*
Y9068D02*
D03*
X6502Y9830D02*
D03*
Y9068D02*
D03*
X6248Y9830D02*
D03*
Y9068D02*
D03*
X6045Y6934D02*
D03*
Y6172D02*
D03*
X5791Y6934D02*
D03*
Y6172D02*
D03*
X6299Y6934D02*
D03*
Y6172D02*
D03*
X4851Y7722D02*
D03*
Y6960D02*
D03*
D19*
X8585Y8128D02*
D03*
X6045Y7366D02*
D03*
X6299D02*
D03*
X6553D02*
D03*
X6807D02*
D03*
X7061D02*
D03*
X7315D02*
D03*
X7569D02*
D03*
X7823D02*
D03*
X8077D02*
D03*
X8331D02*
D03*
X8585D02*
D03*
X8839D02*
D03*
X9093D02*
D03*
X5791Y8128D02*
D03*
X6045D02*
D03*
X6299D02*
D03*
X6553D02*
D03*
X6807D02*
D03*
X7061D02*
D03*
X7315D02*
D03*
X7569D02*
D03*
X7823D02*
D03*
X8077D02*
D03*
X8331D02*
D03*
X8839D02*
D03*
X9093D02*
D03*
D20*
X5791Y7366D02*
D03*
D21*
X5588Y10617D02*
D03*
Y10363D02*
D03*
M02*
