METRIC,LZ
M48
T1F00S00C0.60
T2F00S00C0.80
T3F00S00C0.90
T4F00S00C1.50
%
T01
X008077Y007366
X008331
X008585
X008839
X009093
X007823
X007569
X007315
X007061
X006807
X006553
X006299
X006045
X005791
X005334Y006604
X005207Y006477
X005334Y00635
X004826
Y006604
X004699Y006477
X005791Y008128
X006045
X006299
X006553
X006807
X007061
X007315
X007569
X007823
X005232Y009093
X005105Y00922
X004978Y009093
X005588Y010363
Y010617
X006274Y01049
X006401Y010363
Y010617
X008585
Y010363
X008712Y01049
X008585Y008128
X008331
X008077
X008839
X009093
T02
X004851Y00696
Y007722
X005791Y006934
X006045
X006299
Y006172
X006045
X005791
X006248Y009068
X006502
X006756
X00701
X007264
X007518
X007772
Y00983
X007518
X007264
X00701
X006756
X006502
X006248
X008026
X00828
X008534
Y009068
X00828
X008026
T03
X007976Y00696
X007874Y006452
Y006198
X00762
Y006452
X007366
Y006198
X007112
Y006452
X006858
Y006198
X006976Y00696
X005156Y006986
Y007696
X004496Y007595
Y007341
Y007087
X004674Y008636
X005674
X006299
X007299
X007925
X007772Y010363
Y010617
X007518
Y010363
X007264
Y010617
X00701
Y010363
X005674Y009703
X004674
X004928Y010363
Y010617
X008026
Y010363
X008941Y009703
X009195
Y009449
X008941
Y009195
X009195
X008925Y008636
T04
X004445Y010363
Y010617
M30
