%FSLAX42Y42*%
%MOMM*%
G71*
G01*
G75*
G04 Layer_Physical_Order=2*
%ADD10C,1.00*%
%ADD11C,0.25*%
%ADD12C,0.51*%
%ADD13C,0.41*%
%ADD14C,2.10*%
%ADD15C,1.50*%
%ADD16C,1.30*%
%ADD17R,1.50X1.50*%
%ADD18C,1.40*%
%ADD19O,1.57X2.03*%
%ADD20R,1.57X2.03*%
%ADD21C,1.78*%
%ADD22C,0.15*%
%ADD23C,0.20*%
D10*
X8927Y10490D02*
G03*
X8787Y10692I-215J0D01*
G01*
Y10289D02*
G03*
X8927Y10490I-75J202D01*
G01*
X8787Y10692D02*
G03*
X8371Y10600I-202J-75D01*
G01*
X8710Y10188D02*
G03*
X8787Y10289I-125J175D01*
G01*
X8283Y10513D02*
G03*
X8251Y10469I124J-124D01*
G01*
X8283Y10513D02*
G03*
X8251Y10469I124J-124D01*
G01*
G03*
X8239Y10437I156J-80D01*
G01*
X8251Y10469D02*
G03*
X8239Y10437I156J-80D01*
G01*
X9418Y9420D02*
G03*
X9420Y9449I-223J29D01*
G01*
X9497Y8865D02*
G03*
X9446Y8989I-175J0D01*
G01*
X9497Y8865D02*
G03*
X9446Y8989I-175J0D01*
G01*
X9420Y9703D02*
G03*
X9068Y9889I-225J0D01*
G01*
G03*
X8754Y9829I-127J-186D01*
G01*
X8754Y9830D02*
G03*
X8710Y9963I-220J0D01*
G01*
X8653Y9644D02*
G03*
X8716Y9705I-118J185D01*
G01*
G03*
X8751Y9582I225J-3D01*
G01*
X9381Y9576D02*
G03*
X9420Y9703I-186J127D01*
G01*
Y9449D02*
G03*
X9381Y9576I-225J0D01*
G01*
X8735Y9598D02*
G03*
X8653Y9644I-124J-124D01*
G01*
X8735Y9598D02*
G03*
X8653Y9644I-124J-124D01*
G01*
X8153Y8888D02*
G03*
X8250Y8850I127J180D01*
G01*
X8255Y8837D02*
G03*
X8131Y8785I0J-175D01*
G01*
X8255Y8837D02*
G03*
X8131Y8785I0J-175D01*
G01*
X7993Y8850D02*
G03*
X8153Y8888I33J218D01*
G01*
X7801Y10840D02*
G03*
X7645Y10803I-29J-223D01*
G01*
X7899Y8888D02*
G03*
X7959Y8858I127J180D01*
G01*
X7645Y8888D02*
G03*
X7899Y8888I127J180D01*
G01*
X7645Y10803D02*
G03*
X7391Y10803I-127J-186D01*
G01*
X7391Y8888D02*
G03*
X7645Y8888I127J180D01*
G01*
X7332Y8859D02*
G03*
X7391Y8888I-68J209D01*
G01*
X7391Y10803D02*
G03*
X7137Y10803I-127J-186D01*
G01*
G03*
X6800Y10539I-127J-186D01*
G01*
X6601D02*
G03*
X6616Y10617I-200J79D01*
G01*
X6375Y9650D02*
G03*
X6403Y9633I127J180D01*
G01*
G03*
X6353Y9598I74J-159D01*
G01*
X6403Y9633D02*
G03*
X6353Y9598I74J-159D01*
G01*
X8110Y8764D02*
G03*
X7993Y8850I-185J-128D01*
G01*
X7959Y8858D02*
G03*
X7797Y8451I-34J-222D01*
G01*
X7524Y8636D02*
G03*
X7332Y8859I-225J0D01*
G01*
X7699Y8354D02*
G03*
X7691Y8345I124J-124D01*
G01*
X7699Y8354D02*
G03*
X7691Y8345I124J-124D01*
G01*
G03*
X7442Y8341I-122J-194D01*
G01*
X7115Y8765D02*
G03*
X7524Y8636I184J-129D01*
G01*
X6524D02*
G03*
X6483Y8765I-225J0D01*
G01*
X7442Y8341D02*
G03*
X7188Y8341I-127J-190D01*
G01*
G03*
X6934Y8341I-127J-190D01*
G01*
G03*
X6680Y8341I-127J-190D01*
G01*
G03*
X6426Y8341I-127J-190D01*
G01*
X9446Y7828D02*
G03*
X9497Y7952I-124J124D01*
G01*
X9446Y7828D02*
G03*
X9497Y7952I-124J124D01*
G01*
X9322Y7389D02*
G03*
X9206Y7588I-229J0D01*
G01*
X9147Y7121D02*
G03*
X9322Y7343I-54J222D01*
G01*
X8992Y7038D02*
G03*
X9116Y7090I0J175D01*
G01*
X8992Y7038D02*
G03*
X9116Y7090I0J175D01*
G01*
X9640Y6830D02*
G03*
X9576Y6843I-64J-150D01*
G01*
X9640Y6830D02*
G03*
X9576Y6843I-64J-150D01*
G01*
X9640Y6830D02*
G03*
X9576Y6843I-64J-150D01*
G01*
X9560Y6047D02*
G03*
X9640Y6067I2J163D01*
G01*
X9560Y6047D02*
G03*
X9640Y6067I2J163D01*
G01*
X8331Y6843D02*
G03*
X8168Y6680I0J-163D01*
G01*
X8244Y6085D02*
G03*
X8329Y6060I87J138D01*
G01*
X8331Y6843D02*
G03*
X8168Y6680I0J-163D01*
G01*
X8244Y6085D02*
G03*
X8329Y6060I87J138D01*
G01*
X8201Y6960D02*
G03*
X8186Y7038I-225J0D01*
G01*
X7765Y7038D02*
G03*
X8201Y6960I211J-79D01*
G01*
X8168Y6223D02*
G03*
X8220Y6104I163J0D01*
G01*
G03*
X8244Y6085I111J119D01*
G01*
X8220Y6104D02*
G03*
X8244Y6085I111J119D01*
G01*
X8168Y6223D02*
G03*
X8220Y6104I163J0D01*
G01*
X7648Y7090D02*
G03*
X7765Y7038I124J124D01*
G01*
X7648Y7090D02*
G03*
X7765Y7038I124J124D01*
G01*
X7442Y7153D02*
G03*
X7618Y7120I127J190D01*
G01*
X7402Y7131D02*
G03*
X7442Y7153I-86J212D01*
G01*
X7490Y7084D02*
G03*
X7402Y7131I-124J-124D01*
G01*
X7490Y7084D02*
G03*
X7402Y7131I-124J-124D01*
G01*
X6680Y7153D02*
G03*
X6812Y7114I127J190D01*
G01*
G03*
X7117Y6784I163J-155D01*
G01*
X6426Y7153D02*
G03*
X6680Y7153I127J190D01*
G01*
X6392Y7134D02*
G03*
X6426Y7153I-92J209D01*
G01*
X6519Y6934D02*
G03*
X6392Y7134I-220J0D01*
G01*
X8060Y6325D02*
G03*
X8099Y6452I-186J127D01*
G01*
Y6198D02*
G03*
X8060Y6325I-225J0D01*
G01*
X7404Y6673D02*
G03*
X7239Y6637I-38J-222D01*
G01*
X8099Y6452D02*
G03*
X7898Y6675I-225J0D01*
G01*
X7747Y6012D02*
G03*
X8099Y6198I127J186D01*
G01*
X7493Y6012D02*
G03*
X7747Y6012I127J186D01*
G01*
X7239D02*
G03*
X7493Y6012I127J186D01*
G01*
X7083Y5974D02*
G03*
X7239Y6012I29J223D01*
G01*
Y6637D02*
G03*
X6985Y6637I-127J-186D01*
G01*
G03*
X6635Y6423I-127J-186D01*
G01*
X6616Y10617D02*
G03*
X6199Y10692I-215J0D01*
G01*
X5790Y10490D02*
G03*
X5827Y10617I-202J127D01*
G01*
X6199Y10692D02*
G03*
X6073Y10413I75J-202D01*
G01*
X5827Y10363D02*
G03*
X5790Y10490I-239J0D01*
G01*
X5827Y10617D02*
G03*
X5386Y10490I-239J0D01*
G01*
G03*
X5827Y10363I202J-127D01*
G01*
X6073Y9963D02*
G03*
X6375Y9650I175J-133D01*
G01*
X6023Y8817D02*
G03*
X6117Y8768I124J124D01*
G01*
X6023Y8817D02*
G03*
X6117Y8768I124J124D01*
G01*
X5997Y9243D02*
G03*
X5946Y9119I124J-124D01*
G01*
X5997Y9243D02*
G03*
X5946Y9119I124J-124D01*
G01*
Y8966D02*
G03*
X5997Y8842I175J0D01*
G01*
X5946Y8966D02*
G03*
X5997Y8842I175J0D01*
G01*
X5874Y8533D02*
G03*
X5899Y8636I-200J103D01*
G01*
Y9703D02*
G03*
X5899Y9703I-225J0D01*
G01*
X5447Y9105D02*
G03*
X5307Y9295I-215J-12D01*
G01*
X5459Y9042D02*
G03*
X5447Y9105I-175J0D01*
G01*
X5899Y8636D02*
G03*
X5459Y8702I-225J0D01*
G01*
Y9042D02*
G03*
X5447Y9105I-175J0D01*
G01*
X5151Y10588D02*
G03*
X5153Y10617I-223J29D01*
G01*
G03*
X4704Y10588I-225J0D01*
G01*
X4666Y10490D02*
G03*
X4700Y10617I-221J127D01*
G01*
Y10363D02*
G03*
X4666Y10490I-255J0D01*
G01*
X4700Y10617D02*
G03*
X4224Y10490I-255J0D01*
G01*
G03*
X4700Y10363I221J-127D01*
G01*
X5307Y9295D02*
G03*
X4904Y9295I-202J-75D01*
G01*
G03*
X5105Y8920I75J-202D01*
G01*
X4899Y9703D02*
G03*
X4899Y9703I-225J0D01*
G01*
X6117Y8768D02*
G03*
X6524Y8636I182J-132D01*
G01*
X6426Y8341D02*
G03*
X6172Y8341I-127J-190D01*
G01*
G03*
X5918Y8341I-127J-190D01*
G01*
X5867Y8367D02*
G03*
X5874Y8417I-194J50D01*
G01*
X5867Y8367D02*
G03*
X5874Y8417I-194J50D01*
G01*
X5918Y8341D02*
G03*
X5867Y8367I-127J-190D01*
G01*
X5587Y7017D02*
G03*
X5918Y6755I204J-83D01*
G01*
X6172D02*
G03*
X6519Y6934I127J180D01*
G01*
X5918Y6755D02*
G03*
X6172Y6755I127J180D01*
G01*
X5138Y7471D02*
G03*
X5159Y7445I146J98D01*
G01*
X4986Y7548D02*
G03*
X5138Y7471I170J148D01*
G01*
G03*
X5159Y7445I146J98D01*
G01*
X5549Y6604D02*
G03*
X5381Y6814I-215J0D01*
G01*
X5187Y6761D02*
G03*
X5132Y6679I147J-157D01*
G01*
X6519Y6172D02*
G03*
X6172Y6352I-220J0D01*
G01*
Y5993D02*
G03*
X6519Y6172I127J180D01*
G01*
X6172Y6352D02*
G03*
X5918Y6352I-127J-180D01*
G01*
Y5993D02*
G03*
X6172Y5993I127J180D01*
G01*
X5918Y6352D02*
G03*
X5918Y5993I-127J-180D01*
G01*
X5507Y6477D02*
G03*
X5549Y6604I-173J127D01*
G01*
Y6350D02*
G03*
X5507Y6477I-215J0D01*
G01*
X5132Y6679D02*
G03*
X5041Y6613I75J-202D01*
G01*
X5210Y6175D02*
G03*
X5549Y6350I124J175D01*
G01*
X5108Y7915D02*
G03*
X5014Y7870I48J-220D01*
G01*
X4899Y8636D02*
G03*
X4899Y8636I-225J0D01*
G01*
X5014Y7870D02*
G03*
X4637Y7770I-163J-148D01*
G01*
X4716Y7548D02*
G03*
X4986Y7548I135J173D01*
G01*
X4682Y7468D02*
G03*
X4716Y7548I-186J127D01*
G01*
X4637Y7770D02*
G03*
X4310Y7468I-141J-175D01*
G01*
X4721Y7341D02*
G03*
X4682Y7468I-225J0D01*
G01*
X4719Y7312D02*
G03*
X4721Y7341I-223J29D01*
G01*
X4310Y7468D02*
G03*
X4273Y7312I186J-127D01*
G01*
X4973Y6761D02*
G03*
X4963Y6770I-147J-157D01*
G01*
X4931Y7165D02*
G03*
X4721Y7137I-80J-205D01*
G01*
X4671Y6833D02*
G03*
X4714Y6788I180J126D01*
G01*
X5041Y6613D02*
G03*
X4973Y6761I-215J-9D01*
G01*
X4714Y6788D02*
G03*
X4671Y6753I112J-184D01*
G01*
X4320Y6401D02*
G03*
X4372Y6277I175J0D01*
G01*
X4320Y6401D02*
G03*
X4372Y6277I175J0D01*
G01*
X4978Y6048D02*
G03*
X5102Y6099I0J175D01*
G01*
X4978Y6048D02*
G03*
X5102Y6099I0J175D01*
G01*
X4550D02*
G03*
X4674Y6048I124J124D01*
G01*
X4550Y6099D02*
G03*
X4674Y6048I124J124D01*
G01*
X9570Y11048D02*
X9640Y10979D01*
X9498Y11048D02*
X9640Y10907D01*
X9427Y11048D02*
X9640Y10835D01*
X9355Y11048D02*
X9640Y10764D01*
X9283Y11048D02*
X9640Y10692D01*
X9211Y11048D02*
X9640Y10620D01*
X9139Y11048D02*
X9640Y10548D01*
X9067Y11048D02*
X9640Y10476D01*
X8996Y11048D02*
X9640Y10404D01*
X8924Y11048D02*
X9640Y10333D01*
X8927Y10507D02*
X9468Y11048D01*
X8927Y10507D02*
X9468Y11048D01*
X8917Y10426D02*
X9540Y11048D01*
X8889Y10613D02*
X9324Y11048D01*
X8913Y10566D02*
X9396Y11048D01*
X8855Y10651D02*
X9252Y11048D01*
X8812Y10680D02*
X9181Y11048D01*
X8747Y10759D02*
X9037Y11048D01*
X8776Y10716D02*
X9109Y11048D01*
X8852D02*
X9640Y10261D01*
X8780Y11048D02*
X9640Y10189D01*
X8921Y9927D02*
X9640Y10645D01*
X8708Y11048D02*
X9640Y10117D01*
X8723Y9944D02*
X9640Y10861D01*
X9209Y9927D02*
X9640Y10358D01*
X9269Y9915D02*
X9640Y10286D01*
X9127Y9917D02*
X9640Y10430D01*
X8989Y9923D02*
X9640Y10574D01*
X9042Y9904D02*
X9640Y10502D01*
X8803Y9881D02*
X9640Y10717D01*
X8919Y10551D02*
X9640Y9830D01*
X8710Y10147D02*
X9612Y11048D01*
X8745Y9894D02*
X9640Y10789D01*
X8926Y10471D02*
X9640Y9758D01*
X8913Y10413D02*
X9640Y9686D01*
X8888Y10366D02*
X9640Y9614D01*
X8811Y10299D02*
X9183Y9927D01*
X8854Y10328D02*
X9265Y9916D01*
X8663Y10818D02*
X8893Y11048D01*
X8604Y10831D02*
X8821Y11048D01*
X8709Y10793D02*
X8965Y11048D01*
X8525Y10823D02*
X8749Y11048D01*
X8251Y10622D02*
X8678Y11048D01*
X8421D02*
X8646Y10824D01*
X8349Y11048D02*
X8566Y10831D01*
X8277Y11048D02*
X8508Y10818D01*
X8251Y10766D02*
X8534Y11048D01*
X8251Y10694D02*
X8606Y11048D01*
X8251Y10838D02*
X8462Y11048D01*
X8184Y10842D02*
X8390Y11048D01*
X8205D02*
X8461Y10793D01*
X8133Y11048D02*
X8423Y10759D01*
X8062Y11048D02*
X8394Y10716D01*
X8112Y10842D02*
X8318Y11048D01*
X8196Y10842D02*
X8251Y10787D01*
X8375Y10663D01*
X8040Y10842D02*
X8247Y11048D01*
X7801Y10842D02*
X8251D01*
X8710Y10075D02*
X9640Y11005D01*
X8636Y11048D02*
X9640Y10045D01*
X8710Y10003D02*
X9640Y10933D01*
X8564Y11048D02*
X9640Y9973D01*
X8493Y11048D02*
X9640Y9901D01*
X8283Y10513D02*
X8371Y10600D01*
X8251Y10715D02*
X8369Y10598D01*
X8251Y10550D02*
X8379Y10678D01*
X8251Y10643D02*
X8333Y10562D01*
X8251Y10571D02*
X8297Y10526D01*
X8251Y10469D02*
Y10842D01*
Y10499D02*
X8263Y10488D01*
X8251Y10479D02*
X8268Y10495D01*
X9420Y9707D02*
X9640Y9927D01*
X9416Y9488D02*
X9640Y9711D01*
X9419Y9691D02*
X9640Y9470D01*
X9420Y9420D02*
X9640Y9640D01*
X9420Y9348D02*
X9640Y9568D01*
X9420Y9276D02*
X9640Y9496D01*
X9418Y9476D02*
X9640Y9255D01*
X9420Y9204D02*
X9640Y9424D01*
X9420Y9403D02*
X9640Y9183D01*
X9420Y9132D02*
X9640Y9352D01*
X9420Y9331D02*
X9640Y9111D01*
X9420Y9015D02*
Y9420D01*
Y9061D02*
X9640Y9280D01*
X9420Y9259D02*
X9640Y9039D01*
X9433Y9002D02*
X9640Y9209D01*
X9467Y8964D02*
X9640Y9137D01*
X9490Y8915D02*
X9640Y9065D01*
X9420Y9015D02*
X9446Y8989D01*
X9420Y9187D02*
X9640Y8968D01*
X9497Y8851D02*
X9640Y8993D01*
X9497Y8779D02*
X9640Y8921D01*
X9494Y8897D02*
X9640Y8752D01*
X9420Y9115D02*
X9640Y8896D01*
X9420Y9044D02*
X9640Y8824D01*
X9497Y8707D02*
X9640Y8849D01*
X9497Y8823D02*
X9640Y8680D01*
X9497Y8635D02*
X9640Y8777D01*
X9497Y8751D02*
X9640Y8608D01*
X9497Y8563D02*
X9640Y8706D01*
X9497Y8679D02*
X9640Y8536D01*
X9497Y8491D02*
X9640Y8634D01*
X9497Y8607D02*
X9640Y8465D01*
X9497Y8420D02*
X9640Y8562D01*
X9497Y8535D02*
X9640Y8393D01*
X9497Y8348D02*
X9640Y8490D01*
X9497Y8463D02*
X9640Y8321D01*
X9497Y8276D02*
X9640Y8418D01*
X9317Y9892D02*
X9640Y10214D01*
X8775Y10263D02*
X9122Y9916D01*
X9356Y9859D02*
X9640Y10142D01*
X8710Y10185D02*
X8968Y9926D01*
X8746Y10220D02*
X9074Y9892D01*
X9388Y9819D02*
X9640Y10071D01*
X9410Y9769D02*
X9640Y9999D01*
X8710Y10113D02*
X8899Y9924D01*
X8710Y10041D02*
X8845Y9906D01*
X8710Y9963D02*
Y10188D01*
X8753Y9854D02*
X8764Y9843D01*
X8710Y9969D02*
X8800Y9879D01*
X8754Y9832D02*
X8763Y9840D01*
X8703Y9689D02*
X8718Y9674D01*
X9404Y9619D02*
X9640Y9855D01*
X9408Y9773D02*
X9640Y9542D01*
X9399Y9543D02*
X9640Y9783D01*
X9408Y9630D02*
X9640Y9399D01*
X9384Y9582D02*
X9640Y9327D01*
X8735Y9598D02*
X8751Y9582D01*
X8694Y9628D02*
X8721Y9655D01*
X8666Y9654D02*
X8688Y9631D01*
X8248Y8850D02*
X8262Y8837D01*
X8250Y8850D02*
X8263Y8837D01*
X8255D02*
X8263D01*
X7990Y11048D02*
X8196Y10842D01*
X7969D02*
X8175Y11048D01*
X7918D02*
X8124Y10842D01*
X7897D02*
X8103Y11048D01*
X7846D02*
X8052Y10842D01*
X7825D02*
X8031Y11048D01*
X7774D02*
X7980Y10842D01*
X7752Y10841D02*
X7959Y11048D01*
X7702D02*
X7909Y10842D01*
X7631Y11048D02*
X7837Y10842D01*
X7559Y11048D02*
X7765Y10842D01*
X7537Y10841D02*
X7744Y11048D01*
X7596Y10829D02*
X7816Y11048D01*
X7487D02*
X7704Y10831D01*
X7457Y10834D02*
X7672Y11048D01*
X7343D02*
X7552Y10840D01*
X7271Y11048D02*
X7481Y10839D01*
X7316Y10836D02*
X7528Y11048D01*
X7250Y10842D02*
X7456Y11048D01*
X7199D02*
X7426Y10822D01*
X8144Y8882D02*
X8199Y8828D01*
X8080Y8799D02*
X8163Y8882D01*
X7643Y10804D02*
X7887Y11048D01*
X7927Y8861D02*
X7934Y8868D01*
X7869Y8870D02*
X7882Y8857D01*
X7838Y8843D02*
X7860Y8866D01*
X7415Y11048D02*
X7655Y10809D01*
X7640Y8884D02*
X7748Y8775D01*
X7368Y10817D02*
X7600Y11048D01*
X7142Y10806D02*
X7384Y11048D01*
X7400Y8837D02*
X7430Y8866D01*
X7505Y8727D02*
X7658Y8880D01*
X7364Y8872D02*
X7398Y8838D01*
X7128Y11048D02*
X7351Y10825D01*
X7056Y11048D02*
X7262Y10842D01*
X7091Y10827D02*
X7313Y11048D01*
X7033Y10841D02*
X7241Y11048D01*
X6984D02*
X7200Y10833D01*
X6956Y10836D02*
X7169Y11048D01*
X6912D02*
X7150Y10811D01*
X6840Y11048D02*
X7050Y10839D01*
X6768Y11048D02*
X6977Y10840D01*
X6697Y11048D02*
X6921Y10824D01*
X6625Y11048D02*
X6876Y10797D01*
X6601Y10696D02*
X6953Y11048D01*
X6553D02*
X6839Y10763D01*
X6576Y10742D02*
X6882Y11048D01*
X6541Y10780D02*
X6810Y11048D01*
X6498Y10809D02*
X6738Y11048D01*
X6481D02*
X6810Y10719D01*
X6377Y10831D02*
X6594Y11048D01*
X6445Y10828D02*
X6666Y11048D01*
X6608Y10559D02*
X7097Y11048D01*
X6615Y10638D02*
X7025Y11048D01*
X6409D02*
X6791Y10667D01*
X6337Y11048D02*
X6786Y10600D01*
X6659Y10539D02*
X6792Y10672D01*
X6731Y10539D02*
X6787Y10594D01*
X6616Y10626D02*
X6703Y10539D01*
X6601D02*
X6800D01*
X6584Y10730D02*
X6775Y10539D01*
X6609Y10562D02*
X6632Y10539D01*
X6373Y9648D02*
X6393Y9628D01*
X6325Y9624D02*
X6352Y9597D01*
X8166Y8812D02*
X8212Y8859D01*
X8096Y8859D02*
X8152Y8803D01*
X8035Y8848D02*
X8114Y8769D01*
X8110Y8764D02*
X8131Y8785D01*
X8039Y8830D02*
X8060Y8850D01*
X7815Y8852D02*
X7828Y8839D01*
X7592Y8860D02*
X7721Y8731D01*
X7521Y8671D02*
X7708Y8857D01*
X7449Y8859D02*
X7702Y8606D01*
X7347Y8856D02*
X7362Y8871D01*
X7746Y8849D02*
X7784Y8812D01*
X7532Y8848D02*
X7703Y8677D01*
X7521Y8599D02*
X7770Y8848D01*
X7444Y8809D02*
X7485Y8850D01*
X7479Y8772D02*
X7558Y8851D01*
X7501Y8735D02*
X7791Y8445D01*
X7524Y8640D02*
X7755Y8409D01*
X7516Y8576D02*
X7719Y8374D01*
X7368Y8373D02*
X7717Y8723D01*
X7420Y8354D02*
X7700Y8634D01*
X7699Y8354D02*
X7797Y8451D01*
X7647Y8366D02*
X7762Y8481D01*
X7589Y8379D02*
X7731Y8521D01*
X7510Y8372D02*
X7709Y8571D01*
X7465Y8484D02*
X7569Y8380D01*
X7427Y8451D02*
X7506Y8371D01*
X7495Y8526D02*
X7660Y8361D01*
X7244Y8418D02*
X7284Y8377D01*
X7379Y8426D02*
X7456Y8349D01*
X7321Y8412D02*
X7358Y8376D01*
X7302Y8379D02*
X7336Y8414D01*
X7198Y8347D02*
X7264Y8414D01*
X7040Y8765D02*
X7089Y8716D01*
X6968Y8765D02*
X7075Y8658D01*
X6483Y8765D02*
X7112D01*
X6896D02*
X7081Y8580D01*
X7085Y8378D02*
X7163Y8457D01*
X7008Y8373D02*
X7127Y8492D01*
X6799Y8379D02*
X7075Y8656D01*
X6799Y8379D02*
X7075Y8656D01*
X6681Y8765D02*
X7067Y8380D01*
X6522Y8606D02*
X6682Y8765D01*
X6521Y8676D02*
X6610Y8765D01*
X6582Y8378D02*
X6969Y8765D01*
X6503Y8730D02*
X6538Y8765D01*
X6507Y8375D02*
X6898Y8765D01*
X6524Y8634D02*
X6781Y8378D01*
X6506Y8724D02*
X6856Y8374D01*
X6824Y8765D02*
X7228Y8362D01*
X6752Y8765D02*
X7161Y8356D01*
X6639Y8363D02*
X7041Y8765D01*
X6609D02*
X7002Y8372D01*
X6537Y8765D02*
X6951Y8351D01*
X7143Y8364D02*
X7209Y8430D01*
X6864Y8372D02*
X7079Y8588D01*
X6915Y8352D02*
X7098Y8535D01*
X6515Y8572D02*
X6723Y8364D01*
X6462Y8481D02*
X6564Y8379D01*
X6493Y8522D02*
X6664Y8351D01*
X6360Y8371D02*
X6754Y8765D01*
X6411Y8351D02*
X6826Y8765D01*
X6423Y8448D02*
X6498Y8373D01*
X6375Y8424D02*
X6446Y8353D01*
X9497Y8391D02*
X9640Y8249D01*
X9497Y8204D02*
X9640Y8346D01*
X9497Y8320D02*
X9640Y8177D01*
X9497Y8132D02*
X9640Y8275D01*
X9497Y8248D02*
X9640Y8105D01*
X9497Y8060D02*
X9640Y8203D01*
X9497Y8176D02*
X9640Y8034D01*
X9497Y7989D02*
X9640Y8131D01*
X9497Y8104D02*
X9640Y7962D01*
X9493Y7912D02*
X9640Y8059D01*
X9497Y8032D02*
X9640Y7890D01*
X9497Y7952D02*
Y8865D01*
Y7960D02*
X9640Y7818D01*
X9227Y7574D02*
X9640Y7987D01*
X9489Y7897D02*
X9640Y7746D01*
X9464Y7850D02*
X9640Y7674D01*
X9430Y7812D02*
X9640Y7603D01*
X9265Y7540D02*
X9640Y7915D01*
X9394Y7776D02*
X9640Y7531D01*
X9358Y7740D02*
X9640Y7459D01*
X9322Y7704D02*
X9640Y7387D01*
X9294Y7498D02*
X9640Y7844D01*
X9315Y7447D02*
X9640Y7772D01*
X9322Y7382D02*
X9640Y7700D01*
X9319Y7308D02*
X9640Y7628D01*
X9320Y7419D02*
X9640Y7100D01*
X9286Y7668D02*
X9640Y7315D01*
X9251Y7632D02*
X9640Y7243D01*
X9322Y7345D02*
X9640Y7028D01*
X9322Y7343D02*
Y7389D01*
X9640Y6830D02*
Y11048D01*
X9314Y7282D02*
X9640Y6956D01*
X9293Y7231D02*
X9640Y6884D01*
X9429Y6843D02*
X9640Y7053D01*
X9357Y6843D02*
X9640Y7125D01*
X9286Y6843D02*
X9640Y7197D01*
X9224Y7156D02*
X9537Y6843D01*
X9263Y7189D02*
X9613Y6839D01*
X9206Y7588D02*
X9446Y7828D01*
X9215Y7596D02*
X9640Y7171D01*
X8998Y6843D02*
X9640Y7484D01*
X8926Y6843D02*
X9640Y7556D01*
X9214Y6843D02*
X9640Y7269D01*
X9178Y7131D02*
X9465Y6843D01*
X9142D02*
X9640Y7341D01*
X9131Y7105D02*
X9393Y6843D01*
X9070D02*
X9640Y7412D01*
X9116Y7090D02*
X9147Y7121D01*
X9094Y7071D02*
X9322Y6843D01*
X9046Y7047D02*
X9250Y6843D01*
X8983Y7038D02*
X9178Y6843D01*
X8911Y7038D02*
X9106Y6843D01*
X8186Y7038D02*
X8992D01*
X8854Y6843D02*
X9067Y7055D01*
X8839Y7038D02*
X9034Y6843D01*
X8783D02*
X8978Y7038D01*
X8767D02*
X8962Y6843D01*
X8711D02*
X8906Y7038D01*
X8695D02*
X8891Y6843D01*
X8639D02*
X8834Y7038D01*
X8623D02*
X8819Y6843D01*
X8567D02*
X8762Y7038D01*
X8552D02*
X8747Y6843D01*
X8495D02*
X8691Y7038D01*
X8480D02*
X8675Y6843D01*
X8423D02*
X8619Y7038D01*
X8408D02*
X8603Y6843D01*
X8352D02*
X8547Y7038D01*
X8336D02*
X8531Y6843D01*
X8264Y7038D02*
X8459Y6843D01*
X8266Y6829D02*
X8475Y7038D01*
X8192D02*
X8388Y6843D01*
X8002Y6637D02*
X8403Y7038D01*
X9573Y6843D02*
X9640Y6910D01*
X9501Y6843D02*
X9640Y6981D01*
X9634Y6832D02*
X9640Y6838D01*
X9608Y6054D02*
X9640Y6022D01*
X9542Y6048D02*
X9640Y5950D01*
X9470Y6048D02*
X9640Y5878D01*
X9500Y6843D02*
X9576D01*
X9640Y5740D02*
Y6067D01*
X9397Y6049D02*
X9640Y5806D01*
X9332Y5740D02*
X9640Y6047D01*
X9619Y5740D02*
X9640Y5760D01*
X9547Y5740D02*
X9640Y5832D01*
X9476Y5740D02*
X9640Y5904D01*
X9404Y5740D02*
X9640Y5976D01*
X9324Y6050D02*
X9634Y5740D01*
X9260D02*
X9568Y6047D01*
X9179Y6051D02*
X9491Y5740D01*
X9107Y6052D02*
X9419Y5740D01*
X9034Y6053D02*
X9347Y5740D01*
X8961Y6054D02*
X9275Y5740D01*
X9252Y6051D02*
X9563Y5740D01*
X9188D02*
X9496Y6048D01*
X9116Y5740D02*
X9425Y6049D01*
X9045Y5740D02*
X9354Y6050D01*
X8973Y5740D02*
X9283Y6050D01*
X8901Y5740D02*
X9212Y6051D01*
X8889Y6054D02*
X9203Y5740D01*
X8829D02*
X9141Y6052D01*
X8816Y6055D02*
X9131Y5740D01*
X8757D02*
X9070Y6053D01*
X8744Y6056D02*
X9060Y5740D01*
X8685D02*
X8999Y6053D01*
X8671Y6057D02*
X8988Y5740D01*
X8614D02*
X8928Y6054D01*
X8598Y6057D02*
X8916Y5740D01*
X8331Y6843D02*
X9500D01*
X8200Y6978D02*
X8260Y7038D01*
X8201Y6958D02*
X8316Y6842D01*
X8192Y6899D02*
X8331Y7038D01*
X8329Y6060D02*
X9560Y6047D01*
X8542Y5740D02*
X8857Y6055D01*
X8191Y6896D02*
X8260Y6827D01*
X8170Y6845D02*
X8218Y6797D01*
X8220Y6085D02*
Y6104D01*
Y6085D02*
X8244D01*
X8526Y6058D02*
X8844Y5740D01*
X8470D02*
X8786Y6056D01*
X8380Y6060D02*
X8700Y5740D01*
X8306Y6062D02*
X8629Y5740D01*
X8099Y6198D02*
X8557Y5740D01*
X8453Y6059D02*
X8772Y5740D01*
X8398D02*
X8714Y6056D01*
X8326Y5740D02*
X8643Y6057D01*
X8254Y5740D02*
X8572Y6058D01*
X8182Y5740D02*
X8501Y6059D01*
X8090Y6135D02*
X8485Y5740D01*
X8111D02*
X8430Y6059D01*
X8068Y6084D02*
X8413Y5740D01*
X7895D02*
X8241Y6085D01*
X7823Y5740D02*
X8204Y6121D01*
X8039Y5740D02*
X8359Y6060D01*
X8038Y6043D02*
X8341Y5740D01*
X7999Y6010D02*
X8269Y5740D01*
X7967D02*
X8292Y6065D01*
X7610Y7118D02*
X7751Y6976D01*
X7574Y6999D02*
X7657Y7082D01*
X7539Y7116D02*
X7760Y6896D01*
X7682Y6892D02*
X7751Y6960D01*
X7610Y6964D02*
X7700Y7054D01*
X7646Y6928D02*
X7757Y7039D01*
X7415Y7128D02*
X7437Y7149D01*
X7464Y7105D02*
X7488Y7129D01*
X7618Y7120D02*
X7648Y7090D01*
X7502Y7071D02*
X7547Y7116D01*
X7538Y7035D02*
X7620Y7118D01*
X8139Y6805D02*
X8187Y6756D01*
X8100Y6772D02*
X8170Y6701D01*
X8052Y6748D02*
X8168Y6631D01*
X8040Y6603D02*
X8182Y6745D01*
X7992Y6735D02*
X8168Y6559D01*
X7955Y6662D02*
X8036Y6743D01*
X8168Y6223D02*
Y6680D01*
X7897Y6676D02*
X7957Y6735D01*
X7912Y6744D02*
X8168Y6487D01*
X7754Y6820D02*
X7781Y6847D01*
X7718Y6856D02*
X7759Y6897D01*
X7790Y6784D02*
X7811Y6806D01*
X7490Y7084D02*
X7898Y6675D01*
X7435Y7149D02*
X7910Y6674D01*
X7862Y6712D02*
X7898Y6748D01*
X7826Y6748D02*
X7850Y6773D01*
X7318Y6671D02*
X7362Y6715D01*
X7293Y6784D02*
X7404Y6673D01*
X7225Y6784D02*
X7335Y6674D01*
X6741Y7124D02*
X6786Y7080D01*
X6655Y7138D02*
X6762Y7031D01*
X6535Y7115D02*
X6762Y6888D01*
X7117Y6784D02*
X7293D01*
X7108Y6677D02*
X7215Y6784D01*
X7171Y6669D02*
X7287Y6784D01*
X7047Y6746D02*
X7117Y6677D01*
X6987Y6735D02*
X7053Y6669D01*
X6407Y7126D02*
X6431Y7150D01*
X6519Y6950D02*
X6707Y7138D01*
X6602Y7120D02*
X6751Y6971D01*
X6506Y7009D02*
X6622Y7125D01*
X6509Y6868D02*
X6760Y7119D01*
X6449Y7095D02*
X6480Y7126D01*
X6482Y7057D02*
X6540Y7115D01*
X7153Y6784D02*
X7278Y6659D01*
X7096Y6770D02*
X7213Y6653D01*
X7013Y6654D02*
X7143Y6784D01*
X6426Y7153D02*
X6907Y6671D01*
X6425Y6353D02*
X6847Y6775D01*
X7222Y6648D02*
X7326Y6751D01*
X6946Y6659D02*
X7028Y6741D01*
X6904Y6746D02*
X7002Y6648D01*
X6890Y6674D02*
X6951Y6736D01*
X6816Y6673D02*
X6894Y6750D01*
X6510Y6996D02*
X6831Y6675D01*
X6518Y6916D02*
X6774Y6660D01*
X6505Y6857D02*
X6728Y6635D01*
X6319Y6391D02*
X6779Y6851D01*
X6378Y6378D02*
X6809Y6809D01*
X6481Y6810D02*
X6690Y6601D01*
X6447Y6772D02*
X6660Y6559D01*
X6406Y6742D02*
X6640Y6507D01*
X6354Y6721D02*
X6633Y6442D01*
X8091Y6511D02*
X8168Y6588D01*
X8099Y6447D02*
X8168Y6516D01*
X8096Y6488D02*
X8168Y6415D01*
X8070Y6562D02*
X8168Y6660D01*
X8075Y6351D02*
X8168Y6444D01*
X8096Y6416D02*
X8168Y6344D01*
X8081Y6285D02*
X8168Y6372D01*
X8097Y6229D02*
X8168Y6301D01*
X8080Y6361D02*
X8168Y6272D01*
X8080Y6289D02*
X8170Y6198D01*
X8095Y6155D02*
X8168Y6229D01*
X7951Y5986D02*
X8198Y5740D01*
X7813Y5981D02*
X8054Y5740D01*
X7751D02*
X8178Y6167D01*
X7724Y5998D02*
X7982Y5740D01*
X7536D02*
X7786Y5990D01*
X7892Y5973D02*
X8126Y5740D01*
X7680D02*
X7916Y5977D01*
X7671Y5979D02*
X7910Y5740D01*
X7608D02*
X7843Y5975D01*
X7605Y5973D02*
X7838Y5740D01*
X7497Y6009D02*
X7766Y5740D01*
X7464D02*
X7721Y5996D01*
X7447Y5988D02*
X7695Y5740D01*
X7249D02*
X7510Y6001D01*
X7219Y6000D02*
X7479Y5740D01*
X7392D02*
X7625Y5973D01*
X7389Y5974D02*
X7623Y5740D01*
X7320D02*
X7561Y5980D01*
X7311Y5979D02*
X7551Y5740D01*
X7177D02*
X7415Y5978D01*
X7033Y5740D02*
X7282Y5989D01*
X6961Y5740D02*
X7223Y6002D01*
X7168Y5980D02*
X7407Y5740D01*
X7105D02*
X7339Y5974D01*
X7102Y5973D02*
X7335Y5740D01*
X6633Y5973D02*
X7083D01*
X7031D02*
X7264Y5740D01*
X6513Y6225D02*
X6633Y6346D01*
Y5973D02*
Y6423D01*
X6463Y6319D02*
X6637Y6493D01*
X6493Y6277D02*
X6633Y6417D01*
X6519Y6160D02*
X6633Y6274D01*
X6518Y6198D02*
X6633Y6083D01*
Y6011D02*
X6672Y5973D01*
X6484Y6053D02*
X6633Y6202D01*
X6515Y6129D02*
X6633Y6011D01*
X6959Y5973D02*
X7192Y5740D01*
X6889D02*
X7122Y5973D01*
X6887Y5973D02*
X7120Y5740D01*
X6817D02*
X7050Y5973D01*
X6815D02*
X7048Y5740D01*
X6746D02*
X6978Y5973D01*
X6743D02*
X6976Y5740D01*
X6674D02*
X6907Y5973D01*
X6672D02*
X6904Y5740D01*
X6602D02*
X6835Y5973D01*
X6497Y6076D02*
X6833Y5740D01*
X6469Y6032D02*
X6761Y5740D01*
X6432Y5997D02*
X6689Y5740D01*
X6386D02*
X6633Y5986D01*
X6315Y5740D02*
X6633Y6058D01*
X6530Y5740D02*
X6763Y5973D01*
X6458Y5740D02*
X6691Y5973D01*
X6387Y5970D02*
X6617Y5740D01*
X6331Y5954D02*
X6545Y5740D01*
X6194Y11048D02*
X6410Y10832D01*
X6122Y11048D02*
X6345Y10825D01*
X6266Y11048D02*
X6514Y10800D01*
X5820Y10562D02*
X6307Y11048D01*
X5801Y10471D02*
X6379Y11048D01*
X6050D02*
X6294Y10804D01*
X5978Y11048D02*
X6253Y10773D01*
X5906Y11048D02*
X6220Y10734D01*
X5826Y10639D02*
X6235Y11048D01*
X5813Y10698D02*
X6163Y11048D01*
X5789Y10746D02*
X6091Y11048D01*
X5834D02*
X6193Y10690D01*
X5763Y11048D02*
X6147Y10664D01*
X5691Y11048D02*
X6110Y10629D01*
X5757Y10786D02*
X6019Y11048D01*
X5717Y10818D02*
X5948Y11048D01*
X5669Y10842D02*
X5876Y11048D01*
X5619D02*
X6081Y10586D01*
X5827Y10625D02*
X6073Y10379D01*
X5827Y10353D02*
X6522Y11048D01*
X5820Y10418D02*
X6451Y11048D01*
X5820Y10560D02*
X6073Y10307D01*
X5821Y10415D02*
X6073Y10163D01*
X5826Y10339D02*
X6073Y10091D01*
Y9963D02*
Y10413D01*
X5800Y10508D02*
X6073Y10235D01*
X5812Y10280D02*
X6073Y10020D01*
X5804Y10720D02*
X6061Y10463D01*
X5801Y10255D02*
X6060Y10514D01*
X5689Y9927D02*
X6073Y10312D01*
X5788Y10233D02*
X6067Y9954D01*
X5756Y10193D02*
X6042Y9907D01*
X5796Y9891D02*
X6073Y10168D01*
X5748Y9915D02*
X6073Y10240D01*
X5716Y10161D02*
X6029Y9848D01*
X5611Y10855D02*
X5804Y11048D01*
X5533Y10850D02*
X5732Y11048D01*
X5547D02*
X6063Y10533D01*
X4128Y11048D02*
X9640D01*
X5475D02*
X5691Y10833D01*
X5403Y11048D02*
X5596Y10856D01*
X5332Y11048D02*
X5531Y10849D01*
X5153Y10613D02*
X5588Y11048D01*
X5153Y10541D02*
X5660Y11048D01*
X5260D02*
X5479Y10830D01*
X5188Y11048D02*
X5435Y10801D01*
X5145Y10676D02*
X5517Y11048D01*
X5116D02*
X5400Y10765D01*
X5124Y10727D02*
X5445Y11048D01*
X5094Y10769D02*
X5373Y11048D01*
X5044D02*
X5372Y10720D01*
X5153Y10469D02*
X5355Y10672D01*
X4972Y11048D02*
X5354Y10667D01*
X4829Y11048D02*
X5384Y10493D01*
X5153Y10437D02*
X5662Y9928D01*
X5607Y9918D02*
X6073Y10384D01*
X5153Y10365D02*
X5602Y9916D01*
X5044Y9426D02*
X6063Y10446D01*
X5153Y10293D02*
X5553Y9893D01*
X4621Y10179D02*
X6087Y8712D01*
X4580Y10147D02*
X6075Y8653D01*
X4128Y8582D02*
X5696Y10150D01*
X5153Y10325D02*
X5363Y10536D01*
X5153Y10509D02*
X5356Y10305D01*
X5149Y10656D02*
X5363Y10443D01*
X5153Y10253D02*
X5380Y10481D01*
X5153Y10222D02*
X5513Y9861D01*
X4898Y9712D02*
X5401Y10214D01*
X4887Y9773D02*
X5373Y10259D01*
X4885Y9627D02*
X5437Y10178D01*
X5887Y9775D02*
X6208Y9453D01*
X5898Y9691D02*
X6172Y9417D01*
X5836Y9859D02*
X6073Y10096D01*
X5608Y10125D02*
X6244Y9489D01*
X6267Y9611D02*
X6316Y9561D01*
X6187Y9619D02*
X6280Y9525D01*
X5997Y9243D02*
X6353Y9598D01*
X5887Y9631D02*
X6136Y9382D01*
X5864Y9582D02*
X6100Y9346D01*
X5889Y9768D02*
X6055Y9934D01*
X5899Y9706D02*
X6028Y9836D01*
X5882Y9618D02*
X6036Y9772D01*
X5867Y9818D02*
X6073Y10024D01*
X5667Y10138D02*
X6037Y9768D01*
X5832Y9543D02*
X6064Y9310D01*
X5791Y9511D02*
X6029Y9274D01*
X5742Y9488D02*
X5993Y9238D01*
X5681Y9478D02*
X5964Y9195D01*
X5595Y9492D02*
X5947Y9140D01*
X5997Y8842D02*
X6023Y8817D01*
X6099Y8772D02*
X6111Y8760D01*
X5898Y8628D02*
X6059Y8789D01*
X5891Y8693D02*
X6019Y8821D01*
X5874Y8532D02*
X6111Y8769D01*
X5946Y8966D02*
Y9119D01*
X5756Y8845D02*
X5946Y9035D01*
X5699Y8860D02*
X5946Y9107D01*
X5622Y8855D02*
X5965Y9198D01*
X5871Y8744D02*
X5984Y8857D01*
X5803Y8820D02*
X5946Y8963D01*
X5841Y8786D02*
X5958Y8903D01*
X5530Y10131D02*
X5746Y9916D01*
X5458Y9051D02*
X6088Y9680D01*
X5447Y9111D02*
X6057Y9721D01*
X4877Y10138D02*
X5946Y9069D01*
X5409Y9216D02*
X5670Y9478D01*
X5375Y9254D02*
X5608Y9488D01*
X5433Y9169D02*
X5759Y9495D01*
X5296Y9319D02*
X5518Y9541D01*
X5332Y9284D02*
X5558Y9510D01*
X5153Y10150D02*
X5482Y9821D01*
X5092Y10138D02*
X5459Y9771D01*
X5124Y9434D02*
X5459Y9769D01*
X5020Y10138D02*
X5449Y9710D01*
X4949Y10138D02*
X5463Y9624D01*
X5267Y9362D02*
X5485Y9580D01*
X5182Y9421D02*
X5449Y9688D01*
X5229Y9396D02*
X5461Y9628D01*
X5459Y8907D02*
X6174Y9623D01*
X5459Y8979D02*
X6126Y9647D01*
X4889Y9766D02*
X6083Y8572D01*
X4805Y10138D02*
X5946Y8997D01*
X4733Y10138D02*
X5953Y8919D01*
X5459Y8835D02*
X6234Y9610D01*
X5458Y9054D02*
X5652Y8860D01*
X5459Y8763D02*
X6316Y9620D01*
X5442Y9142D02*
X5730Y8854D01*
X4128Y8798D02*
X5480Y10150D01*
X5459Y8702D02*
Y9042D01*
X4128Y8726D02*
X5533Y10131D01*
X4128Y8654D02*
X5598Y10125D01*
X5459Y8982D02*
X5594Y8846D01*
X5459Y8910D02*
X5547Y8822D01*
X5459Y8838D02*
X5508Y8788D01*
X5459Y8766D02*
X5478Y8747D01*
X5008Y10827D02*
X5229Y11048D01*
X4950Y10841D02*
X5157Y11048D01*
X5055Y10803D02*
X5301Y11048D01*
X4872Y10835D02*
X5086Y11048D01*
X4901D02*
X5350Y10599D01*
X4757Y11048D02*
X4966Y10839D01*
X4655Y10762D02*
X4942Y11048D01*
X4680Y10715D02*
X5014Y11048D01*
X4685D02*
X4894Y10840D01*
X4613Y11048D02*
X4838Y10824D01*
X4622Y10801D02*
X4870Y11048D01*
X4582Y10832D02*
X4798Y11048D01*
X4541D02*
X4793Y10797D01*
X4691Y10683D02*
X4708Y10666D01*
X4696Y10659D02*
X4709Y10672D01*
X4689Y10542D02*
X4703Y10528D01*
X4534Y10856D02*
X4726Y11048D01*
X5153Y10397D02*
X5350Y10595D01*
X5153Y10581D02*
X5350Y10383D01*
X5153Y10138D02*
Y10588D01*
Y10182D02*
X5350Y10379D01*
X5109Y10138D02*
X5153Y10182D01*
X4865Y9822D02*
X5355Y10312D01*
X4703Y10169D02*
X4733Y10138D01*
X4668Y10487D02*
X4703Y10522D01*
X4689Y10437D02*
X4703Y10450D01*
Y10138D02*
Y10588D01*
X4667Y10492D02*
X4703Y10456D01*
X4696Y10319D02*
X4703Y10312D01*
X4690Y10294D02*
X4703Y10306D01*
X4680Y10263D02*
X4703Y10241D01*
X4654Y10217D02*
X4703Y10169D01*
X4469Y11048D02*
X4756Y10762D01*
X4476Y10870D02*
X4654Y11048D01*
X4398D02*
X4727Y10719D01*
X4403Y10869D02*
X4583Y11048D01*
X4326D02*
X4511Y10864D01*
X4254Y11048D02*
X4431Y10872D01*
X4182Y11048D02*
X4370Y10861D01*
X4128Y10665D02*
X4511Y11048D01*
X4128Y10809D02*
X4367Y11048D01*
X4128Y10737D02*
X4439Y11048D01*
X4128Y10953D02*
X4223Y11048D01*
X4128Y11025D02*
X4152Y11048D01*
X4128Y10881D02*
X4295Y11048D01*
X4128Y11031D02*
X4319Y10839D01*
X4128Y10959D02*
X4277Y10809D01*
X4128Y10887D02*
X4243Y10772D01*
X4128Y10815D02*
X4215Y10728D01*
X4128Y10744D02*
X4197Y10675D01*
X4128Y10672D02*
X4190Y10609D01*
X4128Y10594D02*
X4193Y10659D01*
X4128Y10312D02*
X4550Y9891D01*
X4128Y10241D02*
X4511Y9858D01*
X4128Y10163D02*
X4216Y10251D01*
X4128Y9660D02*
X4703Y10234D01*
X4128Y10091D02*
X4244Y10207D01*
X4128Y9588D02*
X4703Y10163D01*
X4128Y10600D02*
X4210Y10517D01*
X4128Y10522D02*
X4192Y10586D01*
X4128Y10528D02*
X4205Y10450D01*
X4128Y10450D02*
X4206Y10528D01*
X4128Y10378D02*
X4209Y10459D01*
X4128Y10456D02*
X4192Y10392D01*
X4128Y10384D02*
X4194Y10318D01*
X4128Y10306D02*
X4190Y10368D01*
X4128Y10234D02*
X4197Y10304D01*
X4833Y9862D02*
X5109Y10138D01*
X4793Y9894D02*
X5037Y10138D01*
X4898Y9686D02*
X5154Y9430D01*
X4703Y10138D02*
X5153D01*
X4744Y9917D02*
X4966Y10138D01*
X4885Y9627D02*
X5079Y9434D01*
X4861Y9579D02*
X5022Y9418D01*
X4829Y9540D02*
X4976Y9392D01*
X4683Y9928D02*
X4894Y10138D01*
X4599Y9915D02*
X4822Y10138D01*
X4532Y10124D02*
X4737Y9919D01*
X4788Y9509D02*
X4940Y9357D01*
X4738Y9487D02*
X4912Y9313D01*
X4675Y9478D02*
X4873Y9280D01*
X5096Y8913D02*
X5108Y8901D01*
X5048Y8890D02*
X5108Y8830D01*
X4901Y8893D02*
X5108Y8686D01*
X4890Y8698D02*
X5108Y8915D01*
X4987Y8878D02*
X5108Y8758D01*
X4899Y8634D02*
X5108Y8844D01*
X4893Y8685D02*
X5108Y8470D01*
X4869Y8748D02*
X5000Y8879D01*
X4878Y8542D02*
X5108Y8772D01*
X4752Y8847D02*
X4837Y8932D01*
X4693Y8860D02*
X4803Y8969D01*
X4799Y8823D02*
X4879Y8902D01*
X4585Y9496D02*
X4831Y9250D01*
X4614Y8853D02*
X4778Y9016D01*
X4838Y8789D02*
X4932Y8883D01*
X4474Y10110D02*
X4657Y9927D01*
X4400Y10112D02*
X4598Y9915D01*
X4128Y10169D02*
X4480Y9817D01*
X4128Y9731D02*
X4514Y10118D01*
X4128Y9516D02*
X4750Y10138D01*
X4128Y9881D02*
X4798Y9211D01*
X4128Y9810D02*
X4775Y9162D01*
X4128Y9229D02*
X4483Y9584D01*
X4128Y9157D02*
X4515Y9544D01*
X4128Y9947D02*
X4321Y10140D01*
X4128Y10019D02*
X4279Y10170D01*
X4128Y9875D02*
X4372Y10119D01*
X4128Y9803D02*
X4433Y10108D01*
X4128Y10097D02*
X4458Y9767D01*
X4128Y9953D02*
X4467Y9614D01*
X4128Y10025D02*
X4449Y9704D01*
X4128Y9444D02*
X4461Y9778D01*
X4128Y9372D02*
X4449Y9693D01*
X4128Y9300D02*
X4460Y9632D01*
X4128Y9666D02*
X4778Y9016D01*
X4128Y9738D02*
X4764Y9102D01*
X4128Y9594D02*
X5108Y8614D01*
X4128Y8869D02*
X4749Y9491D01*
X4128Y9522D02*
X5108Y8542D01*
X4128Y9450D02*
X4723Y8856D01*
X4128Y8941D02*
X4665Y9478D01*
X4128Y9379D02*
X4647Y8859D01*
X4128Y8510D02*
X4772Y9155D01*
X4128Y9013D02*
X4604Y9489D01*
X4128Y9085D02*
X4555Y9512D01*
X4128Y9307D02*
X4590Y8845D01*
X4128Y9235D02*
X4543Y8819D01*
X4128Y9163D02*
X4505Y8785D01*
X4128Y9091D02*
X4476Y8743D01*
X4128Y9019D02*
X4456Y8692D01*
X4128Y8947D02*
X4449Y8626D01*
X4128Y8876D02*
X4477Y8526D01*
X6236Y8420D02*
X6277Y8379D01*
X6078Y8377D02*
X6160Y8459D01*
X6134Y8361D02*
X6205Y8432D01*
X5891Y8693D02*
X6219Y8365D01*
X6316Y8412D02*
X6355Y8373D01*
X6296Y8380D02*
X6330Y8413D01*
X6203Y8358D02*
X6259Y8415D01*
X5874Y8460D02*
X6076Y8662D01*
X5884Y8556D02*
X6061Y8379D01*
X5906Y8349D02*
X6096Y8539D01*
X5874Y8417D02*
Y8533D01*
X5871Y8386D02*
X6078Y8593D01*
X6005Y8376D02*
X6124Y8495D01*
X5874Y8495D02*
X5995Y8374D01*
X5874Y8423D02*
X5942Y8355D01*
X6098Y6386D02*
X6776Y7063D01*
X5898Y8615D02*
X6169Y8343D01*
X6150Y6366D02*
X6751Y6966D01*
X6241Y6384D02*
X6758Y6902D01*
X6186Y6746D02*
X6633Y6299D01*
X5816Y6391D02*
X6177Y6751D01*
X5381Y7191D02*
X5579Y6993D01*
X5381Y7177D02*
X5404Y7200D01*
X5381Y6814D02*
Y7211D01*
Y7105D02*
X5440Y7164D01*
X5381Y7034D02*
X5476Y7128D01*
X5508Y6730D02*
X5601Y6823D01*
X5474Y6767D02*
X5580Y6873D01*
X5534Y6683D02*
X5632Y6782D01*
X5381Y7119D02*
X5571Y6929D01*
X5431Y6796D02*
X5571Y6936D01*
X5093Y7480D02*
X5362Y7211D01*
X5055D02*
X5225Y7380D01*
X4983Y7211D02*
X5189Y7416D01*
X4966Y7534D02*
X5290Y7211D01*
X4917Y7512D02*
X5218Y7211D01*
X5343D02*
X5368Y7236D01*
X5271Y7211D02*
X5332Y7272D01*
X5199Y7211D02*
X5296Y7308D01*
X5127Y7211D02*
X5260Y7344D01*
X4931Y7211D02*
X5381D01*
X4897Y8609D02*
X5108Y8399D01*
X4882Y8552D02*
X5108Y8327D01*
X4857Y8506D02*
X5108Y8255D01*
X4823Y8468D02*
X5108Y8183D01*
X4781Y8438D02*
X5108Y8111D01*
X4729Y8418D02*
X5108Y8039D01*
X4855Y7502D02*
X5146Y7211D01*
X5381Y6962D02*
X5512Y7092D01*
X5381Y6962D02*
X5512Y7092D01*
X5381Y6890D02*
X5548Y7057D01*
X5159Y7445D02*
X5587Y7017D01*
X5381Y7047D02*
X5596Y6833D01*
X5381Y6976D02*
X5976Y6381D01*
X5381Y6818D02*
X5584Y7021D01*
X5381Y6904D02*
X5927Y6358D01*
X5381Y6832D02*
X5407Y6806D01*
X5362Y7211D02*
X5381Y7191D01*
X5040Y6621D02*
X5180Y6761D01*
X4879Y7178D02*
X5153Y7452D01*
X4973Y6761D02*
X5187D01*
X5165D02*
X5176Y6750D01*
X5093Y6761D02*
X5146Y6708D01*
X5021Y6761D02*
X5112Y6670D01*
X5040Y6621D02*
X5180Y6761D01*
X6033Y6392D02*
X6365Y6724D01*
X5996Y6720D02*
X6325Y6391D01*
X6129Y6731D02*
X6633Y6227D01*
X5901Y6743D02*
X6256Y6388D01*
X5873Y6376D02*
X6224Y6727D01*
X6289Y6714D02*
X6633Y6370D01*
X5926Y6357D02*
X6284Y6715D01*
X6072Y6716D02*
X6633Y6155D01*
X5786Y6714D02*
X6122Y6378D01*
X5690Y6739D02*
X6037Y6392D01*
X5850Y6722D02*
X6203Y6370D01*
X5548Y6626D02*
X5672Y6749D01*
X5549Y6339D02*
X5947Y6737D01*
X5739Y6386D02*
X6069Y6715D01*
X5549Y6593D02*
X5753Y6389D01*
X5547Y6379D02*
X5618Y6308D01*
X5545Y6309D02*
X5591Y6263D01*
X6243Y5740D02*
X6633Y6130D01*
X6171Y5740D02*
X6418Y5987D01*
X6158Y5983D02*
X6401Y5740D01*
X5955D02*
X6194Y5979D01*
X5954Y5972D02*
X6186Y5740D01*
X6257Y5956D02*
X6473Y5740D01*
X6108Y5961D02*
X6330Y5740D01*
X6099D02*
X6312Y5953D01*
X6045Y5952D02*
X6258Y5740D01*
X6027D02*
X6246Y5959D01*
X5882Y5972D02*
X6114Y5740D01*
X5884D02*
X6104Y5960D01*
X5668Y5740D02*
X5920Y5992D01*
X5827Y5955D02*
X6042Y5740D01*
X5812D02*
X6025Y5953D01*
X5755Y5955D02*
X5970Y5740D01*
X5740D02*
X5967Y5967D01*
X5596Y5740D02*
X5809Y5953D01*
X5542Y6404D02*
X5865Y6727D01*
X5541Y6547D02*
X5720Y6726D01*
X5536Y6677D02*
X5823Y6390D01*
X5521Y6455D02*
X5781Y6714D01*
X5514Y6232D02*
X6000Y6719D01*
X5524Y5740D02*
X5742Y5958D01*
X5537Y6533D02*
X5698Y6371D01*
X5462Y6177D02*
X5899Y5740D01*
X5452D02*
X5690Y5977D01*
X5416Y6151D02*
X5827Y5740D01*
X5513Y6485D02*
X5654Y6344D01*
X5527Y6255D02*
X5574Y6208D01*
X5499Y6212D02*
X5574Y6136D01*
X5178Y6175D02*
X5210D01*
X5102Y6099D02*
X5178Y6175D01*
X5358Y6136D02*
X5755Y5740D01*
X5281Y6142D02*
X5683Y5740D01*
X5177Y6174D02*
X5611Y5740D01*
X5165D02*
X5573Y6147D01*
X5093Y5740D02*
X5577Y6224D01*
X5381Y5740D02*
X5647Y6006D01*
X5309Y5740D02*
X5613Y6044D01*
X5237Y5740D02*
X5587Y6090D01*
X5141Y6138D02*
X5539Y5740D01*
X4128D02*
X9640D01*
X5105Y6102D02*
X5468Y5740D01*
X5021D02*
X5452Y6170D01*
X4950Y5740D02*
X5345Y6135D01*
X4878Y5740D02*
X5280Y6142D01*
X4806Y5740D02*
X5229Y6163D01*
X5065Y6070D02*
X5396Y5740D01*
X5013Y6051D02*
X5324Y5740D01*
X4944Y6048D02*
X5252Y5740D01*
X4872Y6048D02*
X5180Y5740D01*
X4664Y8411D02*
X5108Y7967D01*
Y7915D02*
Y8918D01*
X4761Y7922D02*
X5108Y8269D01*
X4514Y7819D02*
X5108Y8413D01*
X4435Y7811D02*
X5108Y8484D01*
X4965Y7910D02*
X5108Y8053D01*
X5005Y7879D02*
X5108Y7981D01*
X4852Y7942D02*
X5108Y8197D01*
X4915Y7932D02*
X5108Y8125D01*
X4564Y8440D02*
X5092Y7911D01*
X4573Y7806D02*
X5108Y8341D01*
X4128Y8438D02*
X4764Y9075D01*
X4128Y8804D02*
X5042Y7890D01*
X4621Y7782D02*
X4651Y7812D01*
X4721Y7235D02*
X5010Y7525D01*
X4721Y7307D02*
X4930Y7516D01*
X4766Y7519D02*
X5074Y7211D01*
X4718Y7376D02*
X4844Y7502D01*
X4704Y7509D02*
X5003Y7211D01*
X4804Y7174D02*
X5106Y7476D01*
X4721Y7349D02*
X4894Y7175D01*
X4721Y7163D02*
X5053Y7496D01*
X4694Y7448D02*
X4931Y7210D01*
X4721Y7277D02*
X4820Y7177D01*
X4701Y7503D02*
X4734Y7536D01*
X4702Y7432D02*
X4783Y7513D01*
X4128Y5740D02*
Y11048D01*
X4721Y7137D02*
Y7312D01*
X4271Y6862D02*
Y7312D01*
X4128Y8732D02*
X4934Y7925D01*
X4128Y8660D02*
X4846Y7942D01*
X4128Y8588D02*
X4785Y7931D01*
X4128Y8516D02*
X4736Y7909D01*
X4128Y8445D02*
X4696Y7877D01*
X4128Y7864D02*
X4675Y8411D01*
X4128Y7935D02*
X4612Y8420D01*
X4128Y7792D02*
X4768Y8432D01*
X4128Y8373D02*
X4664Y7837D01*
X4128Y8301D02*
X4641Y7787D01*
X4128Y8366D02*
X4457Y8695D01*
X4128Y8295D02*
X4449Y8616D01*
X4128Y8223D02*
X4463Y8558D01*
X4128Y8151D02*
X4487Y8510D01*
X4128Y8079D02*
X4520Y8471D01*
X4128Y8007D02*
X4561Y8441D01*
X4128Y8157D02*
X4467Y7818D01*
X4128Y8229D02*
X4542Y7815D01*
X4128Y8085D02*
X4410Y7803D01*
X4128Y8014D02*
X4364Y7777D01*
X4128Y7720D02*
X5108Y8700D01*
X4128Y7648D02*
X5108Y8628D01*
X4128Y7576D02*
X5108Y8556D01*
X4128Y7942D02*
X4327Y7743D01*
X4128Y7870D02*
X4297Y7700D01*
X4128Y7654D02*
X4302Y7480D01*
X4128Y7504D02*
X4279Y7656D01*
X4128Y7582D02*
X4287Y7424D01*
X4128Y7361D02*
X4284Y7517D01*
X4128Y7289D02*
X4309Y7470D01*
X4128Y7798D02*
X4277Y7648D01*
X4128Y7726D02*
X4271Y7583D01*
X4128Y7433D02*
X4272Y7576D01*
X4128Y7511D02*
X4272Y7366D01*
X4128Y7439D02*
X4271Y7296D01*
X4128Y7367D02*
X4271Y7224D01*
X4128Y7217D02*
X4272Y7361D01*
X4128Y7295D02*
X4271Y7152D01*
X4128Y7145D02*
X4271Y7288D01*
X4931Y7165D02*
Y7211D01*
X4721Y7205D02*
X4764Y7162D01*
X5027Y6680D02*
X5108Y6761D01*
X5003Y6727D02*
X5036Y6761D01*
X5025Y6685D02*
X5069Y6642D01*
X4671Y6753D02*
Y6833D01*
X4271Y6862D02*
X4320D01*
Y6401D02*
Y6862D01*
X4128Y7223D02*
X4271Y7080D01*
X4274Y6862D02*
X4320Y6815D01*
X4671Y6824D02*
X4710Y6785D01*
X4671Y6755D02*
X4709Y6792D01*
X4801Y6048D02*
X5108Y5740D01*
X4734D02*
X5064Y6070D01*
X4729Y6048D02*
X5036Y5740D01*
X4674Y6048D02*
X4978D01*
X4662Y5740D02*
X4970Y6048D01*
X4656Y6048D02*
X4965Y5740D01*
X4590D02*
X4898Y6048D01*
X4519Y5740D02*
X4826Y6048D01*
X4372Y6277D02*
X4550Y6099D01*
X4159Y5740D02*
X4534Y6115D01*
X4159Y5740D02*
X4534Y6115D01*
X4447Y5740D02*
X4754Y6048D01*
X4375Y5740D02*
X4683Y6048D01*
X4303Y5740D02*
X4619Y6056D01*
X4231Y5740D02*
X4572Y6080D01*
X4128Y6936D02*
X4320Y6743D01*
X4128Y6864D02*
X4320Y6671D01*
X4128Y6642D02*
X4320Y6835D01*
X4128Y6792D02*
X4320Y6600D01*
X4128Y6570D02*
X4320Y6763D01*
X4128Y6720D02*
X4320Y6528D01*
X4128Y6499D02*
X4320Y6691D01*
X4128Y6649D02*
X4320Y6456D01*
X4128Y6427D02*
X4320Y6619D01*
X4128Y6577D02*
X4321Y6383D01*
X4128Y7073D02*
X4271Y7216D01*
X4128Y7151D02*
X4271Y7008D01*
X4128Y7001D02*
X4271Y7144D01*
X4128Y7080D02*
X4271Y6937D01*
X4128Y6930D02*
X4271Y7073D01*
X4128Y7008D02*
X4271Y6865D01*
X4128Y6858D02*
X4271Y7001D01*
X4128Y6786D02*
X4271Y6929D01*
X4128Y6714D02*
X4275Y6862D01*
X4128Y6355D02*
X4320Y6548D01*
X4128Y6505D02*
X4893Y5740D01*
X4128Y6433D02*
X4821Y5740D01*
X4128Y6361D02*
X4749Y5740D01*
X4128Y6289D02*
X4677Y5740D01*
X4128Y6217D02*
X4605Y5740D01*
X4128Y5852D02*
X4462Y6186D01*
X4128Y5924D02*
X4426Y6222D01*
X4128Y6146D02*
X4534Y5740D01*
X4128Y5780D02*
X4498Y6150D01*
X4128Y6074D02*
X4462Y5740D01*
X4128Y6283D02*
X4320Y6476D01*
X4128Y6211D02*
X4320Y6404D01*
X4128Y6139D02*
X4331Y6342D01*
X4128Y6068D02*
X4356Y6295D01*
X4128Y5996D02*
X4390Y6258D01*
X4128Y6002D02*
X4390Y5740D01*
X4128Y5930D02*
X4318Y5740D01*
X4128Y5858D02*
X4246Y5740D01*
X4128Y5786D02*
X4174Y5740D01*
X7315Y7366D02*
Y7417D01*
X5512Y7849D02*
X7544D01*
X7823Y8128D01*
X6918Y7814D02*
X7315Y7417D01*
X5674Y8417D02*
Y8636D01*
X5512Y7849D02*
Y8255D01*
X5674Y8417D01*
D11*
X8941Y9703D02*
Y9878D01*
X8766Y9703D02*
X8941D01*
X6401Y10617D02*
Y10782D01*
Y10617D02*
X6566D01*
X7925Y8636D02*
Y8811D01*
X7750Y8636D02*
X7925D01*
X6299D02*
X6474D01*
X6299Y8461D02*
Y8636D01*
X7976Y6960D02*
X8151D01*
X7801D02*
X7976D01*
X7315Y8128D02*
Y8330D01*
X7976Y6785D02*
Y6960D01*
X7874Y6198D02*
X8049D01*
X7874Y6023D02*
Y6198D01*
X5588Y10363D02*
X5777D01*
X5399D02*
X5588D01*
Y10174D02*
Y10363D01*
X6124Y8636D02*
X6299D01*
X4928Y10363D02*
X5103D01*
X4928Y10188D02*
Y10363D01*
X4753D02*
X4928D01*
X4445D02*
X4650D01*
X4240D02*
X4445D01*
Y10158D02*
Y10363D01*
X5105Y9220D02*
Y9385D01*
X4674Y9703D02*
Y9878D01*
Y9703D02*
X4849D01*
X4674Y9528D02*
Y9703D01*
X4499D02*
X4674D01*
Y8636D02*
Y8811D01*
Y8636D02*
X4849D01*
X4674Y8461D02*
Y8636D01*
X4499D02*
X4674D01*
X5334Y6604D02*
X5499D01*
X4496Y7595D02*
Y7770D01*
X4321Y7595D02*
X4496D01*
X4826Y6604D02*
X4991D01*
D12*
X5283Y7569D02*
X5740Y7112D01*
X5867D01*
X6045Y6934D01*
X5232Y9093D02*
X5283Y9042D01*
X4826Y6604D02*
X5334D01*
X4826D02*
Y6680D01*
X4496Y7595D02*
X4724Y7367D01*
Y6782D02*
Y7367D01*
Y6782D02*
X4826Y6680D01*
X5105Y6350D02*
X5334D01*
X4496Y6401D02*
Y7087D01*
Y6401D02*
X4674Y6223D01*
X4978D01*
X5105Y6350D01*
X6248Y10465D02*
X6274Y10490D01*
X6248Y9830D02*
Y10465D01*
X8509Y10490D02*
X8712D01*
X8534Y9830D02*
Y10211D01*
X8407Y10389D02*
X8509Y10490D01*
X8407Y10338D02*
Y10389D01*
Y10338D02*
X8534Y10211D01*
X8941Y9703D02*
Y10541D01*
X8585Y10363D02*
X8941Y10008D01*
X6401Y10617D02*
X6528Y10744D01*
X6096Y10617D02*
X6401D01*
X6528Y10744D02*
X8738D01*
X8941Y10541D01*
X7976Y6985D02*
X8103Y6858D01*
X4648Y8661D02*
X5156Y8153D01*
Y7315D02*
Y8153D01*
X7874Y6198D02*
X8026D01*
X7747Y6071D02*
X7874Y6198D01*
X6655Y6071D02*
X7747D01*
X6299Y6426D02*
X6655Y6071D01*
X6045Y6426D02*
X6299D01*
X5156Y7315D02*
X6045Y6426D01*
X5283Y7569D02*
Y9042D01*
X7798Y6960D02*
X7976D01*
X7569Y7188D02*
Y7366D01*
X8103Y6274D02*
Y6858D01*
X8026Y6198D02*
X8103Y6274D01*
X7366Y6960D02*
X7874Y6452D01*
X6976Y6960D02*
X7366D01*
X6976D02*
X7315Y7299D01*
Y7366D01*
X7569Y7188D02*
X7798Y6960D01*
X4674Y9703D02*
X5029D01*
X5588Y10008D02*
Y10363D01*
X6096Y8636D02*
X6299D01*
X4674Y9703D02*
X4902Y9931D01*
X4699Y9703D02*
X5105Y9296D01*
X4648Y8661D02*
Y9703D01*
X5029D02*
X6096Y8636D01*
X6883Y7849D02*
X6918Y7814D01*
X7823Y8103D02*
Y8230D01*
X7772Y8128D02*
Y8179D01*
Y8128D02*
X7823D01*
X5105Y9220D02*
Y9296D01*
X5588Y10363D02*
X5613Y10389D01*
X4902Y9931D02*
X5512D01*
X5588Y10008D01*
X5613Y10389D02*
X5867D01*
X6096Y10617D01*
X6401Y10363D02*
X7010D01*
X9068Y9322D02*
X9195Y9195D01*
X7239Y9068D02*
X7264D01*
X8763Y9322D02*
X9068D01*
X8611Y9474D02*
X8763Y9322D01*
X6477Y9474D02*
X8611D01*
X6121Y9119D02*
X6477Y9474D01*
X6121Y8966D02*
Y9119D01*
Y8966D02*
X6147Y8941D01*
X7112D01*
X7239Y9068D01*
X9093Y7315D02*
Y7366D01*
X8280Y9068D02*
X8534Y8814D01*
X8992D01*
X9093Y8712D01*
Y8585D02*
Y8712D01*
X8966Y8458D02*
X9093Y8585D01*
X8966Y7950D02*
Y8458D01*
X8839Y7823D02*
X8966Y7950D01*
X7874Y7823D02*
X8839D01*
X7696Y7645D02*
X7874Y7823D01*
X7696Y7290D02*
Y7645D01*
Y7290D02*
X7772Y7214D01*
X8992D01*
X9093Y7315D01*
X9246Y7976D02*
Y8814D01*
X8534Y9246D02*
X8859Y8921D01*
X6934Y9246D02*
X8534D01*
X6756Y9068D02*
X6934Y9246D01*
X7823Y7366D02*
Y7569D01*
X8859Y8921D02*
X9139D01*
X9246Y8814D01*
X9322Y7952D02*
Y8865D01*
X8560Y9347D02*
X8915Y8992D01*
X6782Y9347D02*
X8560D01*
X6502Y9068D02*
X6782Y9347D01*
X8077Y7366D02*
Y7518D01*
X8915Y8992D02*
X9195D01*
X9322Y8865D01*
X8255Y8661D02*
X8899D01*
X7823Y8230D02*
X8255Y8661D01*
X7671Y8636D02*
X7925D01*
X7315Y8128D02*
Y8280D01*
X7671Y8636D01*
X8990Y7620D02*
X9322Y7952D01*
X8179Y7620D02*
X8990D01*
X8992Y7722D02*
X9246Y7976D01*
X7976Y7722D02*
X8992D01*
X7823Y7569D02*
X7976Y7722D01*
X8077Y7518D02*
X8179Y7620D01*
X5131Y7595D02*
X5156Y7620D01*
X4496Y7595D02*
X5131D01*
D14*
X4445Y10363D02*
D03*
Y10617D02*
D03*
D15*
X5674Y9703D02*
D03*
X4674D02*
D03*
X5674Y8636D02*
D03*
X4674D02*
D03*
X6976Y6960D02*
D03*
X7976D02*
D03*
X7299Y8636D02*
D03*
X6299D02*
D03*
X8925D02*
D03*
X7925D02*
D03*
X8026Y10363D02*
D03*
X7772Y10617D02*
D03*
Y10363D02*
D03*
X7518Y10617D02*
D03*
Y10363D02*
D03*
X7264Y10617D02*
D03*
Y10363D02*
D03*
X7010Y10617D02*
D03*
Y10363D02*
D03*
X4928Y10617D02*
D03*
X8941Y9703D02*
D03*
X9195D02*
D03*
X8941Y9449D02*
D03*
X9195D02*
D03*
X8941Y9195D02*
D03*
X7874Y6452D02*
D03*
Y6198D02*
D03*
X7620Y6452D02*
D03*
Y6198D02*
D03*
X7366Y6452D02*
D03*
Y6198D02*
D03*
X7112Y6452D02*
D03*
Y6198D02*
D03*
X6858Y6452D02*
D03*
X4496Y7341D02*
D03*
Y7595D02*
D03*
X5156Y7696D02*
D03*
D16*
X8585Y10363D02*
D03*
Y10617D02*
D03*
X8712Y10490D02*
D03*
X6274D02*
D03*
X6401Y10363D02*
D03*
Y10617D02*
D03*
X5207Y6477D02*
D03*
X5334Y6350D02*
D03*
Y6604D02*
D03*
X4826D02*
D03*
Y6350D02*
D03*
X4699Y6477D02*
D03*
X5105Y9220D02*
D03*
X4978Y9093D02*
D03*
X5232D02*
D03*
D17*
X8026Y10617D02*
D03*
X4928Y10363D02*
D03*
X9195Y9195D02*
D03*
X6858Y6198D02*
D03*
X4496Y7087D02*
D03*
X5156Y6986D02*
D03*
D18*
X8280Y9830D02*
D03*
Y9068D02*
D03*
X8534Y9830D02*
D03*
Y9068D02*
D03*
X8026Y9830D02*
D03*
Y9068D02*
D03*
X7772Y9830D02*
D03*
Y9068D02*
D03*
X7518Y9830D02*
D03*
Y9068D02*
D03*
X7264Y9830D02*
D03*
Y9068D02*
D03*
X7010Y9830D02*
D03*
Y9068D02*
D03*
X6756Y9830D02*
D03*
Y9068D02*
D03*
X6502Y9830D02*
D03*
Y9068D02*
D03*
X6248Y9830D02*
D03*
Y9068D02*
D03*
X6045Y6934D02*
D03*
Y6172D02*
D03*
X5791Y6934D02*
D03*
Y6172D02*
D03*
X6299Y6934D02*
D03*
Y6172D02*
D03*
X4851Y7722D02*
D03*
Y6960D02*
D03*
D19*
X8585Y8128D02*
D03*
X6045Y7366D02*
D03*
X6299D02*
D03*
X6553D02*
D03*
X6807D02*
D03*
X7061D02*
D03*
X7315D02*
D03*
X7569D02*
D03*
X7823D02*
D03*
X8077D02*
D03*
X8331D02*
D03*
X8585D02*
D03*
X8839D02*
D03*
X9093D02*
D03*
X5791Y8128D02*
D03*
X6045D02*
D03*
X6299D02*
D03*
X6553D02*
D03*
X6807D02*
D03*
X7061D02*
D03*
X7315D02*
D03*
X7569D02*
D03*
X7823D02*
D03*
X8077D02*
D03*
X8331D02*
D03*
X8839D02*
D03*
X9093D02*
D03*
D20*
X5791Y7366D02*
D03*
D21*
X5588Y10617D02*
D03*
Y10363D02*
D03*
D22*
X9423Y6309D02*
X9377D01*
X9342Y6332D02*
Y6320D01*
X9353D01*
X9330D01*
X9342D01*
Y6285D01*
X9330Y6274D01*
X9295Y6344D02*
Y6274D01*
Y6309D01*
X9283Y6320D01*
X9260D01*
X9248Y6309D01*
Y6274D01*
X9190D02*
X9213D01*
X9225Y6285D01*
Y6309D01*
X9213Y6320D01*
X9190D01*
X9178Y6309D01*
Y6297D01*
X9225D01*
X9074Y6274D02*
Y6332D01*
Y6309D01*
X9085D01*
X9062D01*
X9074D01*
Y6332D01*
X9062Y6344D01*
X9015Y6320D02*
X8992D01*
X8980Y6309D01*
Y6274D01*
X9015D01*
X9027Y6285D01*
X9015Y6297D01*
X8980D01*
X8957Y6274D02*
Y6320D01*
X8945D01*
X8934Y6309D01*
Y6274D01*
Y6309D01*
X8922Y6320D01*
X8910Y6309D01*
Y6274D01*
X8887D02*
X8864D01*
X8875D01*
Y6320D01*
X8887D01*
X8829Y6274D02*
X8805D01*
X8817D01*
Y6344D01*
X8829D01*
X8770Y6274D02*
X8747D01*
X8759D01*
Y6320D01*
X8770D01*
X8712D02*
Y6285D01*
X8700Y6274D01*
X8665D01*
Y6262D01*
X8677Y6250D01*
X8689D01*
X8665Y6274D02*
Y6320D01*
X8572Y6274D02*
Y6320D01*
X8560D01*
X8549Y6309D01*
Y6274D01*
Y6309D01*
X8537Y6320D01*
X8525Y6309D01*
Y6274D01*
X8490Y6320D02*
X8467D01*
X8455Y6309D01*
Y6274D01*
X8490D01*
X8502Y6285D01*
X8490Y6297D01*
X8455D01*
X8432Y6274D02*
Y6320D01*
X8397D01*
X8385Y6309D01*
Y6274D01*
D23*
X9408Y6475D02*
X9441D01*
X9424D01*
Y6392D01*
X9441Y6375D01*
X9458D01*
X9474Y6392D01*
X9374Y6375D02*
Y6392D01*
X9358D01*
Y6375D01*
X9374D01*
X9291Y6475D02*
Y6375D01*
Y6425D01*
X9224D01*
Y6475D01*
Y6375D01*
X9191D02*
Y6392D01*
X9174D01*
Y6375D01*
X9191D01*
X9108D02*
Y6475D01*
X9041Y6375D01*
Y6475D01*
X9008Y6375D02*
X8974D01*
X8991D01*
Y6442D01*
X9008D01*
X8924Y6375D02*
X8874D01*
X8858Y6392D01*
X8874Y6409D01*
X8908D01*
X8924Y6425D01*
X8908Y6442D01*
X8858D01*
X8808Y6459D02*
Y6442D01*
X8824D01*
X8791D01*
X8808D01*
Y6392D01*
X8791Y6375D01*
X8724Y6442D02*
X8691D01*
X8674Y6425D01*
Y6375D01*
X8724D01*
X8741Y6392D01*
X8724Y6409D01*
X8674D01*
X8574Y6475D02*
Y6375D01*
X8624D01*
X8641Y6392D01*
Y6425D01*
X8624Y6442D01*
X8574D01*
X9474Y6528D02*
Y6628D01*
X9441Y6594D01*
X9408Y6628D01*
Y6528D01*
X9358Y6594D02*
X9324D01*
X9308Y6578D01*
Y6528D01*
X9358D01*
X9374Y6544D01*
X9358Y6561D01*
X9308D01*
X9208Y6628D02*
Y6528D01*
X9258D01*
X9274Y6544D01*
Y6578D01*
X9258Y6594D01*
X9208D01*
X9124Y6528D02*
X9158D01*
X9174Y6544D01*
Y6578D01*
X9158Y6594D01*
X9124D01*
X9108Y6578D01*
Y6561D01*
X9174D01*
X8974Y6628D02*
Y6528D01*
X8924D01*
X8908Y6544D01*
Y6561D01*
Y6578D01*
X8924Y6594D01*
X8974D01*
X8874D02*
Y6544D01*
X8858Y6528D01*
X8808D01*
Y6511D01*
X8824Y6494D01*
X8841D01*
X8808Y6528D02*
Y6594D01*
M02*
