%FSLAX42Y42*%
%MOMM*%
G71*
G01*
G75*
G04 Layer_Physical_Order=2*
%ADD10C,0.25*%
%ADD11C,0.51*%
%ADD12C,0.41*%
%ADD13C,1.40*%
%ADD14C,1.50*%
%ADD15R,1.50X1.50*%
%ADD16C,1.78*%
%ADD17O,1.00X2.00*%
%ADD18O,1.00X2.00*%
%ADD19C,1.20*%
%ADD20O,1.57X2.03*%
%ADD21R,1.57X2.03*%
%ADD22O,2.00X1.00*%
%ADD23O,2.00X1.00*%
D10*
X8937Y10579D02*
G03*
X8950Y10643I-150J63D01*
G01*
G03*
X8788Y10805I-163J0D01*
G01*
X8950Y10516D02*
G03*
X8937Y10579I-163J0D01*
G01*
X8937Y10452D02*
G03*
X8950Y10516I-150J63D01*
G01*
Y10389D02*
G03*
X8937Y10452I-163J0D01*
G01*
X8788Y10226D02*
G03*
X8950Y10389I0J163D01*
G01*
X8276Y10969D02*
G03*
X8179Y11009I-98J-98D01*
G01*
X8368Y10820D02*
G03*
X8327Y10918I-138J0D01*
G01*
X8368Y10820D02*
G03*
X8327Y10918I-138J0D01*
G01*
X8276Y10969D02*
G03*
X8179Y11009I-98J-98D01*
G01*
X8688Y10805D02*
G03*
X8538Y10579I0J-163D01*
G01*
G03*
X8538Y10452I150J-63D01*
G01*
G03*
X8688Y10226I150J-63D01*
G01*
X8327Y10164D02*
G03*
X8368Y10262I-98J98D01*
G01*
X8327Y10164D02*
G03*
X8368Y10262I-98J98D01*
G01*
X9230Y9601D02*
G03*
X8915Y9739I-188J0D01*
G01*
X9181Y9474D02*
G03*
X9230Y9601I-138J127D01*
G01*
X8915Y9739D02*
G03*
X8650Y9474I-127J-138D01*
G01*
X9230Y9347D02*
G03*
X9181Y9474I-188J0D01*
G01*
X9218Y9281D02*
G03*
X9230Y9347I-176J66D01*
G01*
X8650Y9474D02*
G03*
X8602Y9373I138J-127D01*
G01*
X9343Y8810D02*
G03*
X9246Y8850I-98J-98D01*
G01*
X9343Y8810D02*
G03*
X9246Y8850I-98J-98D01*
G01*
X8514Y9677D02*
G03*
X8230Y9829I-183J0D01*
G01*
G03*
X8063Y9848I-102J-152D01*
G01*
X8230Y9526D02*
G03*
X8514Y9677I102J152D01*
G01*
X8581Y9394D02*
G03*
X8484Y9435I-98J-98D01*
G01*
X8581Y9394D02*
G03*
X8484Y9435I-98J-98D01*
G01*
X8026Y9526D02*
G03*
X8230Y9526I102J152D01*
G01*
X8208Y8640D02*
G03*
X8177Y8622I73J-157D01*
G01*
X8026Y11009D02*
G03*
X7929Y10969I0J-138D01*
G01*
X8026Y11009D02*
G03*
X7929Y10969I0J-138D01*
G01*
X7899Y10225D02*
G03*
X7960Y10188I127J138D01*
G01*
X7645Y10225D02*
G03*
X7899Y10225I127J138D01*
G01*
X7765Y10805D02*
G03*
X7645Y10755I8J-188D01*
G01*
G03*
X7391Y10755I-127J-138D01*
G01*
Y10225D02*
G03*
X7645Y10225I127J138D01*
G01*
X7391Y10755D02*
G03*
X7137Y10755I-127J-138D01*
G01*
G03*
X6880Y10752I-127J-138D01*
G01*
G03*
X6811Y10715I29J-135D01*
G01*
X6880Y10752D02*
G03*
X6811Y10715I29J-135D01*
G01*
X6608Y10512D02*
G03*
X6567Y10414I98J-98D01*
G01*
X7137Y10225D02*
G03*
X7391Y10225I127J138D01*
G01*
X6844Y10277D02*
G03*
X7137Y10225I167J86D01*
G01*
X6608Y10512D02*
G03*
X6567Y10414I98J-98D01*
G01*
X7823Y9526D02*
G03*
X8026Y9526I102J152D01*
G01*
X7827Y10054D02*
G03*
X7787Y9957I98J-98D01*
G01*
X7827Y10054D02*
G03*
X7787Y9957I98J-98D01*
G01*
Y9848D02*
G03*
X7620Y9829I-65J-171D01*
G01*
G03*
X7417Y9829I-102J-152D01*
G01*
X7620Y9526D02*
G03*
X7823Y9526I102J152D01*
G01*
X7417Y9526D02*
G03*
X7620Y9526I102J152D01*
G01*
X8026Y8764D02*
G03*
X8115Y8733I102J152D01*
G01*
X7823Y8764D02*
G03*
X8026Y8764I102J152D01*
G01*
X7652Y8746D02*
G03*
X7823Y8764I69J169D01*
G01*
X7667Y8734D02*
G03*
X7652Y8746I-98J-98D01*
G01*
X7667Y8734D02*
G03*
X7652Y8746I-98J-98D01*
G01*
X7417Y9829D02*
G03*
X7214Y9829I-102J-152D01*
G01*
Y9526D02*
G03*
X7417Y9526I102J152D01*
G01*
X7214Y9829D02*
G03*
X7010Y9829I-102J-152D01*
G01*
Y9526D02*
G03*
X7214Y9526I102J152D01*
G01*
X7010Y9829D02*
G03*
X6844Y9848I-102J-152D01*
G01*
X6807Y9526D02*
G03*
X7010Y9526I102J152D01*
G01*
X6604Y9526D02*
G03*
X6807Y9526I102J152D01*
G01*
X6629Y9435D02*
G03*
X6532Y9394I0J-138D01*
G01*
X6629Y9435D02*
G03*
X6532Y9394I0J-138D01*
G01*
X9090Y8342D02*
G03*
X8966Y8294I3J-191D01*
G01*
Y7962D02*
G03*
X9008Y7934I127J143D01*
G01*
X9243Y7508D02*
G03*
X9178Y7560I-150J-119D01*
G01*
X8077Y8622D02*
G03*
X7980Y8581I0J-138D01*
G01*
X8077Y8622D02*
G03*
X7980Y8581I0J-138D01*
G01*
X8691Y8386D02*
G03*
X8788Y8346I98J98D01*
G01*
X8691Y8386D02*
G03*
X8788Y8346I98J98D01*
G01*
X7809Y8534D02*
G03*
X7768Y8632I-138J0D01*
G01*
X7809Y8534D02*
G03*
X7768Y8632I-138J0D01*
G01*
X8966Y8294D02*
G03*
X8712Y8294I-127J-143D01*
G01*
Y7962D02*
G03*
X8966Y7962I127J143D01*
G01*
X8712Y8294D02*
G03*
X8596Y8342I-127J-143D01*
G01*
X8582Y7914D02*
G03*
X8712Y7962I4J191D01*
G01*
X8177Y8346D02*
G03*
X8236Y8317I104J138D01*
G01*
G03*
X8204Y8294I95J-166D01*
G01*
G03*
X8125Y8336I-127J-143D01*
G01*
X8556Y7878D02*
G03*
X8582Y7914I-98J98D01*
G01*
X8556Y7878D02*
G03*
X8582Y7914I-98J98D01*
G01*
X8941Y6872D02*
G03*
X9038Y6913I0J138D01*
G01*
X8941Y6872D02*
G03*
X9038Y6913I0J138D01*
G01*
X7657Y6737D02*
G03*
X7840Y6872I14J172D01*
G01*
X7943Y6443D02*
G03*
X7921Y6473I-120J-68D01*
G01*
X7943Y6443D02*
G03*
X7921Y6473I-120J-68D01*
G01*
X8011Y6299D02*
G03*
X7943Y6443I-188J0D01*
G01*
X7961Y6172D02*
G03*
X8011Y6299I-138J127D01*
G01*
Y6045D02*
G03*
X7961Y6172I-188J0D01*
G01*
X7696Y5907D02*
G03*
X8011Y6045I127J138D01*
G01*
X7442Y5907D02*
G03*
X7696Y5907I127J138D01*
G01*
X7354Y8429D02*
G03*
X7474Y8317I164J54D01*
G01*
X7214Y8346D02*
G03*
X7311Y8386I0J138D01*
G01*
X7214Y8346D02*
G03*
X7311Y8386I0J138D01*
G01*
X7474Y8317D02*
G03*
X7442Y8294I95J-166D01*
G01*
G03*
X7188Y8294I-127J-143D01*
G01*
X7114Y8622D02*
G03*
X7056Y8650I-104J-138D01*
G01*
X7103Y8338D02*
G03*
X7114Y8346I-92J146D01*
G01*
X7558Y7580D02*
G03*
X7442Y7532I11J-191D01*
G01*
G03*
X7350Y7577I-127J-143D01*
G01*
X7188Y8294D02*
G03*
X7103Y8338I-127J-143D01*
G01*
X6965Y8650D02*
G03*
X6966Y8317I45J-167D01*
G01*
G03*
X6934Y8294I95J-166D01*
G01*
G03*
X6680Y8294I-127J-143D01*
G01*
X6976Y7560D02*
G03*
X6934Y7532I85J-172D01*
G01*
G03*
X6680Y7532I-127J-143D01*
G01*
X6934Y7200D02*
G03*
X7177Y7191I127J143D01*
G01*
X6680Y7200D02*
G03*
X6934Y7200I127J143D01*
G01*
X7529Y7008D02*
G03*
X7499Y6895I142J-99D01*
G01*
X7453Y7076D02*
G03*
X7461Y7076I14J137D01*
G01*
X7453Y7076D02*
G03*
X7461Y7076I14J137D01*
G01*
X7177Y6883D02*
G03*
X7218Y6786I138J0D01*
G01*
X7177Y6883D02*
G03*
X7218Y6786I138J0D01*
G01*
X7522Y6481D02*
G03*
X7442Y6437I47J-182D01*
G01*
G03*
X7188Y6437I-127J-138D01*
G01*
Y5907D02*
G03*
X7442Y5907I127J138D01*
G01*
X7082Y6909D02*
G03*
X7082Y6909I-173J0D01*
G01*
X7188Y6437D02*
G03*
X6934Y6437I-127J-138D01*
G01*
X6995Y5870D02*
G03*
X7188Y5907I66J176D01*
G01*
X6934Y6437D02*
G03*
X6632Y6233I-127J-138D01*
G01*
X6448Y10528D02*
G03*
X6461Y10592I-150J63D01*
G01*
G03*
X6298Y10754I-163J0D01*
G01*
X6461Y10465D02*
G03*
X6448Y10528I-163J0D01*
G01*
X6448Y10401D02*
G03*
X6461Y10465I-150J63D01*
G01*
X6198Y10754D02*
G03*
X6049Y10528I0J-163D01*
G01*
X6461Y10338D02*
G03*
X6448Y10401I-163J0D01*
G01*
X6298Y10175D02*
G03*
X6461Y10338I0J163D01*
G01*
X6567Y9848D02*
G03*
X6604Y9526I-65J-171D01*
G01*
X6049Y10401D02*
G03*
X6198Y10175I150J-63D01*
G01*
X6049Y10528D02*
G03*
X6049Y10401I150J-63D01*
G01*
X6354Y8691D02*
G03*
X6452Y8650I98J98D01*
G01*
X6354Y8691D02*
G03*
X6452Y8650I98J98D01*
G01*
X6252Y9115D02*
G03*
X6212Y9017I98J-98D01*
G01*
X6252Y9115D02*
G03*
X6212Y9017I98J-98D01*
G01*
Y8890D02*
G03*
X6252Y8792I138J0D01*
G01*
X6212Y8890D02*
G03*
X6252Y8792I138J0D01*
G01*
X6341Y8338D02*
G03*
X6421Y8484I-92J146D01*
G01*
G03*
X6204Y8317I-173J0D01*
G01*
X6680Y8294D02*
G03*
X6426Y8294I-127J-143D01*
G01*
G03*
X6341Y8338I-127J-143D01*
G01*
X6172Y8294D02*
G03*
X5918Y8294I-127J-143D01*
G01*
G03*
X5600Y8151I-127J-143D01*
G01*
X6204Y8317D02*
G03*
X6172Y8294I95J-166D01*
G01*
X5600Y8105D02*
G03*
X5641Y7987I191J0D01*
G01*
X5456Y9449D02*
G03*
X5456Y9449I-173J0D01*
G01*
X5421Y8228D02*
G03*
X5456Y8331I-138J104D01*
G01*
G03*
X5193Y8478I-173J0D01*
G01*
X5268Y10820D02*
G03*
X5014Y10996I-188J0D01*
G01*
Y10645D02*
G03*
X5268Y10820I66J176D01*
G01*
X5282Y10160D02*
G03*
X4953Y10317I-202J0D01*
G01*
Y10003D02*
G03*
X5282Y10160I127J157D01*
G01*
X4953Y10317D02*
G03*
X4953Y10003I-127J-157D01*
G01*
X4694Y9449D02*
G03*
X4694Y9449I-173J0D01*
G01*
X5193Y8754D02*
G03*
X5217Y8840I-138J86D01*
G01*
Y8940D02*
G03*
X4991Y9090I-163J0D01*
G01*
G03*
X4864Y9090I-63J-150D01*
G01*
G03*
X4638Y8940I-63J-150D01*
G01*
X4864Y8690D02*
G03*
X4917Y8678I63J150D01*
G01*
X4638Y8840D02*
G03*
X4864Y8690I163J0D01*
G01*
X4917Y7854D02*
G03*
X4730Y7787I-40J-183D01*
G01*
X4694Y8331D02*
G03*
X4694Y8331I-173J0D01*
G01*
X6680Y7532D02*
G03*
X6426Y7532I-127J-143D01*
G01*
G03*
X6172Y7532I-127J-143D01*
G01*
G03*
X5983Y7570I-127J-143D01*
G01*
X6426Y7200D02*
G03*
X6680Y7200I127J143D01*
G01*
X6172D02*
G03*
X6426Y7200I127J143D01*
G01*
X6533Y6934D02*
G03*
X6198Y7035I-183J0D01*
G01*
Y6833D02*
G03*
X6533Y6934I152J101D01*
G01*
X5989Y7160D02*
G03*
X6172Y7200I56J183D01*
G01*
X6198Y7035D02*
G03*
X6033Y7116I-152J-101D01*
G01*
X5918Y6803D02*
G03*
X6198Y6833I127J131D01*
G01*
X5414Y7751D02*
G03*
X5512Y7711I98J98D01*
G01*
X5414Y7751D02*
G03*
X5512Y7711I98J98D01*
G01*
X5632Y7025D02*
G03*
X5918Y6803I159J-90D01*
G01*
X5389Y7065D02*
G03*
X5486Y7025I98J98D01*
G01*
X5389Y7065D02*
G03*
X5486Y7025I98J98D01*
G01*
X6533Y6172D02*
G03*
X6198Y6273I-183J0D01*
G01*
G03*
X5918Y6304I-152J-101D01*
G01*
X6198Y6071D02*
G03*
X6533Y6172I152J101D01*
G01*
X5918Y6041D02*
G03*
X6198Y6071I127J131D01*
G01*
X5483Y6566D02*
G03*
X5496Y6629I-150J63D01*
G01*
G03*
X5333Y6792I-163J0D01*
G01*
X5496Y6502D02*
G03*
X5483Y6566I-163J0D01*
G01*
X5483Y6439D02*
G03*
X5496Y6502I-150J63D01*
G01*
X5496Y6375D02*
G03*
X5483Y6439I-163J0D01*
G01*
X5918Y6304D02*
G03*
X5918Y6041I-127J-131D01*
G01*
X5333Y6213D02*
G03*
X5496Y6375I0J163D01*
G01*
X4713Y7579D02*
G03*
X4955Y7499I164J91D01*
G01*
X4730Y7787D02*
G03*
X4713Y7579I-158J-91D01*
G01*
X4392Y7249D02*
G03*
X4404Y7315I-176J66D01*
G01*
X4689Y7074D02*
G03*
X4404Y7006I-117J-140D01*
G01*
X4400Y6874D02*
G03*
X4567Y6752I172J61D01*
G01*
X4355Y7442D02*
G03*
X4404Y7569I-138J127D01*
G01*
G03*
X4078Y7442I-188J0D01*
G01*
X4404Y7315D02*
G03*
X4355Y7442I-188J0D01*
G01*
X4078D02*
G03*
X4041Y7249I138J-127D01*
G01*
X5233Y6792D02*
G03*
X5083Y6566I0J-163D01*
G01*
G03*
X5081Y6445I150J-63D01*
G01*
X4924Y6566D02*
G03*
X4937Y6629I-150J63D01*
G01*
G03*
X4852Y6772I-163J0D01*
G01*
X4937Y6502D02*
G03*
X4924Y6566I-163J0D01*
G01*
X4924Y6439D02*
G03*
X4937Y6502I-150J63D01*
G01*
X4937Y6375D02*
G03*
X4924Y6439I-163J0D01*
G01*
X5055Y6085D02*
G03*
X5152Y6125I0J138D01*
G01*
X5055Y6085D02*
G03*
X5152Y6125I0J138D01*
G01*
X4936Y6361D02*
G03*
X4937Y6375I-162J14D01*
G01*
X4567Y6752D02*
G03*
X4525Y6566I107J-122D01*
G01*
G03*
X4514Y6527I150J-63D01*
G01*
X4078Y6629D02*
G03*
X4119Y6532I138J0D01*
G01*
X4078Y6629D02*
G03*
X4119Y6532I138J0D01*
G01*
X4525Y6125D02*
G03*
X4623Y6085I98J98D01*
G01*
X4525Y6125D02*
G03*
X4623Y6085I98J98D01*
G01*
X8948Y10668D02*
X9627D01*
X8948Y10617D02*
X9627D01*
X8889Y10770D02*
X9627D01*
X8931Y10719D02*
X9627D01*
X8950Y10516D02*
X9627D01*
X8948Y10414D02*
X9627D01*
X8942Y10566D02*
X9627D01*
X8942Y10465D02*
X9627D01*
X8890Y10769D02*
Y11106D01*
X8839Y10797D02*
Y11107D01*
X8941Y10697D02*
Y11106D01*
X8788Y10805D02*
Y11107D01*
X8738Y10805D02*
Y11107D01*
X8687Y10805D02*
Y11108D01*
X8941Y10570D02*
Y10588D01*
Y10443D02*
Y10461D01*
X8688Y10805D02*
X8788D01*
X9449Y8704D02*
Y11101D01*
X9398Y8755D02*
Y11101D01*
X9500Y8654D02*
Y11100D01*
X9296Y8841D02*
Y11102D01*
X9246Y8850D02*
Y11103D01*
X9347Y8806D02*
Y11102D01*
X8948Y10363D02*
X9627D01*
X9144Y9759D02*
Y11104D01*
X9195Y9711D02*
Y11103D01*
X8931Y10312D02*
X9627D01*
X8889Y10262D02*
X9627D01*
X9093Y9782D02*
Y11104D01*
X9042Y9789D02*
Y11105D01*
X8992Y9782D02*
Y11105D01*
X8941Y9759D02*
Y10334D01*
X8890Y9759D02*
Y10262D01*
X8839Y9782D02*
Y10234D01*
X8788Y9789D02*
Y10226D01*
X8738Y9782D02*
Y10226D01*
X8688D02*
X8788D01*
X8687Y9759D02*
Y10226D01*
X8636Y10797D02*
Y11108D01*
X8585Y10769D02*
Y11109D01*
X8534Y10697D02*
Y11109D01*
X8272Y10973D02*
X9627D01*
X8323Y10922D02*
X9627D01*
X8358Y10871D02*
X9627D01*
X8368Y10820D02*
X9627D01*
X8368Y10770D02*
X8586D01*
X8368Y10719D02*
X8544D01*
X8368Y10668D02*
X8527D01*
X8368Y10617D02*
X8527D01*
X8280Y10965D02*
Y11112D01*
X8230Y11000D02*
Y11112D01*
X8331Y10914D02*
Y11111D01*
X8179Y11009D02*
Y11113D01*
X8128Y11009D02*
Y11113D01*
X8276Y10969D02*
X8327Y10918D01*
X8026Y11009D02*
X8179D01*
X8534Y10570D02*
Y10588D01*
X8368Y10566D02*
X8533D01*
X8368Y10465D02*
X8533D01*
X8636Y9711D02*
Y10234D01*
X8368Y10312D02*
X8544D01*
X8585Y9390D02*
Y10262D01*
X8368Y10262D02*
X8586D01*
X8358Y10211D02*
X9627D01*
X8534Y10443D02*
Y10461D01*
X8433Y9829D02*
Y11110D01*
X8484Y9778D02*
Y11110D01*
X8368Y10516D02*
X8525D01*
X8368Y10262D02*
Y10820D01*
X8382Y9853D02*
Y11111D01*
X8368Y10414D02*
X8527D01*
X8368Y10363D02*
X8527D01*
X8534Y9425D02*
Y10334D01*
X9223Y9652D02*
X9627D01*
X9230Y9601D02*
X9627D01*
X9223Y9550D02*
X9627D01*
X9152Y9754D02*
X9627D01*
X9200Y9703D02*
X9627D01*
X9223Y9398D02*
X9627D01*
X9230Y9347D02*
X9627D01*
X9223Y9296D02*
X9627D01*
X9200Y9500D02*
X9627D01*
X9200Y9449D02*
X9627D01*
X8898Y9754D02*
X8933D01*
X9195Y9457D02*
Y9492D01*
X8788Y9601D02*
Y9776D01*
X8613Y9601D02*
X8788D01*
X8636Y9457D02*
Y9492D01*
X8581Y9394D02*
X8602Y9373D01*
X9230Y9246D02*
X9627D01*
X9230Y9195D02*
X9627D01*
X9230Y9144D02*
X9627D01*
X9230Y9093D02*
X9627D01*
X9230Y9042D02*
X9627D01*
X9230Y8992D02*
X9627D01*
X9300Y8839D02*
X9627D01*
X9365Y8788D02*
X9627D01*
X9416Y8738D02*
X9627D01*
X9230Y8941D02*
X9627D01*
X9111Y8890D02*
X9627D01*
X9218Y9281D02*
X9230D01*
Y8906D02*
Y9281D01*
X9195Y8850D02*
Y8906D01*
X9095D02*
X9230D01*
X9144Y8857D02*
Y8906D01*
X9095D02*
X9150Y8850D01*
X9466Y8687D02*
X9627D01*
X9517Y8636D02*
X9627D01*
X9150Y8850D02*
X9246D01*
X8323Y10160D02*
X9627D01*
X8273Y10109D02*
X9627D01*
X8222Y10058D02*
X9627D01*
X8171Y10008D02*
X9627D01*
X8120Y9957D02*
X9627D01*
X8069Y9906D02*
X9627D01*
X8497Y9754D02*
X8679D01*
X8512Y9703D02*
X8631D01*
X8512Y9652D02*
X8608D01*
X8373Y9855D02*
X9627D01*
X8463Y9804D02*
X9627D01*
X8331Y9860D02*
Y10168D01*
X8280Y9853D02*
Y10117D01*
X8230Y9829D02*
Y10066D01*
X8063Y9900D02*
X8327Y10164D01*
X8128Y9860D02*
Y9965D01*
X8179Y9853D02*
Y10015D01*
X8497Y9601D02*
X8601D01*
X8463Y9550D02*
X8608D01*
X8170Y9855D02*
X8289D01*
X8484Y9435D02*
Y9577D01*
X8433Y9435D02*
Y9526D01*
X8382Y9435D02*
Y9502D01*
X8373Y9500D02*
X8631D01*
X8331Y9435D02*
Y9495D01*
X8577Y9398D02*
X8608D01*
X8170Y9500D02*
X8289D01*
X6629Y9435D02*
X8484D01*
X8280D02*
Y9502D01*
X8230Y9435D02*
Y9526D01*
X8179Y9435D02*
Y9502D01*
X8128Y9435D02*
Y9495D01*
X8115Y8733D02*
X8208Y8640D01*
X8179Y8623D02*
Y8669D01*
X8077Y8622D02*
X8177D01*
X7714Y8687D02*
X8161D01*
X7765Y8636D02*
X8199D01*
X8077Y11009D02*
Y11113D01*
X8026Y11009D02*
Y11114D01*
X7874Y10914D02*
Y11115D01*
X7823Y10863D02*
Y11116D01*
X7772Y10813D02*
Y11116D01*
X7722Y10798D02*
Y11117D01*
X7976Y11000D02*
Y11114D01*
X7925Y10965D02*
Y11115D01*
X7765Y10805D02*
X7929Y10969D01*
X7671Y10775D02*
Y11117D01*
X7569Y10798D02*
Y11118D01*
X7620Y10775D02*
Y11118D01*
X7518Y10805D02*
Y11119D01*
X7468Y10798D02*
Y11119D01*
X7417Y10775D02*
Y11120D01*
X7628Y10770D02*
X7663D01*
X7366Y10775D02*
Y11120D01*
X7374Y10770D02*
X7409D01*
X7264Y10805D02*
Y11121D01*
X7315Y10798D02*
Y11120D01*
X7882Y10211D02*
X7917D01*
X7925Y10152D02*
Y10205D01*
X7874Y10101D02*
Y10205D01*
X7827Y10054D02*
X7960Y10188D01*
X7823Y10050D02*
Y10183D01*
X7772Y9853D02*
Y10175D01*
X7722Y9860D02*
Y10183D01*
X7671Y9853D02*
Y10205D01*
X7628Y10211D02*
X7663D01*
X7620Y9829D02*
Y10205D01*
X7417Y9829D02*
Y10205D01*
X7374Y10211D02*
X7409D01*
X7569Y9853D02*
Y10183D01*
X7518Y9860D02*
Y10175D01*
X7468Y9853D02*
Y10183D01*
X7315Y9860D02*
Y10183D01*
X7366Y9853D02*
Y10205D01*
X7214Y10798D02*
Y11121D01*
X7163Y10775D02*
Y11122D01*
X7112Y10775D02*
Y11122D01*
X7061Y10798D02*
Y11123D01*
X6960Y10798D02*
Y11124D01*
X6909Y10775D02*
Y11124D01*
X7120Y10770D02*
X7155D01*
X7010Y10805D02*
Y11123D01*
X6858Y10746D02*
Y11125D01*
X6807Y10711D02*
Y11125D01*
X6756Y10660D02*
Y11126D01*
X6706Y10609D02*
Y11126D01*
X6655Y10559D02*
Y11126D01*
X6604Y10508D02*
Y11127D01*
X6608Y10512D02*
X6811Y10715D01*
X6459Y10617D02*
X6713D01*
X6459Y10566D02*
X6663D01*
X7264Y9853D02*
Y10175D01*
X7163Y9853D02*
Y10205D01*
X7120Y10211D02*
X7155D01*
X7112Y9860D02*
Y10205D01*
X6844Y10160D02*
X7933D01*
X7061Y9853D02*
Y10183D01*
X7214Y9829D02*
Y10183D01*
X6844Y10109D02*
X7882D01*
X6844Y10058D02*
X7831D01*
X6844Y10262D02*
X6853D01*
X6844Y9848D02*
Y10277D01*
X6553Y9853D02*
Y11127D01*
X6502Y9860D02*
Y11128D01*
X6567Y9848D02*
Y10414D01*
X6960Y9853D02*
Y10183D01*
X6909Y9860D02*
Y10205D01*
X7010Y9829D02*
Y10175D01*
X6844Y10211D02*
X6901D01*
X6858Y9853D02*
Y10254D01*
X8077Y9853D02*
Y9914D01*
X8063Y9848D02*
Y9900D01*
X8077Y9435D02*
Y9502D01*
X8063Y9855D02*
X8086D01*
X8026Y9435D02*
Y9526D01*
X7967Y9500D02*
X8086D01*
X7976Y9435D02*
Y9502D01*
X7925Y9435D02*
Y9495D01*
X7764Y9500D02*
X7883D01*
X7874Y9435D02*
Y9502D01*
X7787Y9848D02*
Y9957D01*
X7764Y9855D02*
X7787D01*
X7560D02*
X7680D01*
X7823Y9435D02*
Y9526D01*
X7560Y9500D02*
X7680D01*
X7967Y8738D02*
X8086D01*
X7772Y9435D02*
Y9502D01*
X7722Y9435D02*
Y9495D01*
X8128Y8622D02*
Y8720D01*
X7772Y8628D02*
Y8740D01*
X8077Y8622D02*
Y8740D01*
X7764Y8738D02*
X7883D01*
X7667Y8734D02*
X7768Y8632D01*
X7671Y9435D02*
Y9502D01*
X7620Y9435D02*
Y9526D01*
X7569Y9435D02*
Y9502D01*
X7518Y9435D02*
Y9495D01*
X7468Y9435D02*
Y9502D01*
X7417Y9435D02*
Y9526D01*
X7663Y8738D02*
X7680D01*
X7671Y8730D02*
Y8740D01*
X7722Y8679D02*
Y8733D01*
X7357Y9855D02*
X7476D01*
X7154D02*
X7273D01*
X6844Y10008D02*
X7796D01*
X6844Y9957D02*
X7787D01*
X6844Y9906D02*
X7787D01*
X7357Y9500D02*
X7476D01*
X7366Y9435D02*
Y9502D01*
X7315Y9435D02*
Y9495D01*
X7154Y9500D02*
X7273D01*
X6951Y9855D02*
X7070D01*
X6844D02*
X6867D01*
X6544D02*
X6567D01*
X6951Y9500D02*
X7070D01*
X6748D02*
X6867D01*
X6544D02*
X6664D01*
X7264Y9435D02*
Y9502D01*
X7214Y9435D02*
Y9526D01*
X7163Y9435D02*
Y9502D01*
X7061Y9435D02*
Y9502D01*
X7010Y9435D02*
Y9526D01*
X6960Y9435D02*
Y9502D01*
X7092Y8636D02*
X7171D01*
X7112Y9435D02*
Y9495D01*
X7163Y8628D02*
Y8650D01*
X6909Y9435D02*
Y9495D01*
X7056Y8650D02*
X7185D01*
X6858Y9435D02*
Y9502D01*
X6807Y9435D02*
Y9526D01*
X6756Y9435D02*
Y9502D01*
X6655Y9435D02*
Y9502D01*
X6604Y9432D02*
Y9526D01*
X6706Y9435D02*
Y9495D01*
X6553Y9412D02*
Y9502D01*
X6502Y9365D02*
Y9495D01*
X9619Y8534D02*
X9627D01*
X9601Y8552D02*
Y11100D01*
X9627Y8526D02*
Y11099D01*
X9568Y8585D02*
X9627D01*
X9550Y8603D02*
Y11100D01*
X9343Y8810D02*
X9623Y8530D01*
X9042Y8335D02*
Y8346D01*
X8788D02*
X9087D01*
X8903Y8331D02*
X9029D01*
X8992Y8313D02*
Y8346D01*
X8941Y8313D02*
Y8346D01*
X8992Y7917D02*
Y7943D01*
X8890Y8335D02*
Y8346D01*
X8788Y8335D02*
Y8346D01*
X8738Y8313D02*
Y8355D01*
X8903Y7925D02*
X8999D01*
X8941Y7866D02*
Y7943D01*
X8934Y7860D02*
X9008Y7934D01*
X8890Y7860D02*
Y7921D01*
X8839Y7860D02*
Y7914D01*
X9339Y7722D02*
X9387D01*
Y7652D02*
Y7769D01*
X9627Y5690D02*
Y7501D01*
X9289Y7671D02*
X9387D01*
X9178Y7560D02*
X9387Y7769D01*
X9038Y6913D02*
X9623Y7497D01*
X9593Y7468D02*
X9627D01*
X9601Y5690D02*
Y7475D01*
X9550Y5690D02*
Y7425D01*
X9543Y7417D02*
X9627D01*
X9500Y5690D02*
Y7374D01*
X9347Y7612D02*
Y7729D01*
X9296Y7561D02*
Y7679D01*
X9243Y7508D02*
X9387Y7652D01*
X8788Y7860D02*
Y7921D01*
X8738Y7860D02*
Y7943D01*
X9246Y7511D02*
Y7628D01*
X9238Y7620D02*
X9355D01*
X9195Y7551D02*
Y7577D01*
X9234Y7518D02*
X9253D01*
X9187Y7569D02*
X9304D01*
X8596Y8480D02*
X8691Y8386D01*
X8026Y8612D02*
Y8764D01*
X8596Y8342D02*
Y8480D01*
X7799Y8585D02*
X7984D01*
X8596Y8433D02*
X8644D01*
X8596Y8382D02*
X8695D01*
X8134Y8346D02*
X8177D01*
X7976Y8577D02*
Y8740D01*
X7925Y8527D02*
Y8733D01*
X7874Y8476D02*
Y8740D01*
X7823Y8425D02*
Y8764D01*
X7809Y8411D02*
X7980Y8581D01*
X7809Y8534D02*
X7933D01*
X7809Y8411D02*
Y8534D01*
Y8484D02*
X7882D01*
X7809Y8433D02*
X7831D01*
X8687Y8313D02*
Y8390D01*
X8649Y8331D02*
X8775D01*
X8636Y8335D02*
Y8441D01*
X8649Y7925D02*
X8775D01*
X8687Y7860D02*
Y7943D01*
X8552Y7874D02*
X8949D01*
X8538Y7860D02*
X8934D01*
X8179Y8313D02*
Y8344D01*
X8141Y8331D02*
X8199D01*
X8125Y8336D02*
X8134Y8346D01*
X8636Y7860D02*
Y7921D01*
X8585Y7860D02*
Y7914D01*
X8538Y7860D02*
X8556Y7878D01*
X9492Y7366D02*
X9627D01*
X9441Y7315D02*
X9627D01*
X9390Y7264D02*
X9627D01*
X9339Y7214D02*
X9627D01*
X9289Y7163D02*
X9627D01*
X9238Y7112D02*
X9627D01*
X9187Y7061D02*
X9627D01*
X9136Y7010D02*
X9627D01*
X9085Y6960D02*
X9627D01*
X9034Y6909D02*
X9627D01*
X8004Y6350D02*
X9627D01*
X9449Y5690D02*
Y7323D01*
X9398Y5690D02*
Y7272D01*
X9347Y5690D02*
Y7221D01*
X9296Y5690D02*
Y7171D01*
X9246Y5690D02*
Y7120D01*
X9195Y5690D02*
Y7069D01*
X9144Y5690D02*
Y7018D01*
X8011Y6299D02*
X9627D01*
X8004Y6248D02*
X9627D01*
X9093Y5690D02*
Y6967D01*
X9042Y5690D02*
Y6917D01*
X8992Y5690D02*
Y6882D01*
X8941Y5690D02*
Y6872D01*
X8890Y5690D02*
Y6872D01*
X8839Y5690D02*
Y6872D01*
X8788Y5690D02*
Y6872D01*
X8738Y5690D02*
Y6872D01*
X8687Y5690D02*
Y6872D01*
X8636Y5690D02*
Y6872D01*
X8585Y5690D02*
Y6872D01*
X8534Y5690D02*
Y6872D01*
X8484Y5690D02*
Y6872D01*
X8433Y5690D02*
Y6872D01*
X8382Y5690D02*
Y6872D01*
X8331Y5690D02*
Y6872D01*
X8280Y5690D02*
Y6872D01*
X8230Y5690D02*
Y6872D01*
X8179Y5690D02*
Y6872D01*
X8128Y5690D02*
Y6872D01*
X8077Y5690D02*
Y6872D01*
X8026Y5690D02*
Y6872D01*
X7836Y6858D02*
X9627D01*
X7840Y6872D02*
X8941D01*
X7810Y6807D02*
X9627D01*
X7752Y6756D02*
X9627D01*
X7688Y6706D02*
X9627D01*
X7739Y6655D02*
X9627D01*
X7892Y6502D02*
X9627D01*
X7938Y6452D02*
X9627D01*
X7981Y6401D02*
X9627D01*
X7790Y6604D02*
X9627D01*
X7841Y6553D02*
X9627D01*
X7925Y6469D02*
Y6872D01*
X7874Y6520D02*
Y6872D01*
X7976Y6409D02*
Y6872D01*
X7772Y6622D02*
Y6769D01*
X7823Y6571D02*
Y6828D01*
X7722Y6672D02*
Y6744D01*
X7671Y6723D02*
Y6736D01*
X7657Y6737D02*
X7921Y6473D01*
X7981Y6198D02*
X9627D01*
X7981Y6147D02*
X9627D01*
X8004Y6096D02*
X9627D01*
X8011Y6045D02*
X9627D01*
X8004Y5994D02*
X9627D01*
X7981Y5944D02*
X9627D01*
X7933Y5893D02*
X9627D01*
X7823Y6045D02*
X7998D01*
X7976Y6155D02*
Y6190D01*
Y5690D02*
Y5936D01*
X7823Y5870D02*
Y6045D01*
X7679Y5893D02*
X7714D01*
X7925Y5690D02*
Y5887D01*
X7874Y5690D02*
Y5865D01*
X7823Y5690D02*
Y5858D01*
X7772Y5690D02*
Y5865D01*
X7722Y5690D02*
Y5887D01*
X7366Y8335D02*
Y8402D01*
X7315Y8342D02*
Y8390D01*
X7311Y8386D02*
X7354Y8429D01*
X7379Y8331D02*
X7437D01*
X7417Y8313D02*
Y8344D01*
X7307Y8382D02*
X7379D01*
X7156Y8622D02*
X7185Y8650D01*
X7114Y8622D02*
X7156D01*
X7264Y8335D02*
Y8355D01*
X7112Y8623D02*
Y8650D01*
X7114Y8346D02*
X7214D01*
X7125Y8331D02*
X7251D01*
X7214Y8313D02*
Y8346D01*
X7163Y8313D02*
Y8346D01*
X7112Y8335D02*
Y8344D01*
X7558Y7580D02*
Y7711D01*
X7518Y7573D02*
Y7711D01*
X7468Y7551D02*
Y7711D01*
X7217D02*
X7558D01*
X7366Y7573D02*
Y7711D01*
X7417Y7551D02*
Y7711D01*
X7379Y7569D02*
X7505D01*
X7257Y7671D02*
X7558D01*
X7307Y7620D02*
X7558D01*
X7315Y8128D02*
Y8330D01*
X7264Y7663D02*
Y7711D01*
X7315Y7612D02*
Y7711D01*
X7217D02*
X7350Y7577D01*
X7177Y6883D02*
Y7191D01*
X7125Y7163D02*
X7177D01*
X7112Y6480D02*
Y7159D01*
X7163Y6457D02*
Y7181D01*
X7010Y7048D02*
Y7159D01*
X7061Y6990D02*
Y7152D01*
X6909Y8623D02*
Y8650D01*
X6858Y8565D02*
Y8650D01*
X6909Y8313D02*
Y8344D01*
X6858Y8335D02*
Y8402D01*
X6807Y8342D02*
Y8650D01*
X6871Y8331D02*
X6929D01*
X6858Y7573D02*
Y7679D01*
X6807Y7580D02*
Y7711D01*
X6756Y8335D02*
Y8650D01*
X6706Y8313D02*
Y8650D01*
X6655Y8313D02*
Y8650D01*
X6604Y8335D02*
Y8650D01*
X6553Y8342D02*
Y8650D01*
X6502Y8335D02*
Y8650D01*
X6756Y7573D02*
Y7711D01*
X6617Y8331D02*
X6743D01*
X6604Y7573D02*
Y7711D01*
X6553Y7580D02*
Y7711D01*
X6502Y7573D02*
Y7711D01*
X6960Y7551D02*
Y7577D01*
X6909Y7551D02*
Y7628D01*
X6826Y7711D02*
X6976Y7560D01*
X6871Y7569D02*
X6967D01*
X6909Y7082D02*
Y7181D01*
X6960Y7074D02*
Y7181D01*
X6871Y7163D02*
X6997D01*
X6706Y7551D02*
Y7711D01*
X6655Y7551D02*
Y7711D01*
X6706Y6457D02*
Y7181D01*
X6617Y7569D02*
X6743D01*
X6617Y7163D02*
X6743D01*
X6655Y6409D02*
Y7181D01*
X6858Y7074D02*
Y7159D01*
X6807Y7048D02*
Y7152D01*
X6756Y6990D02*
Y7159D01*
X6502Y7035D02*
Y7159D01*
X6604Y5690D02*
Y7159D01*
X7518Y6990D02*
Y7018D01*
X7468Y6926D02*
Y7069D01*
X7453Y7061D02*
X7475D01*
X7461Y7076D02*
X7529Y7008D01*
X7453Y7010D02*
X7526D01*
X7453Y6960D02*
X7506D01*
X7485Y6909D02*
X7498D01*
X7453Y6941D02*
X7499Y6895D01*
X7218Y6786D02*
X7522Y6481D01*
X7453Y6941D02*
Y7076D01*
X7074Y6960D02*
X7177D01*
X7082Y6909D02*
X7177D01*
X7366Y6480D02*
Y6637D01*
X7315Y6487D02*
Y6688D01*
X7264Y6480D02*
Y6739D01*
X7074Y6858D02*
X7179D01*
X7061Y6487D02*
Y6828D01*
X7468Y6457D02*
Y6536D01*
X7425Y6452D02*
X7460D01*
X7425Y5893D02*
X7460D01*
X7671Y5690D02*
Y5887D01*
X7620Y5690D02*
Y5865D01*
X7569Y5690D02*
Y5858D01*
X7518Y5690D02*
Y5865D01*
X7468Y5690D02*
Y5887D01*
X7417Y6457D02*
Y6586D01*
X7214Y6457D02*
Y6790D01*
X7417Y5690D02*
Y5887D01*
X7171Y6452D02*
X7206D01*
X7171Y5893D02*
X7206D01*
X7214Y5690D02*
Y5887D01*
X7366Y5690D02*
Y5865D01*
X7315Y5690D02*
Y5858D01*
X7264Y5690D02*
Y5865D01*
X7163Y5690D02*
Y5887D01*
X7112Y5690D02*
Y5865D01*
X7048Y6807D02*
X7200D01*
X7048Y7010D02*
X7177D01*
X7010Y6480D02*
Y6769D01*
X6990Y6756D02*
X7247D01*
X6990Y7061D02*
X7177D01*
X6960Y6457D02*
Y6744D01*
X6917Y6452D02*
X6952D01*
X6858Y6480D02*
Y6744D01*
X6909Y6457D02*
Y6736D01*
X6516Y7010D02*
X6769D01*
X6531Y6960D02*
X6744D01*
X6531Y6909D02*
X6736D01*
X6481Y7061D02*
X6828D01*
X6516Y6858D02*
X6744D01*
X6502Y6273D02*
Y6833D01*
X6807Y6487D02*
Y6769D01*
X6756Y6480D02*
Y6828D01*
X6516Y6248D02*
X6627D01*
X6481Y6807D02*
X6769D01*
X6481Y6299D02*
X6619D01*
X7061Y5690D02*
Y5858D01*
X7010Y5690D02*
Y5865D01*
X6995Y5858D02*
Y5870D01*
X6619Y5858D02*
X6995D01*
X6960Y5690D02*
Y5858D01*
X6909Y5690D02*
Y5858D01*
X6858Y5690D02*
Y5858D01*
X6807Y5690D02*
Y5858D01*
X6756Y5690D02*
Y5858D01*
X6619Y6233D02*
X6632D01*
X6619Y5858D02*
Y6233D01*
X6553Y5690D02*
Y7152D01*
X6531Y6198D02*
X6619D01*
X6531Y6147D02*
X6619D01*
X6706Y5690D02*
Y5858D01*
X6516Y6096D02*
X6619D01*
X6655Y5690D02*
Y5858D01*
X6481Y6045D02*
X6619D01*
X6502Y5690D02*
Y6071D01*
X6452Y10647D02*
Y11128D01*
Y10520D02*
Y10537D01*
X6400Y10719D02*
X6815D01*
X6442Y10668D02*
X6764D01*
X6453Y10516D02*
X6612D01*
X6461Y10465D02*
X6577D01*
X6453Y10414D02*
X6567D01*
X6350Y10746D02*
Y11129D01*
X6299Y10754D02*
Y11130D01*
X6401Y10718D02*
Y11129D01*
X6248Y10754D02*
Y11130D01*
X6198Y10754D02*
Y11131D01*
X6045Y10647D02*
Y11132D01*
X6198Y10754D02*
X6298D01*
X6147Y10746D02*
Y11131D01*
X6096Y10718D02*
Y11132D01*
X6045Y10520D02*
Y10537D01*
X6459Y10363D02*
X6567D01*
X6452Y10393D02*
Y10410D01*
X6459Y10312D02*
X6567D01*
X6452Y9853D02*
Y10283D01*
X6442Y10262D02*
X6567D01*
X6400Y10211D02*
X6567D01*
X6401Y9829D02*
Y10211D01*
X6350Y9778D02*
Y10183D01*
X6096Y8565D02*
Y10211D01*
X6045Y10393D02*
Y10410D01*
Y8342D02*
Y10283D01*
X5994Y8335D02*
Y11133D01*
X6198Y10175D02*
X6298D01*
X6299Y9162D02*
Y10175D01*
X6248Y9111D02*
Y10175D01*
X6198Y8649D02*
Y10175D01*
X6147Y8623D02*
Y10183D01*
X4013Y11151D02*
X9627Y11099D01*
X5190Y10973D02*
X7933D01*
X5238Y10922D02*
X7882D01*
X4013Y11074D02*
X9627D01*
X4013Y11125D02*
X6794D01*
X4013Y11024D02*
X9627D01*
X5268Y10820D02*
X7780D01*
X5282Y10160D02*
X6567D01*
X5275Y10109D02*
X6567D01*
X5261Y10871D02*
X7831D01*
X5261Y10770D02*
X6901D01*
X5238Y10719D02*
X6097D01*
X5190Y10668D02*
X6055D01*
X4013Y10617D02*
X6038D01*
X4013Y10516D02*
X6044D01*
X4013Y10566D02*
X6038D01*
X4013Y10465D02*
X6036D01*
X5254Y10262D02*
X6055D01*
X5212Y10312D02*
X6038D01*
X5275Y10211D02*
X6097D01*
X4013Y10414D02*
X6044D01*
X4013Y10363D02*
X6038D01*
X5254Y10058D02*
X6567D01*
X5944Y8313D02*
Y11133D01*
X5893Y8313D02*
Y11133D01*
X5212Y10008D02*
X6567D01*
X4013Y9957D02*
X6567D01*
X4013Y9906D02*
X6567D01*
X4013Y9855D02*
X6460D01*
X4013Y9804D02*
X6371D01*
X4013Y9754D02*
X6336D01*
X4013Y9703D02*
X6321D01*
X4013Y9652D02*
X6321D01*
X5842Y8335D02*
Y11134D01*
X5791Y8342D02*
Y11134D01*
X5740Y8335D02*
Y11135D01*
X5690Y8313D02*
Y11135D01*
X5639Y8267D02*
Y11136D01*
X5588Y7987D02*
Y11136D01*
X5486Y8069D02*
Y11137D01*
X5436Y9530D02*
Y11138D01*
X5537Y8019D02*
Y11137D01*
X5334Y9614D02*
Y11139D01*
X5385Y9588D02*
Y11138D01*
X6452Y9314D02*
Y9502D01*
X6401Y9263D02*
Y9526D01*
Y8565D02*
Y8660D01*
X6252Y9115D02*
X6532Y9394D01*
X6452Y8650D02*
X6965D01*
X6413Y8534D02*
X6845D01*
X6421Y8484D02*
X6838D01*
X6330Y8636D02*
X6929D01*
X6388Y8585D02*
X6871D01*
X6350Y9212D02*
Y9577D01*
X6212Y8890D02*
Y9017D01*
X6299Y8649D02*
Y8745D01*
X6248Y8656D02*
Y8796D01*
X6350Y8623D02*
Y8695D01*
X6252Y8792D02*
X6354Y8691D01*
X6248Y8484D02*
Y8644D01*
X6413Y8433D02*
X6845D01*
X6452Y8313D02*
Y8650D01*
X6401Y8313D02*
Y8402D01*
X6248Y8484D02*
X6408D01*
X6388Y8382D02*
X6871D01*
X6363Y8331D02*
X6489D01*
X6350Y8335D02*
Y8344D01*
X6109Y8331D02*
X6167D01*
X6096Y8335D02*
Y8402D01*
X6147Y8313D02*
Y8344D01*
X6088Y8484D02*
X6248D01*
X5855Y8331D02*
X5981D01*
X5600Y8105D02*
Y8151D01*
X5569Y7987D02*
X5641D01*
X5456Y9449D02*
X8631D01*
X5448Y9500D02*
X6460D01*
X5448Y9398D02*
X6536D01*
X5423Y9550D02*
X6371D01*
X5364Y9601D02*
X6336D01*
X5423Y9347D02*
X6485D01*
X5364Y9296D02*
X6434D01*
X5193Y8738D02*
X6307D01*
X5193Y8687D02*
X6358D01*
X4013Y9246D02*
X6383D01*
X4013Y9195D02*
X6332D01*
X5181Y9042D02*
X6214D01*
X5209Y8992D02*
X6212D01*
X5217Y8941D02*
X6212D01*
X4013Y9144D02*
X6282D01*
X5109Y9093D02*
X6235D01*
X5217Y8839D02*
X6222D01*
X5217Y8890D02*
X6212D01*
X5209Y8788D02*
X6256D01*
X5193Y8636D02*
X6167D01*
X5193Y8585D02*
X6109D01*
X5448Y8382D02*
X6109D01*
X5456Y8331D02*
X5727D01*
X5448Y8280D02*
X5650D01*
X5193Y8534D02*
X6083D01*
X5364Y8484D02*
X6076D01*
X5423Y8433D02*
X6083D01*
X5423Y8230D02*
X5617D01*
X5479Y8077D02*
X5602D01*
X5529Y8026D02*
X5617D01*
X5421Y8179D02*
X5602D01*
X5428Y8128D02*
X5600D01*
X5436Y8412D02*
Y9368D01*
Y8120D02*
Y8250D01*
X5385Y8471D02*
Y9309D01*
X5334Y8496D02*
Y9284D01*
X5421Y8134D02*
X5569Y7987D01*
X5421Y8134D02*
Y8228D01*
X5193Y7972D02*
X5414Y7751D01*
X5193Y7823D02*
X5342D01*
X5193Y7772D02*
X5393D01*
X5182Y10978D02*
Y11140D01*
X5131Y11001D02*
Y11140D01*
X5232Y10930D02*
Y11139D01*
X5080Y11008D02*
Y11141D01*
X5029Y11001D02*
Y11141D01*
X5131Y10355D02*
Y10640D01*
X5080Y10362D02*
Y10633D01*
X5029Y10355D02*
Y10640D01*
X5014Y10996D02*
Y11008D01*
X4978D02*
Y11142D01*
X4928Y11008D02*
Y11142D01*
X4877Y11008D02*
Y11143D01*
X4826Y11008D02*
Y11143D01*
X4775Y11008D02*
Y11144D01*
X4724Y11008D02*
Y11144D01*
X5014Y10633D02*
Y10645D01*
X4826Y10820D02*
Y10995D01*
X4877Y10355D02*
Y10633D01*
X4826Y10645D02*
Y10820D01*
Y10362D02*
Y10633D01*
X5232Y10292D02*
Y10711D01*
X5182Y10334D02*
Y10663D01*
X5283Y9621D02*
Y11139D01*
X4978Y10334D02*
Y10633D01*
X5232Y9614D02*
Y10028D01*
X5182Y9588D02*
Y9986D01*
X5131Y9530D02*
Y9965D01*
X5080Y9101D02*
Y9958D01*
X5029Y9101D02*
Y9965D01*
X4928Y10334D02*
Y10633D01*
X4826Y10160D02*
Y10349D01*
X4978Y9095D02*
Y9986D01*
X4775Y10355D02*
Y10633D01*
X4724Y10334D02*
Y10633D01*
X4826Y9971D02*
Y10160D01*
X4928Y9103D02*
Y9986D01*
X4877Y9095D02*
Y9965D01*
X4826Y9101D02*
Y9958D01*
X4775Y9101D02*
Y9965D01*
X4724Y9084D02*
Y9986D01*
X4651Y10820D02*
X4826D01*
X4674Y11008D02*
Y11145D01*
Y10292D02*
Y10633D01*
X4638Y11008D02*
X5014D01*
X4638Y10633D02*
X5014D01*
X4013Y10312D02*
X4694D01*
X4013Y10262D02*
X4652D01*
X4637Y10160D02*
X4826D01*
X4013Y10058D02*
X4652D01*
X4013Y10008D02*
X4694D01*
X4013Y10973D02*
X4638D01*
X4013Y10922D02*
X4638D01*
Y10633D02*
Y11008D01*
X4013Y10871D02*
X4638D01*
X4013Y10820D02*
X4638D01*
X4013Y10770D02*
X4638D01*
X4013Y10719D02*
X4638D01*
X4013Y10668D02*
X4638D01*
X4013Y10211D02*
X4631D01*
X4013Y10160D02*
X4624D01*
X4013Y10109D02*
X4631D01*
X4623Y9588D02*
Y11145D01*
X4572Y9614D02*
Y11145D01*
X4674Y9530D02*
Y10028D01*
X4521Y9621D02*
Y11146D01*
Y9449D02*
Y9609D01*
X4661Y9550D02*
X5144D01*
X4686Y9500D02*
X5118D01*
X4694Y9449D02*
X5110D01*
X4602Y9601D02*
X5202D01*
X4521Y9449D02*
X4681D01*
X4470Y9614D02*
Y11146D01*
X4420Y9588D02*
Y11147D01*
X4369Y9530D02*
Y11147D01*
X4267Y7750D02*
Y11148D01*
X4216Y7757D02*
Y11149D01*
X4166Y7750D02*
Y11149D01*
X4361Y9449D02*
X4521D01*
X4013Y9601D02*
X4440D01*
X4521Y9289D02*
Y9449D01*
X4013Y9550D02*
X4382D01*
X4013Y9500D02*
X4356D01*
X5283Y8504D02*
Y9276D01*
X5182Y9042D02*
Y9309D01*
X5232Y8496D02*
Y9284D01*
X4602Y9296D02*
X5202D01*
X4661Y9347D02*
X5144D01*
X5131Y9084D02*
Y9368D01*
X5217Y8840D02*
Y8940D01*
X5193Y8478D02*
Y8754D01*
Y8484D02*
X5202D01*
X4686Y9398D02*
X5118D01*
X4982Y9093D02*
X5000D01*
X4674Y9042D02*
Y9368D01*
X4572Y8496D02*
Y9284D01*
X4855Y9093D02*
X4873D01*
X4855Y8687D02*
X4873D01*
X4638Y8840D02*
Y8940D01*
X4686Y8382D02*
X4917D01*
X4694Y8331D02*
X4917D01*
Y7854D02*
Y8678D01*
X4602Y8484D02*
X4917D01*
X4661Y8433D02*
X4917D01*
X4686Y8280D02*
X4917D01*
X5193Y7925D02*
X5240D01*
X4661Y8230D02*
X4917D01*
X5193Y7874D02*
X5291D01*
X4602Y8179D02*
X4917D01*
X4614Y7874D02*
X4917D01*
X4877Y7858D02*
Y8685D01*
X4826Y7851D02*
Y8679D01*
X4775Y7828D02*
Y8679D01*
X4674Y8412D02*
Y8738D01*
X4623Y8471D02*
Y9309D01*
X4724Y7797D02*
Y8696D01*
X4703Y7823D02*
X4768D01*
X4674Y7848D02*
Y8250D01*
X4572Y7879D02*
Y8166D01*
X4623Y7872D02*
Y8192D01*
X4013Y9093D02*
X4746D01*
X4013Y9042D02*
X4674D01*
X4013Y8992D02*
X4646D01*
X4013Y8941D02*
X4638D01*
X4013Y8890D02*
X4638D01*
X4013Y8788D02*
X4646D01*
X4013Y8687D02*
X4746D01*
X4013Y8738D02*
X4674D01*
X4013Y8636D02*
X4917D01*
X4013Y8585D02*
X4917D01*
X4013Y8534D02*
X4917D01*
X4420Y8471D02*
Y9309D01*
X4013Y9449D02*
X4349D01*
X4369Y8412D02*
Y9368D01*
X4013Y9347D02*
X4382D01*
X4013Y9398D02*
X4356D01*
X4013Y9296D02*
X4440D01*
X4013Y8839D02*
X4638D01*
X4521Y8504D02*
Y9276D01*
X4470Y8496D02*
Y9284D01*
X4013Y8484D02*
X4440D01*
X4013Y8433D02*
X4382D01*
X4521Y8331D02*
X4681D01*
X4521D02*
Y8491D01*
Y8171D02*
Y8331D01*
X4361D02*
X4521D01*
X4013Y8128D02*
X4917D01*
X4013Y8077D02*
X4917D01*
X4013Y8026D02*
X4917D01*
X4013Y7976D02*
X4917D01*
X4013Y7925D02*
X4917D01*
X4013Y7874D02*
X4530D01*
X4013Y8382D02*
X4356D01*
X4013Y8331D02*
X4349D01*
X4420Y7797D02*
Y8192D01*
X4013Y8280D02*
X4356D01*
X4013Y8230D02*
X4382D01*
X4521Y7872D02*
Y8158D01*
X4013Y8179D02*
X4440D01*
X4470Y7848D02*
Y8166D01*
X4013Y7823D02*
X4441D01*
X4013Y7772D02*
X4406D01*
X6452Y7551D02*
Y7711D01*
X6350Y7573D02*
Y7711D01*
X6401Y7551D02*
Y7711D01*
X6299Y7580D02*
Y7711D01*
X6248Y7573D02*
Y7711D01*
X6198Y7551D02*
Y7711D01*
X6363Y7569D02*
X6489D01*
X6363Y7163D02*
X6489D01*
X6109Y7569D02*
X6235D01*
X6096Y7573D02*
Y7711D01*
X6045Y7580D02*
Y7711D01*
X6147Y7551D02*
Y7711D01*
X5944Y7580D02*
Y7711D01*
X5893Y7580D02*
Y7711D01*
X5994Y7573D02*
Y7711D01*
X5983Y7570D02*
Y7580D01*
X5842D02*
Y7711D01*
X5791Y7580D02*
Y7711D01*
X5740Y7580D02*
Y7711D01*
X6401Y7110D02*
Y7181D01*
X6452Y7086D02*
Y7181D01*
X6350Y7117D02*
Y7159D01*
X6248Y7086D02*
Y7159D01*
X6392Y7112D02*
X7177D01*
X6299Y7110D02*
Y7152D01*
X6087Y7112D02*
X6308D01*
X6109Y7163D02*
X6235D01*
X6147Y7086D02*
Y7181D01*
X6198Y7035D02*
Y7181D01*
X5989Y7160D02*
X6033Y7116D01*
X6096Y7110D02*
Y7159D01*
X6177Y7061D02*
X6219D01*
X6045Y7117D02*
Y7152D01*
X6198Y6273D02*
Y6833D01*
X5690Y7580D02*
Y7711D01*
X5639Y7580D02*
Y7711D01*
X5600Y7580D02*
X5983D01*
X5193Y7671D02*
X6866D01*
X5512Y7711D02*
X6826D01*
X5225Y7620D02*
X6917D01*
X5377Y7468D02*
X5600D01*
X5428Y7417D02*
X5600D01*
X5479Y7366D02*
X5600D01*
X5275Y7569D02*
X5600D01*
X5326Y7518D02*
X5600D01*
X5436Y7409D02*
Y7733D01*
X5334Y7511D02*
Y7831D01*
X5283Y7561D02*
Y7882D01*
X5385Y7460D02*
Y7780D01*
X5529Y7315D02*
X5600D01*
X5537Y7307D02*
Y7711D01*
X5600Y7301D02*
Y7580D01*
X5193Y7722D02*
X5458D01*
X5486Y7358D02*
Y7713D01*
X5588Y7301D02*
Y7711D01*
Y5690D02*
Y7025D01*
X5544Y7301D02*
X5600D01*
X5193Y7652D02*
X5544Y7301D01*
X5486Y7025D02*
X5632D01*
X5065Y7010D02*
X5625D01*
X5065Y6960D02*
X5610D01*
X5537Y5690D02*
Y7025D01*
X5065Y6909D02*
X5610D01*
X5065Y6858D02*
X5625D01*
X5334Y6792D02*
Y7120D01*
X5283Y6792D02*
Y7171D01*
X5065Y7112D02*
X5342D01*
X4404Y7163D02*
X5291D01*
X4957Y7497D02*
X5389Y7065D01*
X5436Y6756D02*
Y7034D01*
X5486Y6684D02*
Y7025D01*
X5065Y7061D02*
X5393D01*
X5385Y6784D02*
Y7069D01*
X6392Y6756D02*
X6828D01*
X6401Y6348D02*
Y6759D01*
X6452Y6324D02*
Y6782D01*
X6087Y6756D02*
X6308D01*
X6177Y6807D02*
X6219D01*
X6248Y6324D02*
Y6782D01*
X6392Y6350D02*
X6627D01*
X6350Y6355D02*
Y6751D01*
X6299Y6348D02*
Y6759D01*
X6087Y6350D02*
X6308D01*
X6177Y6299D02*
X6219D01*
X6096Y6348D02*
Y6759D01*
X5994Y6348D02*
Y6759D01*
X6147Y6324D02*
Y6782D01*
X5833Y6756D02*
X6003D01*
X5944Y6324D02*
Y6782D01*
X5893Y6324D02*
Y6782D01*
X6045Y6355D02*
Y6751D01*
X5842Y6348D02*
Y6759D01*
X5833Y6350D02*
X6003D01*
X5791Y6355D02*
Y6751D01*
X5740Y6348D02*
Y6759D01*
X6452Y5690D02*
Y6020D01*
X6248Y5690D02*
Y6020D01*
X6177Y6045D02*
X6219D01*
X6392Y5994D02*
X6619D01*
X6401Y5690D02*
Y5997D01*
X6350Y5690D02*
Y5990D01*
X6087Y5994D02*
X6308D01*
X6299Y5690D02*
Y5997D01*
X6198Y5690D02*
Y6071D01*
X6147Y5690D02*
Y6020D01*
X6096Y5690D02*
Y5997D01*
X5944Y5690D02*
Y6020D01*
X5893Y5690D02*
Y6020D01*
X6045Y5690D02*
Y5990D01*
X5994Y5690D02*
Y5997D01*
X5842Y5690D02*
Y5997D01*
X5833Y5994D02*
X6003D01*
X5791Y5690D02*
Y5990D01*
X5494Y6604D02*
X7399D01*
X5494Y6655D02*
X7348D01*
X5690Y6324D02*
Y6782D01*
X5435Y6756D02*
X5749D01*
X5065Y6807D02*
X5660D01*
X5477Y6706D02*
X7298D01*
X5496Y6502D02*
X7501D01*
X5494Y6401D02*
X6649D01*
X5494Y6350D02*
X5749D01*
X5488Y6553D02*
X7450D01*
X5488Y6452D02*
X6698D01*
X5486Y6557D02*
Y6575D01*
X5639Y6273D02*
Y6833D01*
X5233Y6792D02*
X5333D01*
X5486Y6430D02*
Y6448D01*
X5477Y6299D02*
X5660D01*
X5435Y6248D02*
X5625D01*
X5740Y5690D02*
Y5997D01*
X5690Y5690D02*
Y6020D01*
X4013Y5994D02*
X5749D01*
X4013Y6045D02*
X5660D01*
X4013Y5944D02*
X6619D01*
X4013Y5842D02*
X9627D01*
X4013Y5893D02*
X6619D01*
X4013Y5791D02*
X9627D01*
X4013Y5740D02*
X9627D01*
X4013Y5690D02*
X9627D01*
X5486D02*
Y6321D01*
X5436Y5690D02*
Y6249D01*
X5385Y5690D02*
Y6221D01*
X5240Y6213D02*
X5333D01*
X5334Y5690D02*
Y6213D01*
X5639Y5690D02*
Y6071D01*
X5225Y6198D02*
X5610D01*
X5283Y5690D02*
Y6213D01*
X5174Y6147D02*
X5610D01*
X5109Y6096D02*
X5625D01*
X5232Y7612D02*
Y7933D01*
X5193Y7652D02*
Y7972D01*
X4978Y7148D02*
Y7475D01*
X4877Y7670D02*
Y7845D01*
X4928Y7148D02*
Y7490D01*
X4404Y7214D02*
X5240D01*
X4404Y7315D02*
X5139D01*
X5029Y7148D02*
Y7425D01*
X4397Y7366D02*
X5088D01*
X4397Y7264D02*
X5189D01*
X4703Y7569D02*
X4719D01*
X4404D02*
X4441D01*
X4877Y7495D02*
Y7670D01*
X4397Y7620D02*
X4406D01*
X4374Y7671D02*
X4391D01*
X4614Y7518D02*
X4766D01*
X4397D02*
X4530D01*
X4877Y7148D02*
Y7482D01*
X4392Y7249D02*
X4404D01*
X5182Y6784D02*
Y7272D01*
X5131Y6756D02*
Y7323D01*
X5080Y6684D02*
Y7374D01*
X4826Y7148D02*
Y7490D01*
X4775Y7148D02*
Y7512D01*
X4724Y7148D02*
Y7561D01*
X5232Y6792D02*
Y7221D01*
X4689Y7148D02*
X5065D01*
Y6772D02*
Y7148D01*
X4614Y7112D02*
X4689D01*
Y7074D02*
Y7148D01*
X4623Y7110D02*
Y7521D01*
X4572Y7117D02*
Y7514D01*
X4674Y7086D02*
Y7544D01*
X4521Y7110D02*
Y7521D01*
X4470Y7086D02*
Y7544D01*
X4420Y7035D02*
Y7595D01*
X4404Y7112D02*
X4530D01*
X4404Y7006D02*
Y7249D01*
Y7061D02*
X4441D01*
X4326Y7722D02*
X4391D01*
X4369Y7679D02*
Y8250D01*
X4318Y7727D02*
Y11148D01*
X4216Y7569D02*
Y7744D01*
X4374Y7468D02*
X4986D01*
X4369Y7425D02*
Y7460D01*
X4374Y7417D02*
X5037D01*
X4216Y7569D02*
X4391D01*
X4041D02*
X4216D01*
X4115Y7727D02*
Y11150D01*
X4013Y7722D02*
X4107D01*
X4064Y7679D02*
Y11150D01*
X4013Y7671D02*
X4059D01*
X4013Y7620D02*
X4036D01*
X4013Y7569D02*
X4029D01*
X4013Y7468D02*
X4059D01*
X4013Y7518D02*
X4036D01*
X4064Y7425D02*
Y7460D01*
X4013Y7417D02*
X4059D01*
X4013Y7366D02*
X4036D01*
X4354Y6874D02*
X4400D01*
X4369Y6672D02*
Y6874D01*
X4013Y7264D02*
X4036D01*
X4029Y7249D02*
X4041D01*
X4354Y6858D02*
X4406D01*
X4354Y6687D02*
Y6874D01*
X4078Y6629D02*
Y6874D01*
X4029D02*
X4078D01*
X4064Y5690D02*
Y6874D01*
X4029D02*
Y7249D01*
X4013Y5690D02*
Y11151D01*
Y5690D02*
Y11151D01*
Y7315D02*
X4029D01*
X4013Y7214D02*
X4029D01*
X4013Y7163D02*
X4029D01*
X4013Y7112D02*
X4029D01*
X4013Y7061D02*
X4029D01*
X4013Y7010D02*
X4029D01*
X4013Y6960D02*
X4029D01*
X4013Y6909D02*
X4029D01*
X4935Y6655D02*
X5072D01*
X4935Y6604D02*
X5072D01*
X4876Y6756D02*
X5132D01*
X4852Y6772D02*
X5065D01*
X4918Y6706D02*
X5089D01*
X5080Y6557D02*
Y6575D01*
X4937Y6502D02*
X5071D01*
X4929Y6553D02*
X5079D01*
X4929Y6452D02*
X5079D01*
X4928Y6684D02*
Y6772D01*
X5029Y6393D02*
Y6772D01*
X4877Y6756D02*
Y6772D01*
X4928Y6557D02*
Y6575D01*
X4935Y6401D02*
X5037D01*
X4928Y6430D02*
Y6448D01*
X5152Y6125D02*
X5240Y6213D01*
X5232Y5690D02*
Y6205D01*
X5182Y5690D02*
Y6155D01*
X4997Y6361D02*
X5081Y6445D01*
X4936Y6361D02*
X4997D01*
X5131Y5690D02*
Y6108D01*
X5080Y5690D02*
Y6087D01*
X4623Y6085D02*
X5055D01*
X5029Y5690D02*
Y6085D01*
X4978Y6361D02*
Y6772D01*
Y5690D02*
Y6085D01*
X4928Y5690D02*
Y6085D01*
X4877Y5690D02*
Y6085D01*
X4572Y5690D02*
Y6095D01*
X4826Y5690D02*
Y6085D01*
X4775Y5690D02*
Y6085D01*
X4724Y5690D02*
Y6085D01*
X4674Y5690D02*
Y6085D01*
X4623Y5690D02*
Y6085D01*
X4521Y6684D02*
Y6759D01*
X4470Y6571D02*
Y6782D01*
X4354Y6756D02*
X4530D01*
X4354Y6706D02*
X4531D01*
X4354Y6687D02*
X4514Y6527D01*
X4521Y6557D02*
Y6575D01*
X4488Y6553D02*
X4520D01*
X4386Y6655D02*
X4514D01*
X4437Y6604D02*
X4514D01*
X4354Y6807D02*
X4441D01*
X4013Y6858D02*
X4078D01*
X4420Y6622D02*
Y6833D01*
X4013Y6807D02*
X4078D01*
X4013Y6756D02*
X4078D01*
X4013Y6706D02*
X4078D01*
X4013Y6655D02*
X4078D01*
X4013Y6604D02*
X4081D01*
X4013Y6553D02*
X4101D01*
X4470Y5690D02*
Y6180D01*
X4420Y5690D02*
Y6231D01*
X4369Y5690D02*
Y6282D01*
X4013Y6198D02*
X4453D01*
X4013Y6248D02*
X4402D01*
X4119Y6532D02*
X4525Y6125D01*
X4521Y5690D02*
Y6129D01*
X4013Y6147D02*
X4504D01*
X4013Y6096D02*
X4569D01*
X4216Y5690D02*
Y6434D01*
X4166Y5690D02*
Y6485D01*
X4115Y5690D02*
Y6536D01*
X4013Y6502D02*
X4148D01*
X4013Y6452D02*
X4199D01*
X4318Y5690D02*
Y6332D01*
X4013Y6401D02*
X4250D01*
X4267Y5690D02*
Y6383D01*
X4013Y6350D02*
X4300D01*
X4013Y6299D02*
X4351D01*
D11*
X7798Y6045D02*
X7874D01*
X4877Y7493D02*
Y7976D01*
X4521Y8331D02*
X4877Y7976D01*
Y7493D02*
X5512Y6858D01*
Y6274D02*
Y6858D01*
Y6274D02*
X5918Y5867D01*
X7620D01*
X7798Y6045D01*
X7315Y6883D02*
Y7417D01*
X8788Y9017D02*
Y9093D01*
X7315Y7366D02*
X7468Y7214D01*
X7518D01*
X7722Y7010D01*
X8941D01*
X9525Y7595D01*
Y8433D01*
X9246Y8712D02*
X9525Y8433D01*
X9093Y8712D02*
X9246D01*
X8788Y9017D02*
X9093Y8712D01*
X7696Y6807D02*
Y6934D01*
X7874Y6045D02*
X8026Y6198D01*
Y6477D01*
X7696Y6807D02*
X8026Y6477D01*
X7823Y6299D02*
Y6375D01*
X7315Y6883D02*
X7823Y6375D01*
X5512Y7849D02*
X7569D01*
X6883D02*
X7315Y7417D01*
X5283Y8077D02*
Y8331D01*
X7772Y8128D02*
X7823D01*
Y8103D02*
Y8128D01*
X5283Y8077D02*
X5512Y7849D01*
X7569D02*
X7823Y8103D01*
X8128Y8915D02*
X8458Y8585D01*
X8865Y7137D02*
X9093Y7366D01*
X8458Y7976D02*
Y8585D01*
X8306Y7823D02*
X8458Y7976D01*
X7772Y7823D02*
X8306D01*
X7696Y7747D02*
X7772Y7823D01*
X7696Y7188D02*
Y7747D01*
Y7188D02*
X7747Y7137D01*
X8865D01*
X9042Y9093D02*
Y9144D01*
X7188Y8788D02*
X7315Y8915D01*
X6452Y8788D02*
X7188D01*
X6350Y8890D02*
X6452Y8788D01*
X6350Y8890D02*
Y9017D01*
X6629Y9296D01*
X8484D01*
X8560Y9220D01*
X8966D01*
X9042Y9144D01*
X4444Y6629D02*
X5283D01*
X4216Y7569D02*
X4851D01*
X4216D02*
X4444Y7341D01*
X4851Y7569D02*
X4877Y7595D01*
X4444Y6629D02*
Y7341D01*
X4216Y6629D02*
Y7061D01*
X5207Y6375D02*
X5283D01*
X4216Y6629D02*
X4623Y6223D01*
X5055D01*
X5207Y6375D01*
X6020Y6934D02*
X6045D01*
X5055Y7595D02*
Y8890D01*
Y7595D02*
X5486Y7163D01*
X5791D01*
X6020Y6934D01*
X7925Y9677D02*
Y9957D01*
X7772Y10617D02*
X8026Y10871D01*
X8179D01*
X8230Y10820D01*
Y10262D02*
Y10820D01*
X7925Y9957D02*
X8230Y10262D01*
X6909Y10617D02*
X7010D01*
X6706Y9677D02*
Y10414D01*
X6909Y10617D01*
X9246Y8585D02*
X9449Y8382D01*
Y8026D02*
Y8382D01*
X6706Y8915D02*
Y8992D01*
X8077Y7366D02*
Y7518D01*
X8179Y7620D01*
X9042D01*
X9449Y8026D01*
X9144Y8484D02*
X9246Y8382D01*
Y7976D02*
Y8382D01*
X6909Y8915D02*
Y9042D01*
X7823Y7366D02*
Y7569D01*
X7976Y7722D01*
X8992D01*
X9246Y7976D01*
X8839Y8585D02*
X9246D01*
X8636Y8788D02*
X8839Y8585D01*
X8636Y8788D02*
Y9042D01*
X8484Y9195D02*
X8636Y9042D01*
X6909Y9195D02*
X8484D01*
X6706Y8992D02*
X6909Y9195D01*
X8788Y8484D02*
X9144D01*
X8534Y8738D02*
X8788Y8484D01*
X8534Y8738D02*
Y8992D01*
X8433Y9093D02*
X8534Y8992D01*
X6960Y9093D02*
X8433D01*
X6909Y9042D02*
X6960Y9093D01*
X7315Y8128D02*
Y8179D01*
X6248Y8484D02*
X6807D01*
X7163Y8331D02*
X7315Y8179D01*
X6960Y8331D02*
X7163D01*
X6807Y8484D02*
X6960Y8331D01*
X7569Y8128D02*
X7671Y8230D01*
X7010Y8484D02*
X7214D01*
X7671Y8230D02*
Y8534D01*
X7569Y8636D02*
X7671Y8534D01*
X7366Y8636D02*
X7569D01*
X7214Y8484D02*
X7366Y8636D01*
X7315Y8280D02*
X7518Y8484D01*
X7315Y8179D02*
Y8280D01*
X8077Y8484D02*
X8280D01*
X7772Y8179D02*
X8077Y8484D01*
X7772Y8128D02*
Y8179D01*
D13*
X4572Y6934D02*
D03*
Y7696D02*
D03*
X6350Y6172D02*
D03*
Y6934D02*
D03*
X5791Y6172D02*
D03*
Y6934D02*
D03*
X6045Y6172D02*
D03*
Y6934D02*
D03*
X6502Y8915D02*
D03*
Y9677D02*
D03*
X6706Y8915D02*
D03*
Y9677D02*
D03*
X6909Y8915D02*
D03*
Y9677D02*
D03*
X7112Y8915D02*
D03*
Y9677D02*
D03*
X7315Y8915D02*
D03*
Y9677D02*
D03*
X7518Y8915D02*
D03*
Y9677D02*
D03*
X7722Y8915D02*
D03*
Y9677D02*
D03*
X7925Y8915D02*
D03*
Y9677D02*
D03*
X8331Y8915D02*
D03*
Y9677D02*
D03*
X8128Y8915D02*
D03*
Y9677D02*
D03*
D14*
X4877Y7670D02*
D03*
X4216Y7569D02*
D03*
Y7315D02*
D03*
X6807Y6299D02*
D03*
X7061Y6045D02*
D03*
Y6299D02*
D03*
X7315Y6045D02*
D03*
Y6299D02*
D03*
X7569Y6045D02*
D03*
Y6299D02*
D03*
X7823Y6045D02*
D03*
Y6299D02*
D03*
X8788Y9093D02*
D03*
X9042Y9347D02*
D03*
X8788D02*
D03*
X9042Y9601D02*
D03*
X8788D02*
D03*
X5080Y10820D02*
D03*
X7010Y10363D02*
D03*
Y10617D02*
D03*
X7264Y10363D02*
D03*
Y10617D02*
D03*
X7518Y10363D02*
D03*
Y10617D02*
D03*
X7772Y10363D02*
D03*
Y10617D02*
D03*
X8026Y10363D02*
D03*
D15*
X4877Y6960D02*
D03*
X4216Y7061D02*
D03*
X6807Y6045D02*
D03*
X9042Y9093D02*
D03*
X4826Y10820D02*
D03*
X8026Y10617D02*
D03*
D16*
X4826Y10160D02*
D03*
X5080D02*
D03*
D17*
X5055Y8890D02*
D03*
X4928D02*
D03*
D18*
X4801D02*
D03*
D19*
X5283Y8331D02*
D03*
X4521D02*
D03*
X5283Y9449D02*
D03*
X4521D02*
D03*
X6248Y8484D02*
D03*
X7010D02*
D03*
X7518D02*
D03*
X8280D02*
D03*
X6909Y6909D02*
D03*
X7671D02*
D03*
D20*
X9093Y8128D02*
D03*
X8839D02*
D03*
X8331D02*
D03*
X8077D02*
D03*
X7823D02*
D03*
X7569D02*
D03*
X7315D02*
D03*
X7061D02*
D03*
X6807D02*
D03*
X6553D02*
D03*
X6299D02*
D03*
X6045D02*
D03*
X5791D02*
D03*
X9093Y7366D02*
D03*
X8839D02*
D03*
X8585D02*
D03*
X8331D02*
D03*
X8077D02*
D03*
X7823D02*
D03*
X7569D02*
D03*
X7315D02*
D03*
X7061D02*
D03*
X6807D02*
D03*
X6553D02*
D03*
X6299D02*
D03*
X6045D02*
D03*
X8585Y8128D02*
D03*
D21*
X5791Y7366D02*
D03*
D22*
X8738Y10389D02*
D03*
Y10516D02*
D03*
X4724Y6502D02*
D03*
Y6629D02*
D03*
X5283Y6502D02*
D03*
Y6629D02*
D03*
X6248Y10465D02*
D03*
Y10592D02*
D03*
D23*
X8738Y10643D02*
D03*
X4724Y6375D02*
D03*
X5283D02*
D03*
X6248Y10338D02*
D03*
M02*
