%FSLAX42Y42*%
%MOMM*%
G71*
G01*
G75*
G04 Layer_Physical_Order=1*
%ADD10C,0.25*%
%ADD11C,0.51*%
%ADD12C,0.41*%
%ADD13C,1.40*%
%ADD14C,1.50*%
%ADD15R,1.50X1.50*%
%ADD16C,1.78*%
%ADD17O,1.00X2.00*%
%ADD18O,1.00X2.00*%
%ADD19C,1.20*%
%ADD20O,1.57X2.03*%
%ADD21R,1.57X2.03*%
%ADD22O,2.00X1.00*%
%ADD23O,2.00X1.00*%
D10*
X8937Y10579D02*
G03*
X8950Y10643I-150J63D01*
G01*
G03*
X8788Y10805I-163J0D01*
G01*
X8950Y10516D02*
G03*
X8937Y10579I-163J0D01*
G01*
X8937Y10452D02*
G03*
X8950Y10516I-150J63D01*
G01*
Y10389D02*
G03*
X8937Y10452I-163J0D01*
G01*
X8788Y10226D02*
G03*
X8950Y10389I0J163D01*
G01*
X8688Y10805D02*
G03*
X8602Y10781I0J-163D01*
G01*
X8527Y10364D02*
G03*
X8688Y10226I161J25D01*
G01*
X8208Y10435D02*
G03*
X8203Y10429I98J-98D01*
G01*
X8208Y10435D02*
G03*
X8203Y10429I98J-98D01*
G01*
X7911Y10216D02*
G03*
X7990Y10179I116J148D01*
G01*
X9485Y9347D02*
G03*
X9445Y9445I-138J0D01*
G01*
X9485Y9347D02*
G03*
X9445Y9445I-138J0D01*
G01*
X9215Y9675D02*
G03*
X8915Y9739I-173J-73D01*
G01*
G03*
X8601Y9612I-127J-138D01*
G01*
X8502D02*
G03*
X8514Y9677I-171J65D01*
G01*
G03*
X8444Y9821I-183J0D01*
G01*
X8641Y9209D02*
G03*
X8605Y9054I148J-116D01*
G01*
X8451D02*
G03*
X8230Y9067I-120J-138D01*
G01*
G03*
X8026Y9067I-102J-152D01*
G01*
G03*
X7823Y9067I-102J-152D01*
G01*
X7839Y10793D02*
G03*
X7645Y10755I-66J-176D01*
G01*
X7870Y10062D02*
G03*
X7911Y10160I-98J98D01*
G01*
X7870Y10062D02*
G03*
X7911Y10160I-98J98D01*
G01*
X7645Y10755D02*
G03*
X7391Y10755I-127J-138D01*
G01*
G03*
X7137Y10755I-127J-138D01*
G01*
X6918Y10200D02*
G03*
X7035Y10177I92J163D01*
G01*
X7137Y10755D02*
G03*
X6872Y10490I-127J-138D01*
G01*
G03*
X6860Y10476I138J-127D01*
G01*
X6448Y10528D02*
G03*
X6461Y10592I-150J63D01*
G01*
X6461Y10476D02*
G03*
X6448Y10528I-162J-11D01*
G01*
X6640Y9906D02*
G03*
X6600Y10004I-138J0D01*
G01*
X6640Y9906D02*
G03*
X6600Y10004I-138J0D01*
G01*
X7990Y9848D02*
G03*
X7860Y9848I-65J-171D01*
G01*
X7214Y9526D02*
G03*
X7346Y9497I102J152D01*
G01*
X7010Y9526D02*
G03*
X7214Y9526I102J152D01*
G01*
X7421Y9165D02*
G03*
X7381Y9086I98J-98D01*
G01*
X7823Y9067D02*
G03*
X7743Y9097I-102J-152D01*
G01*
X7421Y9165D02*
G03*
X7381Y9086I98J-98D01*
G01*
G03*
X7336Y9097I-66J-170D01*
G01*
X7010Y8764D02*
G03*
X7099Y8733I102J152D01*
G01*
X6807Y9526D02*
G03*
X7010Y9526I102J152D01*
G01*
X6811Y9953D02*
G03*
X6771Y9855I98J-98D01*
G01*
X6811Y9953D02*
G03*
X6771Y9855I98J-98D01*
G01*
X6604Y9526D02*
G03*
X6807Y9526I102J152D01*
G01*
X7014Y9165D02*
G03*
X6975Y9086I98J-98D01*
G01*
X7014Y9165D02*
G03*
X6975Y9086I98J-98D01*
G01*
X6771Y9848D02*
G03*
X6640Y9848I-65J-171D01*
G01*
X6975Y9086D02*
G03*
X6807Y9067I-66J-170D01*
G01*
Y8764D02*
G03*
X7010Y8764I102J152D01*
G01*
X6807Y9067D02*
G03*
X6604Y9067I-102J-152D01*
G01*
X6640Y8745D02*
G03*
X6807Y8764I65J171D01*
G01*
X9445Y7853D02*
G03*
X9485Y7950I-98J98D01*
G01*
X9445Y7853D02*
G03*
X9485Y7950I-98J98D01*
G01*
X9285Y7389D02*
G03*
X9160Y7568I-191J0D01*
G01*
X8399Y8358D02*
G03*
X8444Y8429I-118J126D01*
G01*
X7646Y8368D02*
G03*
X7722Y8346I75J116D01*
G01*
X7646Y8368D02*
G03*
X7722Y8346I75J116D01*
G01*
X8447Y8305D02*
G03*
X8429Y8327I-116J-75D01*
G01*
X8447Y8305D02*
G03*
X8429Y8327I-116J-75D01*
G01*
X7820Y8342D02*
G03*
X7696Y8294I3J-191D01*
G01*
X8966Y7200D02*
G03*
X9285Y7343I127J143D01*
G01*
X8821Y7153D02*
G03*
X8966Y7200I18J191D01*
G01*
X8331Y6720D02*
G03*
X8429Y6760I0J138D01*
G01*
X8331Y6720D02*
G03*
X8429Y6760I0J138D01*
G01*
X7696Y7200D02*
G03*
X7820Y7152I127J143D01*
G01*
X7961Y6172D02*
G03*
X8011Y6299I-138J127D01*
G01*
X7737Y7068D02*
G03*
X7511Y6844I-66J-160D01*
G01*
X8011Y6299D02*
G03*
X7927Y6456I-188J0D01*
G01*
X8011Y6045D02*
G03*
X7961Y6172I-188J0D01*
G01*
X7696Y5907D02*
G03*
X8011Y6045I127J138D01*
G01*
X7268Y8564D02*
G03*
X7351Y8524I98J98D01*
G01*
X7268Y8564D02*
G03*
X7351Y8524I98J98D01*
G01*
X7611Y8338D02*
G03*
X7646Y8368I-92J146D01*
G01*
X7103Y8338D02*
G03*
X7183Y8484I-92J146D01*
G01*
X7696Y8294D02*
G03*
X7611Y8338I-127J-143D01*
G01*
X7474Y8317D02*
G03*
X7442Y8294I95J-166D01*
G01*
X7351Y8524D02*
G03*
X7474Y8317I168J-41D01*
G01*
X7442Y8294D02*
G03*
X7188Y8294I-127J-143D01*
G01*
X7183Y8484D02*
G03*
X6966Y8317I-173J0D01*
G01*
X6600Y8386D02*
G03*
X6640Y8484I-98J98D01*
G01*
X6600Y8386D02*
G03*
X6640Y8484I-98J98D01*
G01*
X7188Y8294D02*
G03*
X7103Y8338I-127J-143D01*
G01*
X6966Y8317D02*
G03*
X6934Y8294I95J-166D01*
G01*
G03*
X6680Y8294I-127J-143D01*
G01*
G03*
X6556Y8342I-127J-143D01*
G01*
X6659Y7827D02*
G03*
X6756Y7787I98J98D01*
G01*
X6659Y7827D02*
G03*
X6756Y7787I98J98D01*
G01*
X6426Y7962D02*
G03*
X6571Y7915I127J143D01*
G01*
X7442Y7200D02*
G03*
X7696Y7200I127J143D01*
G01*
X7350Y7155D02*
G03*
X7442Y7200I-35J188D01*
G01*
X7417Y6844D02*
G03*
X7319Y6803I0J-138D01*
G01*
X7417Y6844D02*
G03*
X7319Y6803I0J-138D01*
G01*
X7442Y5907D02*
G03*
X7696Y5907I127J138D01*
G01*
X7188D02*
G03*
X7442Y5907I127J138D01*
G01*
X7218Y6702D02*
G03*
X7180Y6630I98J-98D01*
G01*
X7218Y6702D02*
G03*
X7180Y6630I98J-98D01*
G01*
X6995Y5870D02*
G03*
X7188Y5907I66J176D01*
G01*
X7027Y6783D02*
G03*
X7080Y6884I-118J126D01*
G01*
X6461Y10592D02*
G03*
X6298Y10754I-163J0D01*
G01*
X6198D02*
G03*
X6036Y10589I0J-163D01*
G01*
G03*
X5998Y10562I60J-124D01*
G01*
X6036Y10589D02*
G03*
X5998Y10562I60J-124D01*
G01*
X5948Y10512D02*
G03*
X5907Y10414I98J-98D01*
G01*
X5948Y10512D02*
G03*
X5907Y10414I98J-98D01*
G01*
Y10262D02*
G03*
X5948Y10164I138J0D01*
G01*
X5907Y10262D02*
G03*
X5948Y10164I138J0D01*
G01*
X6075Y10037D02*
G03*
X6172Y9996I98J98D01*
G01*
X6075Y10037D02*
G03*
X6172Y9996I98J98D01*
G01*
X5268Y10820D02*
G03*
X5014Y10996I-188J0D01*
G01*
X5218Y10693D02*
G03*
X5268Y10820I-138J127D01*
G01*
X5282Y10160D02*
G03*
X5218Y10307I-202J0D01*
G01*
Y10013D02*
G03*
X5282Y10160I-138J147D01*
G01*
X6364Y9797D02*
G03*
X6604Y9526I138J-120D01*
G01*
Y9067D02*
G03*
X6364Y8796I-102J-152D01*
G01*
X5421Y9345D02*
G03*
X5456Y9449I-138J104D01*
G01*
X5381Y9021D02*
G03*
X5421Y9119I-98J98D01*
G01*
X5381Y9021D02*
G03*
X5421Y9119I-98J98D01*
G01*
X6364Y8612D02*
G03*
X6170Y8330I-116J-128D01*
G01*
G03*
X6163Y8302I129J-49D01*
G01*
X6170Y8330D02*
G03*
X6163Y8302I129J-49D01*
G01*
G03*
X5918Y8294I-118J-151D01*
G01*
G03*
X5600Y8151I-127J-143D01*
G01*
X5456Y9449D02*
G03*
X5308Y9620I-173J0D01*
G01*
X5112Y9424D02*
G03*
X5145Y9345I171J24D01*
G01*
X4991Y8690D02*
G03*
X5217Y8840I63J150D01*
G01*
X5456Y8331D02*
G03*
X5112Y8356I-173J0D01*
G01*
X5308Y8160D02*
G03*
X5456Y8331I-24J171D01*
G01*
X4942Y9652D02*
G03*
X4982Y9554I138J0D01*
G01*
X4942Y9652D02*
G03*
X4982Y9554I138J0D01*
G01*
X4942Y10325D02*
G03*
X4942Y9995I-116J-165D01*
G01*
X4694Y9449D02*
G03*
X4694Y9449I-173J0D01*
G01*
X5071Y9102D02*
G03*
X4991Y9090I-17J-162D01*
G01*
G03*
X4864Y9090I-63J-150D01*
G01*
Y8690D02*
G03*
X4991Y8690I63J150D01*
G01*
X4864Y9090D02*
G03*
X4638Y8948I-63J-150D01*
G01*
X4762Y8682D02*
G03*
X4864Y8690I38J158D01*
G01*
X4694Y8331D02*
G03*
X4576Y8495I-173J0D01*
G01*
X4566Y8164D02*
G03*
X4694Y8331I-45J167D01*
G01*
X4170Y8480D02*
G03*
X4129Y8382I98J-98D01*
G01*
X4170Y8480D02*
G03*
X4129Y8382I98J-98D01*
G01*
Y8230D02*
G03*
X4170Y8132I138J0D01*
G01*
X4129Y8230D02*
G03*
X4170Y8132I138J0D01*
G01*
X6172Y7962D02*
G03*
X6426Y7962I127J143D01*
G01*
X5918D02*
G03*
X6172Y7962I127J143D01*
G01*
X5600Y8105D02*
G03*
X5918Y7962I191J0D01*
G01*
X5944Y7758D02*
G03*
X5846Y7718I0J-138D01*
G01*
X5944Y7758D02*
G03*
X5846Y7718I0J-138D01*
G01*
X5672Y6796D02*
G03*
X5907Y6793I120J138D01*
G01*
X5694Y7108D02*
G03*
X5668Y7072I98J-98D01*
G01*
X5694Y7108D02*
G03*
X5668Y7072I98J-98D01*
G01*
X5483Y6566D02*
G03*
X5496Y6629I-150J63D01*
G01*
G03*
X5333Y6792I-163J0D01*
G01*
X5156Y7072D02*
G03*
X5065Y7037I0J-138D01*
G01*
X5156Y7072D02*
G03*
X5065Y7037I0J-138D01*
G01*
X5233Y6792D02*
G03*
X5207Y6790I0J-163D01*
G01*
X6075Y6540D02*
G03*
X6100Y6506I122J64D01*
G01*
X6075Y6540D02*
G03*
X6100Y6506I122J64D01*
G01*
X6270Y6336D02*
G03*
X6198Y6273I80J-164D01*
G01*
X5694Y6549D02*
G03*
X5653Y6452I98J-98D01*
G01*
X5694Y6549D02*
G03*
X5653Y6452I98J-98D01*
G01*
X6315Y5993D02*
G03*
X6514Y6092I35J179D01*
G01*
X6198Y6273D02*
G03*
X5929Y6313I-152J-101D01*
G01*
X6071Y5806D02*
G03*
X6168Y5846I0J138D01*
G01*
X6071Y5806D02*
G03*
X6168Y5846I0J138D01*
G01*
X5653Y6292D02*
G03*
X5609Y6158I138J-120D01*
G01*
X5496Y6502D02*
G03*
X5483Y6566I-163J0D01*
G01*
X5483Y6439D02*
G03*
X5496Y6502I-150J63D01*
G01*
X5496Y6375D02*
G03*
X5483Y6439I-163J0D01*
G01*
X5445Y6257D02*
G03*
X5496Y6375I-111J119D01*
G01*
X5338Y5846D02*
G03*
X5436Y5806I98J98D01*
G01*
X5338Y5846D02*
G03*
X5436Y5806I98J98D01*
G01*
X4978Y7888D02*
G03*
X5076Y7929I0J138D01*
G01*
X4978Y7888D02*
G03*
X5076Y7929I0J138D01*
G01*
X5065Y7670D02*
G03*
X4730Y7787I-188J0D01*
G01*
X4713Y7579D02*
G03*
X5065Y7670I164J91D01*
G01*
X4670Y7370D02*
G03*
X4710Y7468I-98J98D01*
G01*
X4670Y7370D02*
G03*
X4710Y7468I-98J98D01*
G01*
X4373Y7929D02*
G03*
X4470Y7888I98J98D01*
G01*
X4373Y7929D02*
G03*
X4470Y7888I98J98D01*
G01*
X4730Y7787D02*
G03*
X4434Y7577I-158J-91D01*
G01*
X4369Y7460D02*
G03*
X4404Y7569I-153J109D01*
G01*
G03*
X4078Y7442I-188J0D01*
G01*
G03*
X4041Y7249I138J-127D01*
G01*
X4872Y6245D02*
G03*
X4924Y6278I-46J130D01*
G01*
X4420Y7177D02*
G03*
X4517Y7218I0J138D01*
G01*
X4500Y6405D02*
G03*
X4513Y6393I98J98D01*
G01*
X4500Y6405D02*
G03*
X4513Y6393I98J98D01*
G01*
X4434Y6528D02*
G03*
X4474Y6430I138J0D01*
G01*
X4434Y6528D02*
G03*
X4474Y6430I138J0D01*
G01*
X4967Y6274D02*
G03*
X5008Y6176I138J0D01*
G01*
X4967Y6274D02*
G03*
X5008Y6176I138J0D01*
G01*
X4872Y6245D02*
G03*
X4924Y6278I-46J130D01*
G01*
X4774Y6213D02*
G03*
X4872Y6245I0J163D01*
G01*
X4513Y6393D02*
G03*
X4674Y6213I162J-18D01*
G01*
X4420Y7177D02*
G03*
X4517Y7218I0J138D01*
G01*
X4652Y7098D02*
G03*
X4404Y7006I-80J-164D01*
G01*
X4400Y6874D02*
G03*
X4434Y6815I172J61D01*
G01*
X8948Y10668D02*
X9627D01*
X8948Y10617D02*
X9627D01*
X8889Y10770D02*
X9627D01*
X8931Y10719D02*
X9627D01*
X8950Y10516D02*
X9627D01*
X8948Y10414D02*
X9627D01*
X8942Y10566D02*
X9627D01*
X8942Y10465D02*
X9627D01*
X8890Y10769D02*
Y11084D01*
X8839Y10797D02*
Y11085D01*
X8941Y10697D02*
Y11084D01*
X8788Y10805D02*
Y11086D01*
X8738Y10805D02*
Y11086D01*
X8941Y10570D02*
Y10588D01*
Y10443D02*
Y10461D01*
X8687Y10805D02*
Y11087D01*
X8688Y10805D02*
X8788D01*
X9398Y9492D02*
Y11078D01*
X9347Y9543D02*
Y11078D01*
X9449Y9441D02*
Y11077D01*
X9246Y9644D02*
Y11080D01*
X9195Y9711D02*
Y11080D01*
X9296Y9593D02*
Y11079D01*
X8948Y10363D02*
X9627D01*
X9093Y9782D02*
Y11082D01*
X9144Y9759D02*
Y11081D01*
X8931Y10312D02*
X9627D01*
X8889Y10262D02*
X9627D01*
X9042Y9789D02*
Y11082D01*
X8992Y9782D02*
Y11083D01*
X8941Y9759D02*
Y10334D01*
X8839Y9782D02*
Y10234D01*
X8788Y9789D02*
Y10226D01*
X8890Y9759D02*
Y10262D01*
X8688Y10226D02*
X8788D01*
X8738Y9782D02*
Y10226D01*
X8636Y10797D02*
Y11088D01*
X8585Y10781D02*
Y11089D01*
X8433Y10781D02*
Y11091D01*
X8382Y10781D02*
Y11091D01*
X8331Y10781D02*
Y11092D01*
X8280Y10781D02*
Y11093D01*
X8534Y10781D02*
Y11089D01*
X8484Y10781D02*
Y11090D01*
X8214Y10781D02*
X8602D01*
X8214Y10504D02*
X8277D01*
X8179Y10805D02*
Y11094D01*
X8128Y10805D02*
Y11095D01*
X8230Y10781D02*
Y11093D01*
X8077Y10805D02*
Y11095D01*
X8026Y10805D02*
Y11096D01*
X8230Y10457D02*
Y10504D01*
X8214Y10781D02*
Y10805D01*
Y10441D02*
X8277Y10504D01*
X7839Y10805D02*
X8214D01*
Y10465D02*
X8237D01*
X8476Y10312D02*
X8544D01*
X8585Y9612D02*
Y10262D01*
X8444Y10281D02*
X8527Y10364D01*
X8444Y10262D02*
X8586D01*
X8444Y10211D02*
X9627D01*
X8687Y9759D02*
Y10226D01*
X8636Y9711D02*
Y10234D01*
X8444Y10160D02*
X9627D01*
X8444Y10109D02*
X9627D01*
X8214Y10441D02*
Y10504D01*
X8208Y10435D02*
X8214Y10441D01*
X8534Y9612D02*
Y10334D01*
X8444Y9821D02*
Y10281D01*
X8484Y9778D02*
Y10320D01*
X7911Y10160D02*
X7990D01*
X7901Y10109D02*
X7990D01*
X9289Y9601D02*
X9627D01*
X9339Y9550D02*
X9627D01*
X9390Y9500D02*
X9627D01*
X9152Y9754D02*
X9627D01*
X9200Y9703D02*
X9627D01*
X9238Y9652D02*
X9627D01*
X9485Y9347D02*
X9627D01*
X9485Y9296D02*
X9627D01*
X9485Y9246D02*
X9627D01*
X9441Y9449D02*
X9627D01*
X9476Y9398D02*
X9627D01*
X9215Y9675D02*
X9445Y9445D01*
X8898Y9754D02*
X8933D01*
X9485Y9195D02*
X9627D01*
X9485Y9144D02*
X9627D01*
X9485Y9093D02*
X9627D01*
X9485Y9042D02*
X9627D01*
X9485Y8992D02*
X9627D01*
X9485Y8941D02*
X9627D01*
X9485Y8890D02*
X9627D01*
X9485Y8839D02*
X9627D01*
X8867Y8906D02*
X9209D01*
X8882Y8890D02*
X9209D01*
X8933Y8839D02*
X9209D01*
X9485Y8788D02*
X9627D01*
X9485Y8738D02*
X9627D01*
X9485Y8687D02*
X9627D01*
X8984Y8788D02*
X9209D01*
X9485Y8636D02*
X9627D01*
X9093Y8679D02*
Y8906D01*
X9042Y8730D02*
Y8906D01*
X9144Y8628D02*
Y8906D01*
X8855Y8917D02*
X8867Y8906D01*
X8992Y8781D02*
Y8906D01*
X9035Y8738D02*
X9209D01*
X9085Y8687D02*
X9209D01*
X9136Y8636D02*
X9209D01*
X8890Y8882D02*
Y8906D01*
X8941Y8831D02*
Y8906D01*
X8444Y10058D02*
X9627D01*
X8444Y10008D02*
X9627D01*
X8463Y9804D02*
X9627D01*
X8444Y9957D02*
X9627D01*
X8444Y9906D02*
X9627D01*
X8444Y9855D02*
X9627D01*
X8497Y9754D02*
X8679D01*
X8512Y9703D02*
X8631D01*
X7855Y9209D02*
X8641D01*
X7841Y9195D02*
X8631D01*
X7866Y10058D02*
X7990D01*
X7860Y10008D02*
X7990D01*
X7967Y9855D02*
X7990D01*
X7860Y9957D02*
X7990D01*
X7860Y9906D02*
X7990D01*
X8512Y9652D02*
X8608D01*
X8502Y9612D02*
X8601D01*
X7790Y9144D02*
X8608D01*
X8585Y9054D02*
Y9209D01*
X8534Y9054D02*
Y9209D01*
X8433Y9067D02*
Y9209D01*
X8484Y9054D02*
Y9209D01*
X8373Y9093D02*
X8601D01*
X8382Y9091D02*
Y9209D01*
X8451Y9054D02*
X8605D01*
X8331Y9098D02*
Y9209D01*
X8280Y9091D02*
Y9209D01*
X8179Y9091D02*
Y9209D01*
X8230Y9067D02*
Y9209D01*
X8128Y9098D02*
Y9209D01*
X8077Y9091D02*
Y9209D01*
X8170Y9093D02*
X8289D01*
X8026Y9067D02*
Y9209D01*
X7967Y9093D02*
X8086D01*
X7823Y10798D02*
Y11099D01*
X7772Y10805D02*
Y11100D01*
X7722Y10798D02*
Y11100D01*
X7671Y10775D02*
Y11101D01*
X7569Y10798D02*
Y11102D01*
X7620Y10775D02*
Y11102D01*
X7976Y10805D02*
Y11097D01*
X7925Y10805D02*
Y11098D01*
X7874Y10805D02*
Y11098D01*
X7518Y10805D02*
Y11103D01*
X7839Y10793D02*
Y10805D01*
X7214Y10798D02*
Y11107D01*
X7061Y10798D02*
Y11109D01*
X7163Y10775D02*
Y11108D01*
X7010Y10805D02*
Y11110D01*
X6960Y10798D02*
Y11111D01*
X7468Y10798D02*
Y11104D01*
X7417Y10775D02*
Y11104D01*
X7366Y10775D02*
Y11105D01*
X7264Y10805D02*
Y11106D01*
X7315Y10798D02*
Y11106D01*
X7976Y9853D02*
Y10183D01*
X7925Y9860D02*
Y10205D01*
X7990Y9848D02*
Y10179D01*
X7628Y10770D02*
X7663D01*
X7911Y10160D02*
Y10216D01*
X7874Y9853D02*
Y10066D01*
X7860Y10052D02*
X7870Y10062D01*
X7860Y9848D02*
Y10052D01*
X7374Y10770D02*
X7409D01*
X7112Y10775D02*
Y11109D01*
X6909Y10775D02*
Y11111D01*
X7120Y10770D02*
X7155D01*
X7010Y10152D02*
Y10175D01*
X6960Y10101D02*
Y10183D01*
X6909Y10051D02*
Y10200D01*
X6858Y10727D02*
Y11112D01*
X6807Y10476D02*
Y11113D01*
X6400Y10719D02*
X6853D01*
X6442Y10668D02*
X6830D01*
X6459Y10617D02*
X6823D01*
X6858Y10476D02*
Y10508D01*
X6459Y10566D02*
X6830D01*
X6453Y10516D02*
X6853D01*
X6461Y10476D02*
X6860D01*
X6604D02*
Y11115D01*
X6553Y10476D02*
Y11116D01*
X6502Y10476D02*
Y11117D01*
X6401Y10718D02*
Y11118D01*
X6452Y10647D02*
Y11117D01*
X6756Y10476D02*
Y11113D01*
X6706Y10476D02*
Y11114D01*
X6655Y10476D02*
Y11115D01*
X6452Y10520D02*
Y10537D01*
X6811Y9953D02*
X7035Y10177D01*
X6858Y10000D02*
Y10200D01*
X6807Y9949D02*
Y10200D01*
X6404D02*
X6918D01*
X6756Y9853D02*
Y10200D01*
X6545Y10058D02*
X6917D01*
X6596Y10008D02*
X6866D01*
X6631Y9957D02*
X6815D01*
X6444Y10160D02*
X7018D01*
X6495Y10109D02*
X6967D01*
X6706Y9860D02*
Y10200D01*
X6604Y10000D02*
Y10200D01*
X6655Y9853D02*
Y10200D01*
X6404D02*
X6600Y10004D01*
X6553Y10051D02*
Y10200D01*
X6452Y10152D02*
Y10200D01*
X6502Y10101D02*
Y10200D01*
X7860Y9855D02*
X7883D01*
X7576Y9336D02*
X7591D01*
X7569Y9314D02*
Y9330D01*
X7536Y9296D02*
X7552D01*
X7421Y9165D02*
X7591Y9336D01*
X7518Y9263D02*
Y9279D01*
X7485Y9246D02*
X7501D01*
X7468Y9212D02*
Y9228D01*
X7434Y9195D02*
X7450D01*
X7417Y9161D02*
Y9177D01*
X7264Y9416D02*
Y9502D01*
X7214Y9365D02*
Y9526D01*
X7163Y9314D02*
Y9502D01*
X7315Y9466D02*
Y9495D01*
X7154Y9500D02*
X7273D01*
X7112Y9263D02*
Y9495D01*
X7061Y9212D02*
Y9502D01*
X7014Y9165D02*
X7346Y9497D01*
X7976Y9091D02*
Y9209D01*
X7925Y9098D02*
Y9209D01*
X7874Y9091D02*
Y9209D01*
X7743Y9097D02*
X7855Y9209D01*
X7336Y9097D02*
X7576Y9336D01*
X7764Y9093D02*
X7883D01*
X7772Y9091D02*
Y9126D01*
X7823Y9067D02*
Y9177D01*
X7384Y9144D02*
X7403D01*
X7366Y9091D02*
Y9126D01*
X7010Y9161D02*
Y9526D01*
X7357Y9093D02*
X7383D01*
X7092Y8636D02*
X7196D01*
X7112Y8623D02*
Y8720D01*
X7061Y8649D02*
Y8740D01*
X6951Y9500D02*
X7070D01*
X6909Y9098D02*
Y9495D01*
X6951Y9093D02*
X6976D01*
X6748Y9500D02*
X6867D01*
X6748Y9093D02*
X6867D01*
X6640Y9906D02*
X6780D01*
X6748Y9855D02*
X6771D01*
X6640Y9848D02*
Y9906D01*
Y9855D02*
X6664D01*
X6706Y9098D02*
Y9495D01*
X6544Y9500D02*
X6664D01*
X6544Y9093D02*
X6664D01*
X6364Y9797D02*
Y9849D01*
X6502Y9098D02*
Y9495D01*
X6960Y9091D02*
Y9502D01*
X6858Y9091D02*
Y9502D01*
X7010Y8656D02*
Y8764D01*
X6951Y8738D02*
X7070D01*
X6748D02*
X6867D01*
X6960Y8649D02*
Y8740D01*
X6640Y8687D02*
X7145D01*
X6640Y8636D02*
X6929D01*
X6756Y9091D02*
Y9502D01*
X6655Y9091D02*
Y9502D01*
X6807Y9067D02*
Y9526D01*
X6604Y9067D02*
Y9526D01*
X6401Y9067D02*
Y9526D01*
X6640Y8738D02*
X6664D01*
X6553Y9091D02*
Y9502D01*
X6452Y9091D02*
Y9502D01*
X9485Y8585D02*
X9627D01*
X9485Y8534D02*
X9627D01*
X9485Y8484D02*
X9627D01*
X9485Y8433D02*
X9627D01*
X9485Y8382D02*
X9627D01*
X9485Y8331D02*
X9627D01*
X9485Y8280D02*
X9627D01*
X9485Y8230D02*
X9627D01*
X9485Y8179D02*
X9627D01*
X9485Y8128D02*
X9627D01*
X9485Y8077D02*
X9627D01*
X9485Y8026D02*
X9627D01*
X9209Y8563D02*
Y8906D01*
X9485Y7950D02*
Y9347D01*
X9195Y8577D02*
Y8906D01*
X9187Y8585D02*
X9209D01*
X9485Y7976D02*
X9627D01*
X9483Y7925D02*
X9627D01*
X9462Y7874D02*
X9627D01*
X9416Y7823D02*
X9627D01*
Y5715D02*
Y11074D01*
X9601Y5715D02*
Y11075D01*
X9365Y7772D02*
X9627D01*
X9314Y7722D02*
X9627D01*
X9263Y7671D02*
X9627D01*
X9234Y7518D02*
X9627D01*
X9268Y7468D02*
X9627D01*
X9283Y7417D02*
X9627D01*
X9212Y7620D02*
X9627D01*
X9162Y7569D02*
X9627D01*
X9550Y5715D02*
Y11075D01*
X9500Y5715D02*
Y11076D01*
X9449Y5715D02*
Y7857D01*
X9160Y7568D02*
X9445Y7853D01*
X9398Y5715D02*
Y7806D01*
X9347Y5715D02*
Y7755D01*
X9246Y7505D02*
Y7653D01*
X9296Y5715D02*
Y7704D01*
X9195Y7551D02*
Y7602D01*
X8867Y8906D02*
X9209Y8563D01*
X8420Y8382D02*
X8447D01*
Y8305D02*
Y8426D01*
X8425Y8331D02*
X8447D01*
X6756Y7787D02*
X8988D01*
X8960Y7758D02*
X8988Y7787D01*
X8941Y7758D02*
Y7787D01*
X8890Y7758D02*
Y7787D01*
X8839Y7758D02*
Y7787D01*
X8788Y7758D02*
Y7787D01*
X8433Y8323D02*
Y8402D01*
X7722Y8346D02*
X7817D01*
X8399Y8358D02*
X8429Y8327D01*
X7772Y8335D02*
Y8346D01*
X7633Y8331D02*
X7759D01*
X8738Y7758D02*
Y7787D01*
X8687Y7758D02*
Y7787D01*
X8636Y7758D02*
Y7787D01*
X8585Y7758D02*
Y7787D01*
X8534Y7758D02*
Y7787D01*
X8484Y7758D02*
Y7787D01*
X8433Y7758D02*
Y7787D01*
X8382Y7758D02*
Y7787D01*
X8331Y7758D02*
Y7787D01*
X8280Y7758D02*
Y7787D01*
X8230Y7758D02*
Y7787D01*
X8179Y7758D02*
Y7787D01*
X8128Y7758D02*
Y7787D01*
X8077Y7758D02*
Y7787D01*
X8026Y7758D02*
Y7787D01*
X7976Y7758D02*
Y7787D01*
X7925Y7758D02*
Y7787D01*
X7874Y7758D02*
Y7787D01*
X7823Y7758D02*
Y7787D01*
X7772Y7758D02*
Y7787D01*
X9285Y7366D02*
X9627D01*
X9283Y7315D02*
X9627D01*
X9268Y7264D02*
X9627D01*
X9234Y7214D02*
X9627D01*
X9157Y7163D02*
X9627D01*
X8781Y7112D02*
X9627D01*
X8730Y7061D02*
X9627D01*
X8679Y7010D02*
X9627D01*
X8628Y6960D02*
X9627D01*
X8577Y6909D02*
X9627D01*
X8527Y6858D02*
X9627D01*
X9285Y7343D02*
Y7389D01*
X8903Y7163D02*
X9029D01*
X8429Y6760D02*
X8821Y7153D01*
X8476Y6807D02*
X9627D01*
X8425Y6756D02*
X9627D01*
X8191Y6720D02*
X8331D01*
X9246Y5715D02*
Y7227D01*
X9195Y5715D02*
Y7181D01*
X9144Y5715D02*
Y7159D01*
X9042Y5715D02*
Y7159D01*
X8992Y5715D02*
Y7181D01*
X8941Y5715D02*
Y7181D01*
X9093Y5715D02*
Y7152D01*
X8890Y5715D02*
Y7159D01*
X8839Y5715D02*
Y7152D01*
X8788Y5715D02*
Y7120D01*
X8738Y5715D02*
Y7069D01*
X8687Y5715D02*
Y7018D01*
X8636Y5715D02*
Y6967D01*
X8585Y5715D02*
Y6917D01*
X8534Y5715D02*
Y6866D01*
X8484Y5715D02*
Y6815D01*
X8433Y5715D02*
Y6764D01*
X8382Y5715D02*
Y6730D01*
X8331Y5715D02*
Y6720D01*
X8280Y5715D02*
Y6720D01*
X8230Y5715D02*
Y6720D01*
X8177Y6706D02*
X9627D01*
X8126Y6655D02*
X9627D01*
X8075Y6604D02*
X9627D01*
X8025Y6553D02*
X9627D01*
X7974Y6502D02*
X9627D01*
X7933Y6452D02*
X9627D01*
X8004Y6350D02*
X9627D01*
X8011Y6299D02*
X9627D01*
X8004Y6248D02*
X9627D01*
X7981Y6401D02*
X9627D01*
X7981Y6198D02*
X9627D01*
X7772Y7104D02*
Y7159D01*
X7737Y7068D02*
X7820Y7152D01*
X7633Y7163D02*
X7759D01*
X7307Y7112D02*
X7780D01*
X7927Y6456D02*
X8191Y6720D01*
X7976Y6409D02*
Y6504D01*
X8179Y5715D02*
Y6707D01*
X8128Y5715D02*
Y6657D01*
X8077Y5715D02*
Y6606D01*
X7981Y6147D02*
X9627D01*
X8026Y5715D02*
Y6555D01*
X8004Y6096D02*
X9627D01*
X8011Y6045D02*
X9627D01*
X8004Y5994D02*
X9627D01*
X7981Y5944D02*
X9627D01*
X7933Y5893D02*
X9627D01*
X7976Y6155D02*
Y6190D01*
X7823Y6045D02*
X7998D01*
X7823Y5870D02*
Y6045D01*
X7976Y5715D02*
Y5936D01*
X7925Y5715D02*
Y5887D01*
X7874Y5715D02*
Y5865D01*
X7823Y5715D02*
Y5858D01*
X7772Y5715D02*
Y5865D01*
X7358Y8484D02*
X7518D01*
X7366Y8335D02*
Y8402D01*
X7175Y8433D02*
X7353D01*
X7150Y8382D02*
X7379D01*
X7722Y8313D02*
Y8346D01*
X7620Y8335D02*
Y8344D01*
X7671Y8313D02*
Y8355D01*
X7379Y8331D02*
X7437D01*
X7175Y8534D02*
X7312D01*
X7163Y8565D02*
Y8669D01*
X7264Y8335D02*
Y8568D01*
X7150Y8585D02*
X7247D01*
X7099Y8733D02*
X7268Y8564D01*
X7183Y8484D02*
X7346D01*
X7315Y8342D02*
Y8533D01*
X7125Y8331D02*
X7251D01*
X7112Y8335D02*
Y8344D01*
X7722Y7758D02*
Y7787D01*
X7417Y8313D02*
Y8344D01*
X7671Y7758D02*
Y7787D01*
X7620Y7758D02*
Y7787D01*
X7569Y7758D02*
Y7787D01*
X7518Y7758D02*
Y7787D01*
X7468Y7758D02*
Y7787D01*
X7417Y7758D02*
Y7787D01*
X7315Y8128D02*
Y8330D01*
X7366Y7758D02*
Y7787D01*
X7214Y8313D02*
Y8618D01*
X7163Y8313D02*
Y8402D01*
X7315Y7758D02*
Y7787D01*
X7264Y7758D02*
Y7787D01*
X7214Y7758D02*
Y7787D01*
X7163Y7758D02*
Y7787D01*
X7112Y7758D02*
Y7787D01*
X6909Y8623D02*
Y8733D01*
X6858Y8565D02*
Y8740D01*
X6640Y8585D02*
X6871D01*
X6640Y8534D02*
X6845D01*
X6640Y8484D02*
X6838D01*
X6871Y8331D02*
X6929D01*
X6858Y8335D02*
Y8402D01*
X6909Y8313D02*
Y8344D01*
X6631Y8433D02*
X6845D01*
X6596Y8382D02*
X6871D01*
X6807Y8342D02*
Y8764D01*
X6756Y8335D02*
Y8740D01*
X6706Y8313D02*
Y8733D01*
X6364Y8612D02*
Y8796D01*
X6640Y8484D02*
Y8745D01*
X6617Y8331D02*
X6743D01*
X6556Y8342D02*
X6600Y8386D01*
X6604Y8335D02*
Y8390D01*
X7061Y7758D02*
Y7787D01*
X7010Y7758D02*
Y7787D01*
X6960Y7758D02*
Y7787D01*
X6706Y7758D02*
Y7796D01*
X6655Y8313D02*
Y8740D01*
X6502Y7758D02*
Y7921D01*
X6452Y7758D02*
Y7943D01*
X6401Y7758D02*
Y7943D01*
X6571Y7915D02*
X6659Y7827D01*
X6655Y7758D02*
Y7831D01*
X6604Y7758D02*
Y7882D01*
X6363Y7925D02*
X6489D01*
X6553Y7758D02*
Y7914D01*
X7722Y7074D02*
Y7181D01*
X7671Y7082D02*
Y7181D01*
X7620Y7074D02*
Y7159D01*
X7569Y7164D02*
Y7366D01*
X7518Y6990D02*
Y7159D01*
X7671Y6909D02*
Y7069D01*
X7569Y7048D02*
Y7152D01*
X7511Y6909D02*
X7671D01*
X7257Y7061D02*
X7590D01*
X7206Y7010D02*
X7531D01*
X7379Y7163D02*
X7505D01*
X7468Y6844D02*
Y7181D01*
X7417Y6844D02*
Y7181D01*
X7366Y6834D02*
Y7159D01*
X7417Y6844D02*
X7511D01*
X7315Y6799D02*
Y7120D01*
X7264Y6749D02*
Y7069D01*
X7679Y5893D02*
X7714D01*
X7722Y5715D02*
Y5887D01*
X7425Y5893D02*
X7460D01*
X7671Y5715D02*
Y5887D01*
X7620Y5715D02*
Y5865D01*
X7569Y5715D02*
Y5858D01*
X7518Y5715D02*
Y5865D01*
X7468Y5715D02*
Y5887D01*
X7218Y6702D02*
X7319Y6803D01*
X7214Y6698D02*
Y7018D01*
X7171Y5893D02*
X7206D01*
X7417Y5715D02*
Y5887D01*
X7366Y5715D02*
Y5865D01*
X7315Y5715D02*
Y5858D01*
X7264Y5715D02*
Y5865D01*
X7214Y5715D02*
Y5887D01*
X7155Y6960D02*
X7506D01*
X7104Y6909D02*
X7498D01*
X7163Y6647D02*
Y6967D01*
X7074Y6858D02*
X7506D01*
X7080Y6884D02*
X7350Y7155D01*
X7048Y6807D02*
X7323D01*
X7053Y6756D02*
X7272D01*
X7104Y6706D02*
X7221D01*
X7155Y6655D02*
X7187D01*
X7027Y6783D02*
X7180Y6630D01*
X6909Y7758D02*
Y7787D01*
X6858Y7758D02*
Y7787D01*
X7112Y6698D02*
Y6917D01*
X6807Y7758D02*
Y7787D01*
X6756Y7758D02*
Y7787D01*
X7061Y6749D02*
Y6828D01*
X6514Y6092D02*
X6619Y5987D01*
X6481Y6045D02*
X6561D01*
X6392Y5994D02*
X6612D01*
X7163Y5715D02*
Y5887D01*
X7112Y5715D02*
Y5865D01*
X7061Y5715D02*
Y5858D01*
X6995D02*
Y5870D01*
X7010Y5715D02*
Y5865D01*
X6960Y5715D02*
Y5858D01*
X6909Y5715D02*
Y5858D01*
X6858Y5715D02*
Y5858D01*
X6619D02*
X6995D01*
X6807Y5715D02*
Y5858D01*
X6604Y5715D02*
Y6002D01*
X6553Y5715D02*
Y6053D01*
X6502Y5715D02*
Y6071D01*
X6452Y5715D02*
Y6020D01*
X6401Y5715D02*
Y5997D01*
X6756Y5715D02*
Y5858D01*
X6706Y5715D02*
Y5858D01*
X6655Y5715D02*
Y5858D01*
X6619D02*
Y5987D01*
X6350Y5715D02*
Y5990D01*
X6299Y10754D02*
Y11120D01*
X6248Y10754D02*
Y11120D01*
X6350Y10746D02*
Y11119D01*
X6198Y10754D02*
Y11121D01*
X6147Y10746D02*
Y11122D01*
X6096Y10718D02*
Y11122D01*
X6198Y10754D02*
X6298D01*
X6045Y10647D02*
Y11123D01*
X5948Y10164D02*
X6075Y10037D01*
X5994Y10559D02*
Y11124D01*
X5948Y10512D02*
X5998Y10562D01*
X5944Y10508D02*
Y11124D01*
X5907Y10262D02*
Y10414D01*
X6217Y9996D02*
X6364Y9849D01*
X6172Y9996D02*
X6217D01*
X6096Y8565D02*
Y10019D01*
X6045Y8342D02*
Y10066D01*
X6350Y9778D02*
Y9863D01*
X6248Y8656D02*
Y9965D01*
X6299Y8649D02*
Y9914D01*
X6198Y8649D02*
Y9996D01*
X6147Y8623D02*
Y9999D01*
X5842Y8335D02*
Y11126D01*
X5791Y8342D02*
Y11126D01*
X5893Y8313D02*
Y11125D01*
X5385Y9588D02*
Y11132D01*
X5740Y8335D02*
Y11127D01*
X5994Y8335D02*
Y10117D01*
X5944Y8313D02*
Y10168D01*
X5690Y8313D02*
Y11128D01*
X5436Y9530D02*
Y11131D01*
X5639Y8267D02*
Y11129D01*
X5190Y10973D02*
X9627D01*
X5238Y10922D02*
X9627D01*
X5261Y10871D02*
X9627D01*
X4013Y11151D02*
X9627Y11074D01*
X4013D02*
X9627D01*
X4013Y11024D02*
X9627D01*
X5268Y10820D02*
X9627D01*
X5261Y10770D02*
X6901D01*
X5238Y10719D02*
X6097D01*
X5218Y10668D02*
X6055D01*
X5218Y10617D02*
X6038D01*
X5182Y10978D02*
Y11135D01*
X5131Y11001D02*
Y11135D01*
X5232Y10930D02*
Y11134D01*
X4013Y11125D02*
X5884D01*
X5218Y10566D02*
X6002D01*
X5218Y10516D02*
X5951D01*
X5218Y10465D02*
X5917D01*
X5218Y10414D02*
X5907D01*
X5282Y10160D02*
X5951D01*
X5275Y10211D02*
X5917D01*
X5275Y10109D02*
X6002D01*
X5218Y10363D02*
X5907D01*
X5254Y10058D02*
X6053D01*
X5218Y9957D02*
X6256D01*
X5218Y10008D02*
X6118D01*
X5218Y9906D02*
X6307D01*
X5218Y9855D02*
X6358D01*
X5218Y9804D02*
X6364D01*
X5283Y9644D02*
Y11133D01*
X5232Y10292D02*
Y10711D01*
X5334Y9614D02*
Y11133D01*
X5218Y10312D02*
X5907D01*
X5218Y10307D02*
Y10693D01*
X5254Y10262D02*
X5907D01*
X5232Y9695D02*
Y10028D01*
X5218Y9709D02*
Y10013D01*
X5448Y9500D02*
X6460D01*
X5456Y9449D02*
X7298D01*
X5448Y9398D02*
X7247D01*
X5423Y9347D02*
X7196D01*
X5421Y9296D02*
X7145D01*
X5421Y9246D02*
X7094D01*
X5421Y9195D02*
X7044D01*
X5421Y9144D02*
X6997D01*
X5419Y9093D02*
X6460D01*
X5423Y9550D02*
X6371D01*
X6350Y9016D02*
Y9577D01*
X5364Y9601D02*
X6336D01*
X5421Y9119D02*
Y9345D01*
X5398Y9042D02*
X6371D01*
X6330Y8636D02*
X6364D01*
X6350Y8623D02*
Y8815D01*
X6248Y8484D02*
Y8644D01*
X6096Y8335D02*
Y8402D01*
X6147Y8313D02*
Y8344D01*
X6088Y8484D02*
X6248D01*
X5448Y8382D02*
X6109D01*
X6109Y8331D02*
X6167D01*
X6109Y7925D02*
X6235D01*
X5855Y8331D02*
X5981D01*
X5436Y8412D02*
Y9368D01*
X5385Y8471D02*
Y9025D01*
X5423Y8433D02*
X6083D01*
X5456Y8331D02*
X5727D01*
X5600Y8105D02*
Y8151D01*
X5855Y7925D02*
X5981D01*
X5448Y8280D02*
X5650D01*
X5423Y8230D02*
X5617D01*
X5275Y9652D02*
X6321D01*
X5352Y8992D02*
X6336D01*
X5218Y9754D02*
X6336D01*
X5225Y9703D02*
X6321D01*
X5217Y8857D02*
X5381Y9021D01*
X5301Y8941D02*
X6321D01*
X5250Y8890D02*
X6321D01*
X5217Y8839D02*
X6336D01*
X5209Y8788D02*
X6364D01*
X5181Y8738D02*
X6364D01*
X5218Y9709D02*
X5308Y9620D01*
X5145Y9176D02*
Y9345D01*
X5131Y9162D02*
Y9368D01*
X4661Y9347D02*
X5144D01*
X4602Y9296D02*
X5145D01*
X5071Y9102D02*
X5145Y9176D01*
X5217Y8840D02*
Y8857D01*
X4013Y9246D02*
X5145D01*
X4013Y9195D02*
X5145D01*
X5109Y8687D02*
X6364D01*
X4717Y8636D02*
X6167D01*
X5364Y8484D02*
X6076D01*
X4666Y8585D02*
X6109D01*
X4615Y8534D02*
X6083D01*
X5364Y8179D02*
X5602D01*
X5275Y8128D02*
X5600D01*
X5225Y8077D02*
X5602D01*
X5174Y8026D02*
X5617D01*
X5123Y7976D02*
X5650D01*
X5334Y8496D02*
Y8974D01*
X5283Y8504D02*
Y8923D01*
X5232Y8496D02*
Y8872D01*
X5182Y8471D02*
Y8738D01*
X5076Y7929D02*
X5308Y8160D01*
X4602Y8484D02*
X5202D01*
X4661Y8433D02*
X5144D01*
X5080Y11008D02*
Y11136D01*
X4978Y11008D02*
Y11137D01*
X5029Y11001D02*
Y11137D01*
X4928Y11008D02*
Y11138D01*
X4877Y11008D02*
Y11139D01*
X4826Y11008D02*
Y11140D01*
X5014Y10996D02*
Y11008D01*
X4877Y10355D02*
Y10633D01*
X4928Y10334D02*
Y10633D01*
X4638Y11008D02*
X5014D01*
X4638Y10633D02*
X4942D01*
X4775Y11008D02*
Y11140D01*
X4724Y11008D02*
Y11141D01*
X4826Y10820D02*
Y10995D01*
X4674Y11008D02*
Y11142D01*
X4638Y10633D02*
Y11008D01*
X4826Y10645D02*
Y10820D01*
Y10362D02*
Y10633D01*
X4775Y10355D02*
Y10633D01*
X4651Y10820D02*
X4826D01*
X4724Y10334D02*
Y10633D01*
X4942Y10325D02*
Y10633D01*
Y9652D02*
Y9995D01*
X4928Y9103D02*
Y9986D01*
X4982Y9554D02*
X5112Y9424D01*
X5029Y9101D02*
Y9507D01*
X4978Y9095D02*
Y9558D01*
X4661Y9550D02*
X4986D01*
X4686Y9500D02*
X5037D01*
X4826Y10160D02*
Y10349D01*
X4674Y10292D02*
Y10633D01*
X4826Y9971D02*
Y10160D01*
X4637D02*
X4826D01*
X4623Y9588D02*
Y11142D01*
X4877Y9095D02*
Y9965D01*
X4826Y9101D02*
Y9958D01*
X4775Y9101D02*
Y9965D01*
X4674Y9530D02*
Y10028D01*
X4724Y9084D02*
Y9986D01*
X4013Y10617D02*
X4942D01*
X4013Y10566D02*
X4942D01*
X4013Y10516D02*
X4942D01*
X4013Y10465D02*
X4942D01*
X4013Y10414D02*
X4942D01*
X4013Y10363D02*
X4942D01*
X4013Y10312D02*
X4694D01*
X4013Y10262D02*
X4652D01*
X4013Y10058D02*
X4652D01*
X4013Y10008D02*
X4694D01*
X4013Y9957D02*
X4942D01*
X4013Y10973D02*
X4638D01*
X4013Y10922D02*
X4638D01*
X4013Y10871D02*
X4638D01*
X4013Y10820D02*
X4638D01*
X4013Y10770D02*
X4638D01*
X4013Y10719D02*
X4638D01*
X4013Y10668D02*
X4638D01*
X4013Y10211D02*
X4631D01*
X4013Y10160D02*
X4624D01*
X4013Y10109D02*
X4631D01*
X4013Y9906D02*
X4942D01*
X4521Y9621D02*
Y11144D01*
X4572Y9614D02*
Y11143D01*
X4013Y9855D02*
X4942D01*
X4013Y9804D02*
X4942D01*
X4602Y9601D02*
X4952D01*
X4013Y9754D02*
X4942D01*
X4013Y9703D02*
X4942D01*
X4013Y9652D02*
X4942D01*
X4470Y9614D02*
Y11144D01*
X4420Y9588D02*
Y11145D01*
X4369Y9530D02*
Y11146D01*
X4318Y8628D02*
Y11146D01*
X4267Y8577D02*
Y11147D01*
X4521Y9449D02*
Y9609D01*
X4216Y8527D02*
Y11148D01*
X4166Y8476D02*
Y11149D01*
X4013Y9601D02*
X4440D01*
X4013Y9550D02*
X4382D01*
X5080Y9111D02*
Y9457D01*
X4982Y9093D02*
X5000D01*
X4686Y9398D02*
X5118D01*
X4694Y9449D02*
X5088D01*
X4982Y8687D02*
X5000D01*
X5131Y8412D02*
Y8696D01*
X4855Y9093D02*
X4873D01*
X4855Y8687D02*
X4873D01*
X4674Y9042D02*
Y9368D01*
X4623Y8933D02*
Y9309D01*
X4572Y8882D02*
Y9284D01*
X4521Y9449D02*
X4681D01*
X4521Y9289D02*
Y9449D01*
X4623Y8471D02*
Y8542D01*
X4521Y8831D02*
Y9276D01*
X4576Y8495D02*
X4762Y8682D01*
X5080Y8323D02*
Y8679D01*
X5029Y8273D02*
Y8679D01*
X4978Y8222D02*
Y8685D01*
X4686Y8382D02*
X5118D01*
X4928Y8171D02*
Y8677D01*
X4694Y8331D02*
X5088D01*
X4686Y8280D02*
X5037D01*
X4921Y8164D02*
X5112Y8356D01*
X4661Y8230D02*
X4986D01*
X4602Y8179D02*
X4935D01*
X4877Y8164D02*
Y8685D01*
X4826Y8164D02*
Y8679D01*
X4775Y8164D02*
Y8679D01*
X4674Y8412D02*
Y8593D01*
X4724Y8164D02*
Y8644D01*
X4674Y8164D02*
Y8250D01*
X4623Y8164D02*
Y8192D01*
X4566Y8164D02*
X4921D01*
X4361Y9449D02*
X4521D01*
X4013Y9296D02*
X4440D01*
X4470Y8781D02*
Y9284D01*
X4013Y9144D02*
X5113D01*
X4013Y9093D02*
X4746D01*
X4013Y9042D02*
X4674D01*
X4013Y8992D02*
X4646D01*
X4013Y8941D02*
X4631D01*
X4013Y8890D02*
X4580D01*
X4013Y8839D02*
X4529D01*
X4013Y8788D02*
X4478D01*
X4013Y9500D02*
X4356D01*
X4013Y9449D02*
X4349D01*
X4369Y8679D02*
Y9368D01*
X4013Y9398D02*
X4356D01*
X4013Y9347D02*
X4382D01*
X4013Y8738D02*
X4427D01*
X4420Y8730D02*
Y9309D01*
X4013Y8687D02*
X4377D01*
X4013Y8636D02*
X4326D01*
X4013Y8585D02*
X4275D01*
X4170Y8480D02*
X4638Y8948D01*
X4013Y8534D02*
X4224D01*
X4013Y8484D02*
X4173D01*
X4521Y8331D02*
X4681D01*
X4013Y8077D02*
X4224D01*
X4170Y8132D02*
X4373Y7929D01*
X4013Y8026D02*
X4275D01*
X4013Y7976D02*
X4326D01*
X4013Y8433D02*
X4139D01*
X4013Y8382D02*
X4129D01*
Y8230D02*
Y8382D01*
X4013Y8331D02*
X4129D01*
X4013Y8280D02*
X4129D01*
X4013Y8230D02*
X4129D01*
X4013Y8179D02*
X4139D01*
X4013Y8128D02*
X4173D01*
X6350Y7758D02*
Y7921D01*
X6248Y7758D02*
Y7921D01*
X6198Y7758D02*
Y7943D01*
X6147Y7758D02*
Y7943D01*
X6299Y7758D02*
Y7914D01*
X6096Y7758D02*
Y7921D01*
X6045Y7758D02*
Y7914D01*
X5994Y7758D02*
Y7921D01*
X5944Y7758D02*
X8960D01*
X5944D02*
Y7943D01*
X5893Y7748D02*
Y7943D01*
X5842Y7714D02*
Y7921D01*
X5690Y7580D02*
Y7943D01*
X5791Y7663D02*
Y7914D01*
X5740Y7612D02*
Y7921D01*
X5709Y7580D02*
X5846Y7718D01*
X5907Y6763D02*
Y6793D01*
X5694Y7108D02*
X5737Y7152D01*
X5893Y6749D02*
Y6782D01*
X5600Y7152D02*
X5737D01*
X5600Y7580D02*
X5709D01*
X5833Y6756D02*
X5901D01*
X5842Y6698D02*
Y6759D01*
X5791Y6647D02*
Y6751D01*
X5740Y6596D02*
Y6759D01*
X5694Y6549D02*
X5907Y6763D01*
X5690Y7104D02*
Y7152D01*
X5639Y7580D02*
Y7989D01*
Y7072D02*
Y7152D01*
X5600D02*
Y7580D01*
X5588Y7072D02*
Y11129D01*
X5690Y6545D02*
Y6782D01*
X5639Y6273D02*
Y6796D01*
X5588Y6158D02*
Y6796D01*
X5057Y7722D02*
X5850D01*
X5072Y7925D02*
X5727D01*
X5064Y7671D02*
X5799D01*
X4986Y7823D02*
X6663D01*
X4614Y7874D02*
X6612D01*
X5034Y7772D02*
X8974D01*
X5058Y7620D02*
X5748D01*
X5035Y7569D02*
X5600D01*
X5065Y7112D02*
X5697D01*
X4987Y7518D02*
X5600D01*
X4710Y7468D02*
X5600D01*
X5537Y7072D02*
Y11130D01*
X5486Y7072D02*
Y11131D01*
X5436Y7072D02*
Y8250D01*
X4700Y7417D02*
X5600D01*
X5385Y7072D02*
Y8192D01*
X4666Y7366D02*
X5600D01*
X4615Y7315D02*
X5600D01*
X4564Y7264D02*
X5600D01*
X4513Y7214D02*
X5600D01*
X4404Y7163D02*
X5600D01*
X5486Y6684D02*
Y6796D01*
X5436Y6756D02*
Y6796D01*
X5537Y6164D02*
Y6796D01*
X5156Y7072D02*
X5668D01*
X5213Y6796D02*
X5672D01*
X5477Y6706D02*
X5850D01*
X5494Y6655D02*
X5799D01*
X5435Y6756D02*
X5749D01*
X5334Y7072D02*
Y8166D01*
X5283Y7072D02*
Y8136D01*
X5232Y7072D02*
Y8085D01*
X5182Y7072D02*
Y8034D01*
X5233Y6792D02*
X5333D01*
X5207Y6790D02*
X5213Y6796D01*
X5385Y6784D02*
Y6796D01*
X6100Y6506D02*
X6270Y6336D01*
X6147Y6324D02*
Y6459D01*
X6198Y6273D02*
Y6409D01*
X5987Y6452D02*
X6155D01*
X6248Y6324D02*
Y6358D01*
X6177Y6299D02*
X6219D01*
X5936Y6401D02*
X6205D01*
X6087Y6350D02*
X6256D01*
X5929Y6394D02*
X6075Y6540D01*
X6045Y6355D02*
Y6510D01*
X6096Y6348D02*
Y6510D01*
X6037Y6502D02*
X6104D01*
X5994Y6348D02*
Y6459D01*
X5944Y6324D02*
Y6409D01*
X5929Y6350D02*
X6003D01*
X5929Y6313D02*
Y6394D01*
X6266Y5944D02*
X6619D01*
X6299Y5715D02*
Y5977D01*
X6168Y5846D02*
X6315Y5993D01*
X6248Y5715D02*
Y5926D01*
X6164Y5842D02*
X9627D01*
X6215Y5893D02*
X6619D01*
X6198Y5715D02*
Y5875D01*
X6147Y5715D02*
Y5828D01*
X6096Y5715D02*
Y5808D01*
X6045Y5715D02*
Y5806D01*
X5994Y5715D02*
Y5806D01*
X5944Y5715D02*
Y5806D01*
X5893Y5715D02*
Y5806D01*
X5842Y5715D02*
Y5806D01*
X5791Y5715D02*
Y5806D01*
X5740Y5715D02*
Y5806D01*
X5690Y5715D02*
Y5806D01*
X5494Y6604D02*
X5748D01*
X5496Y6502D02*
X5663D01*
X5653Y6292D02*
Y6452D01*
X5488Y6553D02*
X5697D01*
X5488Y6452D02*
X5653D01*
X5494Y6401D02*
X5653D01*
X5494Y6350D02*
X5653D01*
X5504Y6198D02*
X5610D01*
X5477Y6299D02*
X5653D01*
X5453Y6248D02*
X5625D01*
X5486Y6557D02*
Y6575D01*
Y6430D02*
Y6448D01*
Y6215D02*
Y6321D01*
X5544Y6158D02*
X5609D01*
X5445Y6257D02*
X5544Y6158D01*
X4013Y5994D02*
X5189D01*
X5436Y5806D02*
X6071D01*
X5639Y5715D02*
Y5806D01*
X5588Y5715D02*
Y5806D01*
X4013Y5791D02*
X9627D01*
X5537Y5715D02*
Y5806D01*
X5486Y5715D02*
Y5806D01*
X4013Y5740D02*
X9627D01*
X4013Y5715D02*
X9627D01*
X5283D02*
Y5901D01*
X5232Y5715D02*
Y5951D01*
X5182Y5715D02*
Y6002D01*
X4013Y5944D02*
X5240D01*
X5008Y6176D02*
X5338Y5846D01*
X5436Y5715D02*
Y5806D01*
X5385Y5715D02*
Y5815D01*
X5334Y5715D02*
Y5850D01*
X4013Y5893D02*
X5291D01*
X4013Y5842D02*
X5342D01*
X5029Y7780D02*
Y7898D01*
X4470Y7888D02*
X4978D01*
X4928Y7851D02*
Y7888D01*
X4978Y7828D02*
Y7888D01*
X4877Y7858D02*
Y7888D01*
Y7670D02*
Y7845D01*
Y7670D02*
X5052D01*
X4826Y7851D02*
Y7888D01*
X4775Y7828D02*
Y7888D01*
X4674Y7848D02*
Y7888D01*
X4724Y7797D02*
Y7888D01*
X4623Y7872D02*
Y7888D01*
X4420Y7797D02*
Y7898D01*
X4703Y7823D02*
X4768D01*
X4572Y7879D02*
Y7888D01*
X4710Y7569D02*
X4719D01*
X4521Y7872D02*
Y7888D01*
X4470Y7848D02*
Y7888D01*
X5131Y7070D02*
Y7983D01*
X5029Y7148D02*
Y7561D01*
X5080Y7049D02*
Y7933D01*
X4877Y7495D02*
Y7670D01*
X4978Y7148D02*
Y7512D01*
X4928Y7148D02*
Y7490D01*
X4877Y7148D02*
Y7482D01*
X4826Y7148D02*
Y7490D01*
X4710Y7518D02*
X4766D01*
X4775Y7148D02*
Y7512D01*
X4710Y7468D02*
Y7577D01*
X4724Y7148D02*
Y7561D01*
X4434Y7525D02*
Y7577D01*
X4420Y7511D02*
Y7595D01*
X4623Y7110D02*
Y7323D01*
X4674Y7098D02*
Y7374D01*
X4517Y7218D02*
X4670Y7370D01*
X4572Y7117D02*
Y7272D01*
X4013Y7874D02*
X4530D01*
X4013Y7925D02*
X4377D01*
X4013Y7823D02*
X4441D01*
X4397Y7620D02*
X4406D01*
X4374Y7671D02*
X4391D01*
X4404Y7569D02*
X4434D01*
X4013Y7772D02*
X4406D01*
X4326Y7722D02*
X4391D01*
X4267Y7750D02*
Y8034D01*
X4216Y7757D02*
Y8085D01*
X4166Y7750D02*
Y8136D01*
X4115Y7727D02*
Y11149D01*
X4064Y7679D02*
Y11150D01*
X4318Y7727D02*
Y7983D01*
X4013Y7722D02*
X4107D01*
X4369Y7679D02*
Y7933D01*
X4013Y7671D02*
X4059D01*
X4013Y7620D02*
X4036D01*
X4216Y7569D02*
X4391D01*
X4216D02*
Y7744D01*
X4041Y7569D02*
X4216D01*
X4369Y7460D02*
X4434Y7525D01*
X4397Y7518D02*
X4427D01*
X4064Y7425D02*
Y7460D01*
X4013Y7468D02*
X4059D01*
X4013Y7569D02*
X4029D01*
X4013Y5715D02*
Y11151D01*
Y5715D02*
Y11151D01*
Y7518D02*
X4036D01*
X4013Y7417D02*
X4059D01*
X4029Y7249D02*
X4041D01*
X4013Y7366D02*
X4036D01*
X4029Y6874D02*
Y7249D01*
X4013Y7315D02*
X4029D01*
X4013Y7264D02*
X4036D01*
X5065Y7061D02*
X5102D01*
X5065Y7037D02*
Y7148D01*
X4710Y6792D02*
Y6815D01*
X4689Y7148D02*
X5065D01*
X4614Y7112D02*
X4689D01*
Y7098D02*
Y7148D01*
X4945Y6299D02*
X4967D01*
Y6274D02*
Y6321D01*
X4924Y6278D02*
X4967Y6321D01*
X4880Y6248D02*
X4970D01*
X4652Y7098D02*
X4689D01*
X4521Y7110D02*
Y7221D01*
X4470Y7086D02*
Y7187D01*
X4434Y6528D02*
Y6815D01*
X4474Y6430D02*
X4500Y6405D01*
X4928Y5715D02*
Y6282D01*
X4877Y5715D02*
Y6247D01*
X5131Y5715D02*
Y6053D01*
X5080Y5715D02*
Y6104D01*
X5029Y5715D02*
Y6155D01*
X4978Y5715D02*
Y6220D01*
X4826Y5715D02*
Y6221D01*
X4572Y5715D02*
Y6249D01*
X4521Y5715D02*
Y6321D01*
X4470Y5715D02*
Y6434D01*
X4674Y6213D02*
X4774D01*
X4775Y5715D02*
Y6213D01*
X4724Y5715D02*
Y6213D01*
X4674Y5715D02*
Y6213D01*
X4623Y5715D02*
Y6221D01*
X4404Y7177D02*
X4420D01*
Y7035D02*
Y7177D01*
X4404Y7112D02*
X4530D01*
X4404Y7061D02*
X4441D01*
X4013Y6807D02*
X4434D01*
X4013Y6756D02*
X4434D01*
X4013Y6706D02*
X4434D01*
X4013Y6655D02*
X4434D01*
X4013Y7214D02*
X4029D01*
X4013Y7163D02*
X4029D01*
X4404Y7006D02*
Y7177D01*
X4013Y7112D02*
X4029D01*
X4013Y7061D02*
X4029D01*
X4013Y7010D02*
X4029D01*
X4013Y6960D02*
X4029D01*
Y6874D02*
X4400D01*
X4013Y6909D02*
X4029D01*
X4013Y6858D02*
X4406D01*
X4013Y6452D02*
X4457D01*
X4013Y6604D02*
X4434D01*
X4013Y6401D02*
X4504D01*
X4013Y6350D02*
X4514D01*
X4013Y6299D02*
X4531D01*
X4013Y6198D02*
X4990D01*
X4013Y6248D02*
X4573D01*
X4013Y6147D02*
X5037D01*
X4013Y6096D02*
X5088D01*
X4013Y6045D02*
X5139D01*
X4369Y5715D02*
Y6874D01*
X4318Y5715D02*
Y6874D01*
X4267Y5715D02*
Y6874D01*
X4216Y5715D02*
Y6874D01*
X4166Y5715D02*
Y6874D01*
X4420Y5715D02*
Y6833D01*
X4115Y5715D02*
Y6874D01*
X4064Y5715D02*
Y6874D01*
X4013Y6553D02*
X4434D01*
X4013Y6502D02*
X4436D01*
D11*
X4901Y8711D02*
Y8864D01*
Y8738D02*
X5155Y8484D01*
X6248D01*
X4521Y8331D02*
X4901Y8711D01*
X5613Y10592D02*
X6325D01*
X4826Y10820D02*
X4978Y10973D01*
X4826Y10160D02*
Y10820D01*
X4978Y10973D02*
X5232D01*
X5613Y10592D01*
X8738Y10389D02*
X8890D01*
X8738Y9652D02*
Y10389D01*
X8890D02*
X8915Y10414D01*
Y10719D01*
X8839Y10795D02*
X8915Y10719D01*
X6528Y10795D02*
X8839D01*
X6325Y10592D02*
X6528Y10795D01*
X8738Y9652D02*
X8788Y9601D01*
X8915Y9474D02*
X9042Y9347D01*
X8077Y8128D02*
Y8280D01*
X7112Y8915D02*
Y9068D01*
Y8915D02*
X7366Y8661D01*
X7112Y9068D02*
X7518Y9474D01*
X8915D01*
X9042Y9601D02*
X9093D01*
X5791Y7366D02*
Y7468D01*
X9093Y9601D02*
X9347Y9347D01*
Y7950D02*
Y9347D01*
X9017Y7620D02*
X9347Y7950D01*
X5944Y7620D02*
X9017D01*
X5791Y7468D02*
X5944Y7620D01*
X7798Y9347D02*
X8788D01*
X8585Y8128D02*
Y8484D01*
X7518Y8915D02*
X7544D01*
X7518D02*
Y9068D01*
X7798Y9347D01*
X4597Y6502D02*
X4724D01*
X4572Y6934D02*
X4598Y6960D01*
X4572Y6528D02*
Y6934D01*
Y6528D02*
X4597Y6502D01*
X4572Y7468D02*
Y7696D01*
X4216Y7315D02*
X4420D01*
X4572Y7468D01*
X4598Y6960D02*
X4877D01*
X5156Y6934D02*
X5740D01*
X4724Y6375D02*
X4826D01*
X4953Y6731D02*
X5156Y6934D01*
X4953Y6502D02*
Y6731D01*
X4826Y6375D02*
X4953Y6502D01*
X6299Y6172D02*
X6350D01*
X5156Y6502D02*
X5283D01*
X5105Y6452D02*
X5156Y6502D01*
X5105Y6274D02*
Y6452D01*
Y6274D02*
X5436Y5944D01*
X6071D01*
X6299Y6172D01*
X6045Y6121D02*
Y6172D01*
X5258Y6350D02*
X5283Y6375D01*
X5258Y6248D02*
Y6350D01*
Y6248D02*
X5486Y6020D01*
X5944D01*
X6045Y6121D01*
Y6706D02*
Y6934D01*
X5791Y6172D02*
Y6452D01*
X6045Y6706D01*
Y7264D02*
Y7366D01*
X5791Y6934D02*
Y7010D01*
X6045Y7264D01*
X8484Y10516D02*
X8738D01*
X8306Y9677D02*
Y10338D01*
X8484Y10516D01*
X6502Y9677D02*
Y9906D01*
X6096Y10465D02*
X6248D01*
X6045Y10414D02*
X6096Y10465D01*
X6045Y10262D02*
Y10414D01*
Y10262D02*
X6172Y10135D01*
X6274D01*
X6502Y9906D01*
X7417Y6401D02*
Y6502D01*
X6782Y6833D02*
X7163Y6452D01*
X6706D02*
X6858D01*
X6553Y6604D02*
Y7366D01*
X7264Y10211D02*
Y10363D01*
X6909Y9677D02*
Y9855D01*
X7264Y10211D01*
X7518D02*
Y10363D01*
X7315Y9677D02*
Y10008D01*
X7518Y10211D01*
X7722Y9652D02*
Y10109D01*
X7772Y10160D02*
Y10363D01*
X7722Y10109D02*
X7772Y10160D01*
X8128Y9677D02*
Y10262D01*
X8026Y10363D02*
X8128Y10262D01*
X8052Y10643D02*
X8738D01*
X8026Y10617D02*
X8052Y10643D01*
X6985Y10338D02*
X7010Y10363D01*
X6248Y10338D02*
X6985D01*
X6756Y6045D02*
X6807D01*
X6045Y7214D02*
Y7315D01*
Y7214D02*
X6198Y7061D01*
Y6604D02*
Y7061D01*
Y6604D02*
X6756Y6045D01*
X8331Y6858D02*
X8839Y7366D01*
X7569Y6299D02*
Y6401D01*
X7671Y6502D01*
X7779D01*
X8134Y6858D01*
X8331D01*
X7518Y6604D02*
X7772D01*
X8534Y7366D02*
X8585D01*
Y7315D02*
Y7366D01*
X7417Y6502D02*
X7518Y6604D01*
X7772D02*
X8128Y6960D01*
X8230D01*
X8585Y7315D01*
X7315Y6248D02*
Y6604D01*
X8026Y7061D02*
X8331Y7366D01*
X7315Y6604D02*
X7417Y6706D01*
X7722D01*
X7823Y6807D01*
Y6960D01*
X7925Y7061D01*
X8026D01*
X7315Y7315D02*
Y7366D01*
X6909Y6909D02*
X7315Y7315D01*
X7061D02*
Y7366D01*
X6782Y6833D02*
Y7036D01*
X7061Y7315D01*
Y6299D02*
Y6401D01*
X6807Y7264D02*
Y7366D01*
X6706Y6756D02*
X7061Y6401D01*
X6706Y6756D02*
Y7163D01*
X6807Y7264D01*
X6553Y6604D02*
X6706Y6452D01*
Y6299D02*
X6807D01*
X6350Y6655D02*
Y6934D01*
Y6655D02*
X6706Y6299D01*
X6299Y7010D02*
Y7366D01*
X4775Y8890D02*
X4801D01*
X4978Y8026D02*
X5283Y8331D01*
X4470Y8026D02*
X4978D01*
X4267Y8230D02*
X4470Y8026D01*
X4267Y8230D02*
Y8382D01*
X4775Y8890D01*
X5080Y10160D02*
Y10820D01*
X5283Y9119D02*
Y9449D01*
X5055Y8890D02*
X5283Y9119D01*
X5080Y9652D02*
X5283Y9449D01*
X5080Y9652D02*
Y10160D01*
X4901Y8864D02*
X4928Y8890D01*
Y9042D01*
X4521Y9449D02*
X4928Y9042D01*
X4521Y9449D02*
X4826Y9754D01*
Y10160D01*
X7569Y7010D02*
X7671Y6909D01*
X7569Y7010D02*
Y7366D01*
X6483Y8896D02*
X6502Y8915D01*
Y8484D02*
Y8915D01*
X6299Y8280D02*
X6502Y8484D01*
X6299Y8128D02*
Y8280D01*
X8331Y8915D02*
X8661D01*
X6604Y8077D02*
X6756Y7925D01*
X9195D01*
X9246Y7976D01*
Y8331D01*
X8661Y8915D02*
X9246Y8331D01*
X7366Y8661D02*
X7544D01*
X7722Y8484D01*
X7874D01*
X8077Y8280D01*
X7792Y8560D02*
X8001D01*
X8331Y8230D01*
X7315Y8915D02*
X7341D01*
X7614Y8738D02*
X7792Y8560D01*
X7518Y8738D02*
X7614D01*
X7341Y8915D02*
X7518Y8738D01*
X8331Y8128D02*
Y8230D01*
X9093Y8128D02*
Y8331D01*
X7925Y8890D02*
Y8915D01*
X8636Y8788D02*
X9093Y8331D01*
X8026Y8788D02*
X8636D01*
X7925Y8890D02*
X8026Y8788D01*
X8509Y8712D02*
X8839Y8382D01*
Y8128D02*
Y8382D01*
X7722Y8845D02*
Y8915D01*
X7855Y8712D02*
X8509D01*
X7722Y8845D02*
X7855Y8712D01*
X8433Y8636D02*
X8585Y8484D01*
X7823Y8636D02*
X8433D01*
X7544Y8915D02*
X7823Y8636D01*
D12*
X7518Y10617D02*
X7645Y10490D01*
X7518Y9677D02*
Y10058D01*
X7645Y10185D02*
Y10490D01*
X7518Y10058D02*
X7645Y10185D01*
X7264Y10617D02*
X7391Y10490D01*
X7112Y9677D02*
Y9931D01*
X7391Y10211D02*
Y10490D01*
X7112Y9931D02*
X7391Y10211D01*
X7417Y6401D02*
X7442Y6375D01*
Y6172D02*
X7569Y6045D01*
X7442Y6172D02*
Y6375D01*
X7163Y6452D02*
X7188Y6426D01*
Y6172D02*
X7315Y6045D01*
X7188Y6172D02*
Y6426D01*
X6858D02*
Y6452D01*
X6934Y6172D02*
X7036Y6071D01*
X6934Y6172D02*
Y6350D01*
X6858Y6426D02*
X6934Y6350D01*
D13*
X4572Y6934D02*
D03*
Y7696D02*
D03*
X6350Y6172D02*
D03*
Y6934D02*
D03*
X5791Y6172D02*
D03*
Y6934D02*
D03*
X6045Y6172D02*
D03*
Y6934D02*
D03*
X6502Y8915D02*
D03*
Y9677D02*
D03*
X6706Y8915D02*
D03*
Y9677D02*
D03*
X6909Y8915D02*
D03*
Y9677D02*
D03*
X7112Y8915D02*
D03*
Y9677D02*
D03*
X7315Y8915D02*
D03*
Y9677D02*
D03*
X7518Y8915D02*
D03*
Y9677D02*
D03*
X7722Y8915D02*
D03*
Y9677D02*
D03*
X7925Y8915D02*
D03*
Y9677D02*
D03*
X8331Y8915D02*
D03*
Y9677D02*
D03*
X8128Y8915D02*
D03*
Y9677D02*
D03*
D14*
X4877Y7670D02*
D03*
X4216Y7569D02*
D03*
Y7315D02*
D03*
X6807Y6299D02*
D03*
X7061Y6045D02*
D03*
Y6299D02*
D03*
X7315Y6045D02*
D03*
Y6299D02*
D03*
X7569Y6045D02*
D03*
Y6299D02*
D03*
X7823Y6045D02*
D03*
Y6299D02*
D03*
X8788Y9093D02*
D03*
X9042Y9347D02*
D03*
X8788D02*
D03*
X9042Y9601D02*
D03*
X8788D02*
D03*
X5080Y10820D02*
D03*
X7010Y10363D02*
D03*
Y10617D02*
D03*
X7264Y10363D02*
D03*
Y10617D02*
D03*
X7518Y10363D02*
D03*
Y10617D02*
D03*
X7772Y10363D02*
D03*
Y10617D02*
D03*
X8026Y10363D02*
D03*
D15*
X4877Y6960D02*
D03*
X4216Y7061D02*
D03*
X6807Y6045D02*
D03*
X9042Y9093D02*
D03*
X4826Y10820D02*
D03*
X8026Y10617D02*
D03*
D16*
X4826Y10160D02*
D03*
X5080D02*
D03*
D17*
X5055Y8890D02*
D03*
X4928D02*
D03*
D18*
X4801D02*
D03*
D19*
X5283Y8331D02*
D03*
X4521D02*
D03*
X5283Y9449D02*
D03*
X4521D02*
D03*
X6248Y8484D02*
D03*
X7010D02*
D03*
X7518D02*
D03*
X8280D02*
D03*
X6909Y6909D02*
D03*
X7671D02*
D03*
D20*
X9093Y8128D02*
D03*
X8839D02*
D03*
X8331D02*
D03*
X8077D02*
D03*
X7823D02*
D03*
X7569D02*
D03*
X7315D02*
D03*
X7061D02*
D03*
X6807D02*
D03*
X6553D02*
D03*
X6299D02*
D03*
X6045D02*
D03*
X5791D02*
D03*
X9093Y7366D02*
D03*
X8839D02*
D03*
X8585D02*
D03*
X8331D02*
D03*
X8077D02*
D03*
X7823D02*
D03*
X7569D02*
D03*
X7315D02*
D03*
X7061D02*
D03*
X6807D02*
D03*
X6553D02*
D03*
X6299D02*
D03*
X6045D02*
D03*
X8585Y8128D02*
D03*
D21*
X5791Y7366D02*
D03*
D22*
X8738Y10389D02*
D03*
Y10516D02*
D03*
X4724Y6502D02*
D03*
Y6629D02*
D03*
X5283Y6502D02*
D03*
Y6629D02*
D03*
X6248Y10465D02*
D03*
Y10592D02*
D03*
D23*
X8738Y10643D02*
D03*
X4724Y6375D02*
D03*
X5283D02*
D03*
X6248Y10338D02*
D03*
M02*
